G04*
G04 #@! TF.GenerationSoftware,Altium Limited,Altium Designer,20.0.13 (296)*
G04*
G04 Layer_Color=32896*
%FSLAX25Y25*%
%MOIN*%
G70*
G01*
G75*
%ADD13C,0.00500*%
D13*
X271500Y237583D02*
Y260417D01*
X251500D02*
X271500D01*
X251500Y237583D02*
Y260417D01*
Y237583D02*
X271500D01*
Y260417D01*
X251500D02*
X271500D01*
X251500Y237583D02*
Y260417D01*
Y237583D02*
X271500D01*
X192244Y166248D02*
X197756Y166248D01*
X192244Y174752D02*
X197756D01*
X197756Y166248D02*
X197756Y174752D01*
X192244Y166248D02*
Y174752D01*
Y166248D02*
X197756Y166248D01*
X192244Y174752D02*
X197756D01*
X197756Y166248D02*
X197756Y174752D01*
X192244Y166248D02*
Y174752D01*
X213744Y166748D02*
X219256D01*
X213744Y175252D02*
X219256D01*
X219256Y166748D02*
X219256Y175252D01*
X213744D02*
X213744Y166748D01*
X219256D01*
X213744Y175252D02*
X219256D01*
X219256Y166748D02*
X219256Y175252D01*
X213744D02*
X213744Y166748D01*
X326890Y227535D02*
Y234465D01*
X323110Y227535D02*
Y234465D01*
X326890Y234465D01*
X323110Y227535D02*
X326890Y227535D01*
Y234465D01*
X323110Y227535D02*
Y234465D01*
X326890Y234465D01*
X323110Y227535D02*
X326890Y227535D01*
X326890Y197725D02*
Y204654D01*
X323110Y197725D02*
Y204654D01*
X326890Y204654D01*
X323110Y197725D02*
X326890Y197725D01*
Y204654D01*
X323110Y197725D02*
Y204654D01*
X326890Y204654D01*
X323110Y197725D02*
X326890Y197725D01*
X326890Y167914D02*
Y174843D01*
X323110Y167914D02*
Y174843D01*
X326890Y174843D01*
X323110Y167914D02*
X326890Y167914D01*
Y174843D01*
X323110Y167914D02*
Y174843D01*
X326890Y174843D01*
X323110Y167914D02*
X326890Y167914D01*
X326890Y138103D02*
Y145032D01*
X323110Y138103D02*
Y145032D01*
X326890Y145032D01*
X323110Y138103D02*
X326890Y138103D01*
Y145032D01*
X323110Y138103D02*
Y145032D01*
X326890Y145032D01*
X323110Y138103D02*
X326890Y138103D01*
X337429Y132244D02*
X345933D01*
X337429Y137756D02*
X345933D01*
X337429Y132244D02*
Y137756D01*
X345933Y132244D02*
Y137756D01*
X337429Y132244D02*
X345933D01*
X337429Y137756D02*
X345933D01*
X337429Y132244D02*
Y137756D01*
X345933Y132244D02*
Y137756D01*
X316890Y174739D02*
Y181668D01*
X313110Y174739D02*
Y181668D01*
X316890D01*
X313110Y174739D02*
X316890D01*
Y181668D01*
X313110Y174739D02*
Y181668D01*
X316890D01*
X313110Y174739D02*
X316890D01*
X313110Y160040D02*
Y166969D01*
X316890Y166969D02*
X316890Y160040D01*
X313110Y160040D02*
X316890Y160040D01*
X313110Y166969D02*
X316890Y166969D01*
X313110Y160040D02*
Y166969D01*
X316890Y166969D02*
X316890Y160040D01*
X313110Y160040D02*
X316890Y160040D01*
X313110Y166969D02*
X316890Y166969D01*
Y145340D02*
X316890Y152269D01*
X313110Y145340D02*
Y152269D01*
X316890Y152269D01*
X313110Y145340D02*
X316890Y145340D01*
X316890Y152269D01*
X313110Y145340D02*
Y152269D01*
X316890Y152269D01*
X313110Y145340D02*
X316890Y145340D01*
X313110Y130641D02*
Y137570D01*
X316890Y130641D02*
Y137570D01*
X313110Y130641D02*
X316890Y130641D01*
X313110Y137570D02*
X316890Y137570D01*
X313110Y130641D02*
Y137570D01*
X316890Y130641D02*
Y137570D01*
X313110Y130641D02*
X316890Y130641D01*
X313110Y137570D02*
X316890Y137570D01*
X337429Y146887D02*
X345933D01*
X337429Y152399D02*
X345933D01*
X337429Y146887D02*
Y152399D01*
X345933Y146887D02*
Y152399D01*
X337429Y146887D02*
X345933D01*
X337429Y152399D02*
X345933D01*
X337429Y146887D02*
Y152399D01*
X345933Y146887D02*
Y152399D01*
X248894Y175201D02*
X257398D01*
X248894Y180713D02*
X257398D01*
X248894Y175201D02*
Y180713D01*
X257398Y175201D02*
Y180713D01*
X248894Y175201D02*
X257398D01*
X248894Y180713D02*
X257398D01*
X248894Y175201D02*
Y180713D01*
X257398Y175201D02*
Y180713D01*
X271277Y175244D02*
X279781D01*
X271277Y180756D02*
X279781D01*
X271277Y175244D02*
Y180756D01*
X279781Y175244D02*
Y180756D01*
X271277Y175244D02*
X279781D01*
X271277Y180756D02*
X279781D01*
X271277Y175244D02*
Y180756D01*
X279781Y175244D02*
Y180756D01*
X337429Y161530D02*
X345933D01*
X337429Y167042D02*
X345933D01*
X337429Y161530D02*
Y167042D01*
X345933Y161530D02*
Y167042D01*
X337429Y161530D02*
X345933D01*
X337429Y167042D02*
X345933D01*
X337429Y161530D02*
Y167042D01*
X345933Y161530D02*
Y167042D01*
X258890Y161035D02*
Y167965D01*
X255110Y161035D02*
Y167965D01*
X258890D01*
X255110Y161035D02*
X258890D01*
Y167965D01*
X255110Y161035D02*
Y167965D01*
X258890D01*
X255110Y161035D02*
X258890D01*
X272065Y167735D02*
X278994D01*
X272065Y163956D02*
X278994D01*
X272065D02*
Y167735D01*
X278994Y163956D02*
Y167735D01*
X272065D02*
X278994D01*
X272065Y163956D02*
X278994D01*
X272065D02*
Y167735D01*
X278994Y163956D02*
Y167735D01*
X337429Y176173D02*
X345933D01*
X337429Y181684D02*
X345933D01*
X337429Y176173D02*
Y181684D01*
X345933Y176173D02*
Y181684D01*
X337429Y176173D02*
X345933D01*
X337429Y181684D02*
X345933D01*
X337429Y176173D02*
Y181684D01*
X345933Y176173D02*
Y181684D01*
X337429Y190815D02*
X345933D01*
X337429Y196327D02*
X345933D01*
X337429Y190815D02*
Y196327D01*
X345933Y190815D02*
Y196327D01*
X337429Y190815D02*
X345933D01*
X337429Y196327D02*
X345933D01*
X337429Y190815D02*
Y196327D01*
X345933Y190815D02*
Y196327D01*
X316890Y240465D02*
X316890Y233535D01*
X313110Y233535D02*
Y240465D01*
X316890D01*
X313110Y233535D02*
X316890Y233535D01*
X316890Y240465D02*
X316890Y233535D01*
X313110Y233535D02*
Y240465D01*
X316890D01*
X313110Y233535D02*
X316890Y233535D01*
X313110Y218836D02*
Y225765D01*
X316890Y218836D02*
Y225765D01*
X313110Y218836D02*
X316890D01*
X313110Y225765D02*
X316890D01*
X313110Y218836D02*
Y225765D01*
X316890Y218836D02*
Y225765D01*
X313110Y218836D02*
X316890D01*
X313110Y225765D02*
X316890D01*
X316890Y204137D02*
Y211066D01*
X313110D02*
X313110Y204137D01*
X313110Y211066D02*
X316890D01*
X313110Y204137D02*
X316890D01*
Y211066D01*
X313110D02*
X313110Y204137D01*
X313110Y211066D02*
X316890D01*
X313110Y204137D02*
X316890D01*
X313110Y189438D02*
Y196367D01*
X316890Y189438D02*
Y196367D01*
X313110Y189438D02*
X316890D01*
X313110Y196367D02*
X316890Y196367D01*
X313110Y189438D02*
Y196367D01*
X316890Y189438D02*
Y196367D01*
X313110Y189438D02*
X316890D01*
X313110Y196367D02*
X316890Y196367D01*
X337429Y205458D02*
X345933D01*
X337429Y210970D02*
X345933D01*
X337429Y205458D02*
Y210970D01*
X345933Y205458D02*
Y210970D01*
X337429Y205458D02*
X345933D01*
X337429Y210970D02*
X345933D01*
X337429Y205458D02*
Y210970D01*
X345933Y205458D02*
Y210970D01*
X337429Y220101D02*
X345933D01*
X337429Y225613D02*
X345933D01*
X337429Y220101D02*
Y225613D01*
X345933Y220101D02*
Y225613D01*
X337429Y220101D02*
X345933D01*
X337429Y225613D02*
X345933D01*
X337429Y220101D02*
Y225613D01*
X345933Y220101D02*
Y225613D01*
X337429Y234744D02*
X345933D01*
X337429Y240256D02*
X345933Y240256D01*
X337429Y234744D02*
Y240256D01*
X345933Y234744D02*
Y240256D01*
X337429Y234744D02*
X345933D01*
X337429Y240256D02*
X345933Y240256D01*
X337429Y234744D02*
Y240256D01*
X345933Y234744D02*
Y240256D01*
X223244Y166748D02*
Y175252D01*
X228756Y166748D02*
X228756Y175252D01*
X223244D02*
X228756D01*
X223244Y166748D02*
X228756Y166748D01*
X223244Y166748D02*
Y175252D01*
X228756Y166748D02*
X228756Y175252D01*
X223244D02*
X228756D01*
X223244Y166748D02*
X228756Y166748D01*
X202744Y166429D02*
X202744Y174933D01*
X208256Y166429D02*
X208256Y174933D01*
X202744D02*
X208256D01*
X202744Y166429D02*
X208256D01*
X202744D02*
X202744Y174933D01*
X208256Y166429D02*
X208256Y174933D01*
X202744D02*
X208256D01*
X202744Y166429D02*
X208256D01*
X181744Y166248D02*
Y174752D01*
X187256Y166248D02*
Y174752D01*
X181744D02*
X187256D01*
X181744Y166248D02*
X187256D01*
X181744D02*
Y174752D01*
X187256Y166248D02*
Y174752D01*
X181744D02*
X187256D01*
X181744Y166248D02*
X187256D01*
X170244Y174752D02*
X170244Y166248D01*
X175756D02*
Y174752D01*
X170244D02*
X175756D01*
X170244Y166248D02*
X175756D01*
X170244Y174752D02*
X170244Y166248D01*
X175756D02*
Y174752D01*
X170244D02*
X175756D01*
X170244Y166248D02*
X175756D01*
X214610Y215035D02*
Y221965D01*
X218390Y215035D02*
Y221965D01*
X214610Y215035D02*
X218390D01*
X214610Y221965D02*
X218390D01*
X214610Y215035D02*
Y221965D01*
X218390Y215035D02*
Y221965D01*
X214610Y215035D02*
X218390D01*
X214610Y221965D02*
X218390D01*
X174610Y215035D02*
Y221965D01*
X178390Y215035D02*
Y221965D01*
X174610Y215035D02*
X178390D01*
X174610Y221965D02*
X178390D01*
X174610Y215035D02*
Y221965D01*
X178390Y215035D02*
Y221965D01*
X174610Y215035D02*
X178390D01*
X174610Y221965D02*
X178390D01*
X159244Y166248D02*
Y174752D01*
X164756Y166248D02*
Y174752D01*
X159244D02*
X164756D01*
X159244Y166248D02*
X164756D01*
X159244D02*
Y174752D01*
X164756Y166248D02*
Y174752D01*
X159244D02*
X164756D01*
X159244Y166248D02*
X164756D01*
X291535Y229390D02*
X298465D01*
X291535Y225610D02*
X298465D01*
X291535D02*
Y229390D01*
X298465Y225610D02*
Y229390D01*
X291535D02*
X298465D01*
X291535Y225610D02*
X298465D01*
X291535D02*
Y229390D01*
X298465Y225610D02*
Y229390D01*
M02*
