M48
;Layer_Color=9474304
;FILE_FORMAT=2:5
INCH,LZ
;TYPE=PLATED
T1F00S00C0.03543
T2F00S00C0.04094
T3F00S00C0.04685
T4F00S00C0.11811
%
T01
X0364Y0129
Y0139
Y0149
Y0159
Y0169
Y0179
Y0189
Y0199
Y0209
Y0219
Y0229
Y0239
T02
X0136Y0034795
Y0044795
Y0054795
Y0064795
Y0074795
X0036
Y0064795
Y0054795
Y0044795
Y0034795
Y0084795
Y0094795
Y0104795
Y0114795
Y0124795
Y0134795
Y0144795
Y0154795
Y0164795
Y0174795
Y0184795
Y0194795
Y0204795
Y0214795
X0136
Y0204795
Y0194795
Y0184795
Y0174795
Y0164795
Y0154795
Y0144795
Y0134795
Y0124795
Y0114795
Y0104795
Y0094795
Y0084795
T03
X02565Y0249
X02665
T04
X02495Y0013
X0291Y02555
X0015
M30
