G04*
G04 #@! TF.GenerationSoftware,Altium Limited,Altium Designer,20.0.13 (296)*
G04*
G04 Layer_Color=255*
%FSLAX25Y25*%
%MOIN*%
G70*
G01*
G75*
%ADD14R,0.05591X0.03937*%
%ADD15R,0.03819X0.03622*%
%ADD16R,0.03937X0.05591*%
%ADD17R,0.03622X0.03819*%
%ADD18O,0.07677X0.01968*%
%ADD19R,0.03543X0.08268*%
%ADD20R,0.12598X0.08268*%
%ADD47C,0.06000*%
%ADD48C,0.07028*%
%ADD49R,0.07028X0.07028*%
%ADD50R,0.06142X0.06142*%
G04:AMPARAMS|DCode=51|XSize=74.8mil|YSize=61.42mil|CornerRadius=0mil|HoleSize=0mil|Usage=FLASHONLY|Rotation=0.000|XOffset=0mil|YOffset=0mil|HoleType=Round|Shape=Octagon|*
%AMOCTAGOND51*
4,1,8,0.03740,-0.01535,0.03740,0.01535,0.02205,0.03071,-0.02205,0.03071,-0.03740,0.01535,-0.03740,-0.01535,-0.02205,-0.03071,0.02205,-0.03071,0.03740,-0.01535,0.0*
%
%ADD51OCTAGOND51*%

G04:AMPARAMS|DCode=52|XSize=74.8mil|YSize=59.06mil|CornerRadius=0mil|HoleSize=0mil|Usage=FLASHONLY|Rotation=90.000|XOffset=0mil|YOffset=0mil|HoleType=Round|Shape=Octagon|*
%AMOCTAGOND52*
4,1,8,0.01476,0.03740,-0.01476,0.03740,-0.02953,0.02264,-0.02953,-0.02264,-0.01476,-0.03740,0.01476,-0.03740,0.02953,-0.02264,0.02953,0.02264,0.01476,0.03740,0.0*
%
%ADD52OCTAGOND52*%

D14*
X195000Y174181D02*
D03*
Y166819D02*
D03*
X216500Y174681D02*
D03*
Y167319D02*
D03*
X226000Y167319D02*
D03*
Y174681D02*
D03*
X205500Y167000D02*
D03*
Y174362D02*
D03*
X184500Y166819D02*
D03*
Y174181D02*
D03*
X173000Y166819D02*
D03*
X173000Y174181D02*
D03*
X162000Y166819D02*
D03*
Y174181D02*
D03*
D15*
X325000Y227949D02*
D03*
Y234051D02*
D03*
Y198138D02*
D03*
Y204240D02*
D03*
Y168327D02*
D03*
Y174430D02*
D03*
Y138516D02*
D03*
Y144619D02*
D03*
X315000Y175152D02*
D03*
Y181254D02*
D03*
Y166555D02*
D03*
Y160453D02*
D03*
Y145754D02*
D03*
Y151856D02*
D03*
Y137157D02*
D03*
Y131055D02*
D03*
X257000Y161449D02*
D03*
Y167551D02*
D03*
X315000Y233949D02*
D03*
Y240051D02*
D03*
Y225352D02*
D03*
Y219250D02*
D03*
Y204551D02*
D03*
Y210653D02*
D03*
Y195954D02*
D03*
Y189851D02*
D03*
X216500Y221551D02*
D03*
Y215449D02*
D03*
X176500Y221551D02*
D03*
Y215449D02*
D03*
D16*
X345362Y135000D02*
D03*
X338000D02*
D03*
X345362Y149643D02*
D03*
X338000D02*
D03*
X256827Y177957D02*
D03*
X249465D02*
D03*
X279210Y178000D02*
D03*
X271848D02*
D03*
X345362Y164286D02*
D03*
X338000D02*
D03*
X345362Y178928D02*
D03*
X338000D02*
D03*
X345362Y193571D02*
D03*
X338000D02*
D03*
X345362Y208214D02*
D03*
X338000D02*
D03*
X345362Y222857D02*
D03*
X338000D02*
D03*
X345362Y237500D02*
D03*
X338000Y237500D02*
D03*
D17*
X278580Y165846D02*
D03*
X272478D02*
D03*
X298051Y227500D02*
D03*
X291949D02*
D03*
D18*
X247319Y218575D02*
D03*
Y216016D02*
D03*
X247319Y213433D02*
D03*
Y210874D02*
D03*
X247319Y208315D02*
D03*
X247319Y205756D02*
D03*
X247319Y203197D02*
D03*
X247319Y200638D02*
D03*
X274681Y218575D02*
D03*
Y216016D02*
D03*
X274681Y213457D02*
D03*
X274681Y210898D02*
D03*
X274681Y208339D02*
D03*
X274681Y205780D02*
D03*
X274681Y203221D02*
D03*
X274681Y200661D02*
D03*
X274681Y198102D02*
D03*
X274681Y195543D02*
D03*
X274681Y192984D02*
D03*
Y190425D02*
D03*
X274681Y223693D02*
D03*
Y221134D02*
D03*
X247319Y223693D02*
D03*
Y221134D02*
D03*
Y198079D02*
D03*
X247319Y195520D02*
D03*
X247319Y192961D02*
D03*
X247319Y190401D02*
D03*
D19*
X187445Y209500D02*
D03*
X196500Y209500D02*
D03*
X205555Y209500D02*
D03*
D20*
X196500Y231941D02*
D03*
D47*
X249500Y13000D02*
D03*
X291000Y255500D02*
D03*
X15000D02*
D03*
D48*
X266500Y249000D02*
D03*
D49*
X256500D02*
D03*
D50*
X36000Y214795D02*
D03*
D51*
Y204795D02*
D03*
Y34795D02*
D03*
Y194795D02*
D03*
Y184795D02*
D03*
Y174795D02*
D03*
Y164795D02*
D03*
Y154795D02*
D03*
Y144795D02*
D03*
Y134795D02*
D03*
Y124795D02*
D03*
Y114795D02*
D03*
Y104795D02*
D03*
Y94795D02*
D03*
Y84795D02*
D03*
Y74795D02*
D03*
Y64795D02*
D03*
Y54795D02*
D03*
Y44795D02*
D03*
X136000Y214795D02*
D03*
Y204795D02*
D03*
Y194795D02*
D03*
Y184795D02*
D03*
Y174795D02*
D03*
Y164795D02*
D03*
Y154795D02*
D03*
Y144795D02*
D03*
Y134795D02*
D03*
Y124795D02*
D03*
Y114795D02*
D03*
Y104795D02*
D03*
Y94795D02*
D03*
Y84795D02*
D03*
Y74795D02*
D03*
Y64795D02*
D03*
Y54795D02*
D03*
Y44795D02*
D03*
Y34795D02*
D03*
D52*
X364000Y239000D02*
D03*
Y229000D02*
D03*
Y219000D02*
D03*
Y209000D02*
D03*
Y199000D02*
D03*
Y189000D02*
D03*
Y179000D02*
D03*
Y169000D02*
D03*
Y159000D02*
D03*
Y149000D02*
D03*
Y139000D02*
D03*
Y129000D02*
D03*
M02*
