G04*
G04 #@! TF.GenerationSoftware,Altium Limited,Altium Designer,20.0.13 (296)*
G04*
G04 Layer_Color=32768*
%FSLAX25Y25*%
%MOIN*%
G70*
G01*
G75*
%ADD54C,0.00394*%
%ADD55C,0.00197*%
%ADD56C,0.01000*%
G36*
X-3052Y137900D02*
X-2991Y137895D01*
X-2925Y137883D01*
X-2847Y137872D01*
X-2769Y137856D01*
X-2758D01*
X-2730Y137845D01*
X-2692Y137833D01*
X-2636Y137822D01*
X-2569Y137800D01*
X-2497Y137778D01*
X-2342Y137717D01*
X-2336D01*
X-2320Y137706D01*
X-2297Y137695D01*
X-2275Y137684D01*
X-2270D01*
X-2253Y137678D01*
X-2231Y137667D01*
X-2209Y137656D01*
X-693Y136901D01*
Y136507D01*
X-2255Y137300D01*
X-2275Y137329D01*
X-2303Y137356D01*
X-2325Y137373D01*
X-2347Y137390D01*
X-2358Y137401D01*
X-2364D01*
X-2453D01*
X-2255Y137300D01*
X-2248Y137290D01*
X-2220Y137245D01*
X-2197Y137195D01*
Y137190D01*
X-2192Y137168D01*
X-2181Y137140D01*
X-2175Y137101D01*
X-2164Y137046D01*
X-2153Y136990D01*
X-2148Y136923D01*
Y136807D01*
X-2153Y136751D01*
X-2164Y136685D01*
X-2181Y136613D01*
X-2203Y136529D01*
X-2231Y136446D01*
X-2275Y136363D01*
X-2281Y136352D01*
X-2297Y136329D01*
X-2331Y136291D01*
X-2370Y136246D01*
X-2420Y136196D01*
X-2481Y136141D01*
X-2553Y136091D01*
X-2636Y136041D01*
X-2641D01*
X-2647Y136035D01*
X-2680Y136024D01*
X-2730Y136002D01*
X-2797Y135985D01*
X-2875Y135963D01*
X-2969Y135941D01*
X-3074Y135930D01*
X-3185Y135924D01*
X-3191D01*
X-3196D01*
X-3208D01*
X-3224D01*
X-3246D01*
X-3313Y135930D01*
X-3391Y135941D01*
X-3480Y135952D01*
X-3579Y135974D01*
X-3679Y136002D01*
X-3774Y136041D01*
X-3779D01*
X-3785Y136047D01*
X-3813Y136063D01*
X-3857Y136091D01*
X-3912Y136130D01*
X-3974Y136174D01*
X-4035Y136235D01*
X-4096Y136302D01*
X-4146Y136379D01*
X-4151Y136391D01*
X-4168Y136418D01*
X-4184Y136468D01*
X-4212Y136529D01*
X-4234Y136607D01*
X-4251Y136701D01*
X-4268Y136801D01*
X-4273Y136918D01*
Y136968D01*
X-4268Y137029D01*
X-4257Y137101D01*
X-4240Y137184D01*
X-4218Y137273D01*
X-4184Y137362D01*
X-4140Y137451D01*
X-4135Y137462D01*
X-4118Y137489D01*
X-4084Y137528D01*
X-4046Y137578D01*
X-3996Y137634D01*
X-3929Y137689D01*
X-3857Y137739D01*
X-3768Y137789D01*
X-3757Y137795D01*
X-3724Y137806D01*
X-3674Y137828D01*
X-3602Y137850D01*
X-3518Y137867D01*
X-3413Y137889D01*
X-3302Y137900D01*
X-3174Y137906D01*
X-3163D01*
X-3141D01*
X-3102D01*
X-3052Y137900D01*
D02*
G37*
G36*
X-693Y133366D02*
X-977D01*
X-2725Y134698D01*
X-2730Y134703D01*
X-2753Y134720D01*
X-2786Y134742D01*
X-2830Y134775D01*
X-2880Y134809D01*
X-2936Y134842D01*
X-2997Y134875D01*
X-3058Y134903D01*
X-3063Y134909D01*
X-3086Y134914D01*
X-3119Y134925D01*
X-3158Y134942D01*
X-3202Y134953D01*
X-3252Y134964D01*
X-3302Y134970D01*
X-3352Y134975D01*
X-3357D01*
X-3363D01*
X-3396D01*
X-3452Y134964D01*
X-3513Y134953D01*
X-3585Y134936D01*
X-3657Y134903D01*
X-3729Y134864D01*
X-3790Y134809D01*
X-3796Y134803D01*
X-3813Y134781D01*
X-3840Y134742D01*
X-3868Y134692D01*
X-3896Y134626D01*
X-3924Y134548D01*
X-3940Y134454D01*
X-3946Y134348D01*
Y134304D01*
X-3935Y134254D01*
X-3924Y134187D01*
X-3907Y134115D01*
X-3874Y134043D01*
X-3835Y133965D01*
X-3779Y133899D01*
X-3774Y133893D01*
X-3746Y133871D01*
X-3713Y133843D01*
X-3657Y133810D01*
X-3591Y133771D01*
X-3513Y133738D01*
X-3413Y133710D01*
X-3308Y133688D01*
Y133321D01*
X-3313D01*
X-3319D01*
X-3335Y133327D01*
X-3357Y133333D01*
X-3413Y133344D01*
X-3485Y133360D01*
X-3568Y133382D01*
X-3657Y133416D01*
X-3746Y133455D01*
X-3829Y133499D01*
X-3840Y133504D01*
X-3862Y133527D01*
X-3901Y133554D01*
X-3951Y133593D01*
X-4007Y133643D01*
X-4057Y133704D01*
X-4112Y133771D01*
X-4157Y133849D01*
X-4162Y133860D01*
X-4173Y133888D01*
X-4196Y133932D01*
X-4218Y133993D01*
X-4234Y134065D01*
X-4257Y134148D01*
X-4268Y134243D01*
X-4273Y134343D01*
Y134398D01*
X-4268Y134454D01*
X-4262Y134531D01*
X-4245Y134615D01*
X-4229Y134709D01*
X-4201Y134798D01*
X-4162Y134887D01*
X-4157Y134898D01*
X-4140Y134925D01*
X-4118Y134964D01*
X-4084Y135014D01*
X-4040Y135070D01*
X-3985Y135125D01*
X-3918Y135175D01*
X-3846Y135225D01*
X-3835Y135231D01*
X-3807Y135242D01*
X-3768Y135264D01*
X-3707Y135286D01*
X-3635Y135308D01*
X-3552Y135330D01*
X-3457Y135342D01*
X-3352Y135347D01*
X-3346D01*
X-3341D01*
X-3319D01*
X-3280Y135342D01*
X-3235Y135336D01*
X-3180Y135325D01*
X-3113Y135303D01*
X-3041Y135281D01*
X-2963Y135247D01*
X-2952Y135242D01*
X-2925Y135231D01*
X-2886Y135208D01*
X-2830Y135181D01*
X-2764Y135142D01*
X-2692Y135097D01*
X-2608Y135042D01*
X-2525Y134981D01*
X-1015Y133804D01*
Y135364D01*
X-693D01*
Y133366D01*
D02*
G37*
G36*
Y132283D02*
X-1093D01*
Y132683D01*
X-693D01*
Y132283D01*
D02*
G37*
G36*
X-1615Y131623D02*
X-1537Y131612D01*
X-1448Y131601D01*
X-1348Y131579D01*
X-1249Y131551D01*
X-1154Y131512D01*
X-1143Y131507D01*
X-1115Y131490D01*
X-1071Y131462D01*
X-1015Y131423D01*
X-954Y131379D01*
X-893Y131318D01*
X-838Y131246D01*
X-782Y131168D01*
X-777Y131157D01*
X-766Y131129D01*
X-743Y131079D01*
X-721Y131018D01*
X-699Y130940D01*
X-677Y130852D01*
X-666Y130746D01*
X-660Y130635D01*
Y130585D01*
X-666Y130524D01*
X-677Y130452D01*
X-688Y130369D01*
X-710Y130280D01*
X-743Y130191D01*
X-782Y130102D01*
X-788Y130091D01*
X-805Y130064D01*
X-832Y130025D01*
X-871Y129975D01*
X-927Y129925D01*
X-988Y129864D01*
X-1060Y129814D01*
X-1143Y129764D01*
X-1149D01*
X-1154Y129758D01*
X-1187Y129747D01*
X-1237Y129725D01*
X-1309Y129708D01*
X-1393Y129686D01*
X-1493Y129664D01*
X-1604Y129653D01*
X-1726Y129647D01*
X-1737D01*
X-1759D01*
X-1798D01*
X-1848Y129653D01*
X-1909Y129658D01*
X-1981Y129664D01*
X-2059Y129675D01*
X-2136Y129692D01*
X-2148D01*
X-2175Y129703D01*
X-2220Y129714D01*
X-2275Y129730D01*
X-2342Y129747D01*
X-2414Y129769D01*
X-2569Y129830D01*
X-2575D01*
X-2592Y129836D01*
X-2614Y129847D01*
X-2636Y129858D01*
X-2641Y129864D01*
X-2658Y129869D01*
X-2680Y129886D01*
X-2708Y129897D01*
X-4234Y130663D01*
Y131057D01*
X-2659Y130250D01*
X-2647Y130236D01*
X-2619Y130208D01*
X-2597Y130180D01*
X-2575Y130163D01*
X-2564Y130158D01*
X-2558Y130152D01*
X-2469D01*
X-2659Y130250D01*
X-2680Y130274D01*
X-2708Y130313D01*
X-2730Y130363D01*
X-2736Y130369D01*
X-2741Y130385D01*
X-2753Y130419D01*
X-2764Y130458D01*
X-2775Y130502D01*
X-2786Y130558D01*
X-2797Y130613D01*
Y130729D01*
X-2791Y130785D01*
X-2780Y130857D01*
X-2764Y130935D01*
X-2741Y131024D01*
X-2714Y131107D01*
X-2669Y131190D01*
X-2664Y131201D01*
X-2647Y131223D01*
X-2619Y131262D01*
X-2581Y131312D01*
X-2525Y131368D01*
X-2464Y131418D01*
X-2392Y131473D01*
X-2308Y131518D01*
X-2297Y131523D01*
X-2270Y131534D01*
X-2220Y131551D01*
X-2148Y131573D01*
X-2064Y131595D01*
X-1970Y131612D01*
X-1859Y131623D01*
X-1737Y131629D01*
X-1731D01*
X-1720D01*
X-1704D01*
X-1681D01*
X-1615Y131623D01*
D02*
G37*
G36*
Y129059D02*
X-1537Y129048D01*
X-1448Y129037D01*
X-1348Y129015D01*
X-1249Y128987D01*
X-1154Y128948D01*
X-1143Y128943D01*
X-1115Y128926D01*
X-1071Y128898D01*
X-1015Y128859D01*
X-954Y128815D01*
X-893Y128754D01*
X-838Y128682D01*
X-782Y128604D01*
X-777Y128593D01*
X-766Y128565D01*
X-743Y128515D01*
X-721Y128454D01*
X-699Y128376D01*
X-677Y128288D01*
X-666Y128182D01*
X-660Y128071D01*
Y128021D01*
X-666Y127960D01*
X-677Y127888D01*
X-688Y127805D01*
X-710Y127716D01*
X-743Y127627D01*
X-782Y127538D01*
X-788Y127527D01*
X-805Y127499D01*
X-832Y127461D01*
X-871Y127411D01*
X-927Y127361D01*
X-988Y127300D01*
X-1060Y127250D01*
X-1143Y127200D01*
X-1149D01*
X-1154Y127194D01*
X-1187Y127183D01*
X-1237Y127161D01*
X-1309Y127144D01*
X-1393Y127122D01*
X-1493Y127100D01*
X-1604Y127089D01*
X-1726Y127083D01*
X-1737D01*
X-1759D01*
X-1798D01*
X-1848Y127089D01*
X-1909Y127094D01*
X-1981Y127100D01*
X-2059Y127111D01*
X-2136Y127128D01*
X-2148D01*
X-2175Y127139D01*
X-2220Y127150D01*
X-2275Y127166D01*
X-2342Y127183D01*
X-2414Y127205D01*
X-2569Y127266D01*
X-2575D01*
X-2592Y127272D01*
X-2614Y127283D01*
X-2636Y127294D01*
X-2641Y127300D01*
X-2658Y127305D01*
X-2680Y127322D01*
X-2708Y127333D01*
X-4234Y128099D01*
Y128493D01*
X-2659Y127685D01*
X-2647Y127672D01*
X-2619Y127644D01*
X-2597Y127616D01*
X-2575Y127599D01*
X-2564Y127594D01*
X-2558Y127588D01*
X-2469D01*
X-2659Y127685D01*
X-2680Y127710D01*
X-2708Y127749D01*
X-2730Y127799D01*
X-2736Y127805D01*
X-2741Y127821D01*
X-2753Y127855D01*
X-2764Y127893D01*
X-2775Y127938D01*
X-2786Y127993D01*
X-2797Y128049D01*
Y128165D01*
X-2791Y128221D01*
X-2780Y128293D01*
X-2764Y128371D01*
X-2741Y128460D01*
X-2714Y128543D01*
X-2669Y128626D01*
X-2664Y128637D01*
X-2647Y128659D01*
X-2619Y128698D01*
X-2581Y128748D01*
X-2525Y128804D01*
X-2464Y128854D01*
X-2392Y128909D01*
X-2308Y128954D01*
X-2297Y128959D01*
X-2270Y128970D01*
X-2220Y128987D01*
X-2148Y129009D01*
X-2064Y129031D01*
X-1970Y129048D01*
X-1859Y129059D01*
X-1737Y129065D01*
X-1731D01*
X-1720D01*
X-1704D01*
X-1681D01*
X-1615Y129059D01*
D02*
G37*
G36*
X195831Y-9435D02*
X196175D01*
Y-9746D01*
X195831D01*
Y-9435D01*
X195492D01*
Y-8209D01*
X195831D01*
Y-9435D01*
D02*
G37*
G36*
X189343D02*
X189687D01*
Y-9746D01*
X189343D01*
Y-9435D01*
X189004D01*
Y-8209D01*
X189343D01*
Y-9435D01*
D02*
G37*
G36*
X194288D02*
X195492D01*
Y-9746D01*
X195831D01*
Y-10290D01*
X195492D01*
Y-9746D01*
X193894D01*
Y-9463D01*
X195081Y-6749D01*
X195448D01*
X194288Y-9435D01*
D02*
G37*
G36*
X193256Y-7043D02*
X192340Y-10290D01*
X191957D01*
X192895Y-7071D01*
X191679D01*
Y-7731D01*
X191330D01*
Y-6749D01*
X193256D01*
Y-7043D01*
D02*
G37*
G36*
X190691Y-10290D02*
X190292D01*
Y-9890D01*
X190691D01*
Y-10290D01*
D02*
G37*
G36*
X187800Y-9435D02*
X189004D01*
Y-9746D01*
X189343D01*
Y-10290D01*
X189004D01*
Y-9746D01*
X187406D01*
Y-9463D01*
X188594Y-6749D01*
X188960D01*
X187800Y-9435D01*
D02*
G37*
G36*
X185918Y-6716D02*
X185991Y-6727D01*
X186074Y-6743D01*
X186163Y-6766D01*
X186251Y-6799D01*
X186340Y-6843D01*
X186351Y-6849D01*
X186379Y-6865D01*
X186418Y-6899D01*
X186468Y-6938D01*
X186523Y-6988D01*
X186579Y-7054D01*
X186629Y-7126D01*
X186679Y-7215D01*
X186684Y-7226D01*
X186696Y-7260D01*
X186718Y-7310D01*
X186740Y-7382D01*
X186757Y-7465D01*
X186779Y-7570D01*
X186790Y-7681D01*
X186795Y-7809D01*
Y-7820D01*
Y-7842D01*
Y-7881D01*
X186790Y-7931D01*
X186784Y-7992D01*
X186773Y-8059D01*
X186762Y-8136D01*
X186745Y-8214D01*
Y-8225D01*
X186734Y-8253D01*
X186723Y-8292D01*
X186712Y-8347D01*
X186690Y-8414D01*
X186668Y-8486D01*
X186607Y-8642D01*
Y-8647D01*
X186596Y-8664D01*
X186584Y-8686D01*
X186573Y-8708D01*
Y-8714D01*
X186568Y-8730D01*
X186557Y-8753D01*
X186546Y-8775D01*
X185791Y-10290D01*
X185397D01*
X186190Y-8728D01*
X186218Y-8708D01*
X186246Y-8680D01*
X186263Y-8658D01*
X186279Y-8636D01*
X186290Y-8625D01*
Y-8619D01*
Y-8530D01*
X186190Y-8728D01*
X186179Y-8736D01*
X186135Y-8764D01*
X186085Y-8786D01*
X186079D01*
X186057Y-8791D01*
X186030Y-8803D01*
X185991Y-8808D01*
X185935Y-8819D01*
X185880Y-8830D01*
X185813Y-8836D01*
X185696D01*
X185641Y-8830D01*
X185574Y-8819D01*
X185502Y-8803D01*
X185419Y-8780D01*
X185336Y-8753D01*
X185252Y-8708D01*
X185241Y-8703D01*
X185219Y-8686D01*
X185180Y-8653D01*
X185136Y-8614D01*
X185086Y-8564D01*
X185030Y-8503D01*
X184980Y-8431D01*
X184931Y-8347D01*
Y-8342D01*
X184925Y-8336D01*
X184914Y-8303D01*
X184892Y-8253D01*
X184875Y-8186D01*
X184853Y-8109D01*
X184831Y-8014D01*
X184820Y-7909D01*
X184814Y-7798D01*
Y-7792D01*
Y-7787D01*
Y-7776D01*
Y-7759D01*
Y-7737D01*
X184820Y-7670D01*
X184831Y-7593D01*
X184842Y-7504D01*
X184864Y-7404D01*
X184892Y-7304D01*
X184931Y-7210D01*
Y-7204D01*
X184936Y-7198D01*
X184953Y-7171D01*
X184980Y-7126D01*
X185019Y-7071D01*
X185064Y-7010D01*
X185125Y-6949D01*
X185191Y-6888D01*
X185269Y-6838D01*
X185280Y-6832D01*
X185308Y-6816D01*
X185358Y-6799D01*
X185419Y-6771D01*
X185497Y-6749D01*
X185591Y-6732D01*
X185691Y-6716D01*
X185808Y-6710D01*
X185857D01*
X185918Y-6716D01*
D02*
G37*
%LPC*%
G36*
X-3208Y137550D02*
X-3213D01*
X-3224D01*
X-3241D01*
X-3263D01*
X-3330Y137539D01*
X-3407Y137528D01*
X-3491Y137512D01*
X-3585Y137478D01*
X-3668Y137440D01*
X-3746Y137384D01*
X-3757Y137378D01*
X-3779Y137356D01*
X-3807Y137317D01*
X-3846Y137262D01*
X-3879Y137195D01*
X-3912Y137118D01*
X-3935Y137023D01*
X-3940Y136918D01*
Y136890D01*
X-3935Y136868D01*
X-3929Y136812D01*
X-3918Y136746D01*
X-3890Y136668D01*
X-3857Y136590D01*
X-3813Y136513D01*
X-3746Y136446D01*
X-3735Y136441D01*
X-3713Y136418D01*
X-3668Y136396D01*
X-3607Y136363D01*
X-3529Y136335D01*
X-3441Y136307D01*
X-3330Y136285D01*
X-3208Y136279D01*
X-3202D01*
X-3196D01*
X-3185D01*
X-3169D01*
X-3147Y136285D01*
X-3086Y136291D01*
X-3008Y136302D01*
X-2919Y136318D01*
X-2830Y136352D01*
X-2747Y136391D01*
X-2669Y136446D01*
X-2664Y136452D01*
X-2641Y136479D01*
X-2608Y136513D01*
X-2575Y136568D01*
X-2542Y136635D01*
X-2508Y136718D01*
X-2486Y136812D01*
X-2481Y136918D01*
Y136946D01*
X-2486Y136968D01*
X-2492Y137023D01*
X-2503Y137090D01*
X-2525Y137168D01*
X-2558Y137245D01*
X-2608Y137317D01*
X-2669Y137384D01*
X-2680Y137390D01*
X-2703Y137412D01*
X-2747Y137440D01*
X-2808Y137467D01*
X-2886Y137501D01*
X-2974Y137523D01*
X-3086Y137545D01*
X-3208Y137550D01*
D02*
G37*
G36*
X-1698Y131273D02*
X-1704D01*
X-1715D01*
X-1731D01*
X-1759D01*
X-1826Y131262D01*
X-1909Y131251D01*
X-1998Y131229D01*
X-2092Y131201D01*
X-2181Y131157D01*
X-2264Y131101D01*
X-2275Y131096D01*
X-2297Y131068D01*
X-2325Y131029D01*
X-2364Y130974D01*
X-2403Y130907D01*
X-2431Y130824D01*
X-2453Y130724D01*
X-2464Y130613D01*
Y130585D01*
X-2458Y130563D01*
X-2453Y130513D01*
X-2442Y130447D01*
X-2414Y130374D01*
X-2381Y130297D01*
X-2331Y130225D01*
X-2264Y130158D01*
X-2253Y130152D01*
X-2225Y130136D01*
X-2181Y130108D01*
X-2120Y130080D01*
X-2037Y130052D01*
X-1942Y130025D01*
X-1826Y130008D01*
X-1698Y130002D01*
X-1692D01*
X-1687D01*
X-1676D01*
X-1659D01*
X-1637Y130008D01*
X-1576Y130014D01*
X-1498Y130025D01*
X-1415Y130041D01*
X-1332Y130075D01*
X-1249Y130113D01*
X-1171Y130169D01*
X-1165Y130175D01*
X-1143Y130202D01*
X-1115Y130236D01*
X-1082Y130291D01*
X-1043Y130358D01*
X-1015Y130435D01*
X-993Y130530D01*
X-988Y130635D01*
Y130663D01*
X-993Y130685D01*
X-999Y130741D01*
X-1010Y130807D01*
X-1032Y130885D01*
X-1065Y130963D01*
X-1110Y131040D01*
X-1171Y131107D01*
X-1182Y131113D01*
X-1204Y131135D01*
X-1249Y131162D01*
X-1304Y131190D01*
X-1382Y131223D01*
X-1471Y131246D01*
X-1576Y131268D01*
X-1698Y131273D01*
D02*
G37*
G36*
Y128709D02*
X-1704D01*
X-1715D01*
X-1731D01*
X-1759D01*
X-1826Y128698D01*
X-1909Y128687D01*
X-1998Y128665D01*
X-2092Y128637D01*
X-2181Y128593D01*
X-2264Y128537D01*
X-2275Y128532D01*
X-2297Y128504D01*
X-2325Y128465D01*
X-2364Y128410D01*
X-2403Y128343D01*
X-2431Y128260D01*
X-2453Y128160D01*
X-2464Y128049D01*
Y128021D01*
X-2458Y127999D01*
X-2453Y127949D01*
X-2442Y127882D01*
X-2414Y127810D01*
X-2381Y127733D01*
X-2331Y127660D01*
X-2264Y127594D01*
X-2253Y127588D01*
X-2225Y127572D01*
X-2181Y127544D01*
X-2120Y127516D01*
X-2037Y127488D01*
X-1942Y127461D01*
X-1826Y127444D01*
X-1698Y127438D01*
X-1692D01*
X-1687D01*
X-1676D01*
X-1659D01*
X-1637Y127444D01*
X-1576Y127450D01*
X-1498Y127461D01*
X-1415Y127477D01*
X-1332Y127510D01*
X-1249Y127549D01*
X-1171Y127605D01*
X-1165Y127610D01*
X-1143Y127638D01*
X-1115Y127672D01*
X-1082Y127727D01*
X-1043Y127794D01*
X-1015Y127871D01*
X-993Y127966D01*
X-988Y128071D01*
Y128099D01*
X-993Y128121D01*
X-999Y128176D01*
X-1010Y128243D01*
X-1032Y128321D01*
X-1065Y128399D01*
X-1110Y128476D01*
X-1171Y128543D01*
X-1182Y128548D01*
X-1204Y128571D01*
X-1249Y128598D01*
X-1304Y128626D01*
X-1382Y128659D01*
X-1471Y128682D01*
X-1576Y128704D01*
X-1698Y128709D01*
D02*
G37*
G36*
X185808Y-7043D02*
X185780D01*
X185758Y-7049D01*
X185702Y-7054D01*
X185635Y-7065D01*
X185558Y-7093D01*
X185480Y-7126D01*
X185402Y-7171D01*
X185336Y-7237D01*
X185330Y-7248D01*
X185308Y-7271D01*
X185286Y-7315D01*
X185252Y-7376D01*
X185225Y-7454D01*
X185197Y-7543D01*
X185175Y-7654D01*
X185169Y-7776D01*
Y-7781D01*
Y-7787D01*
Y-7798D01*
Y-7815D01*
X185175Y-7837D01*
X185180Y-7898D01*
X185191Y-7976D01*
X185208Y-8064D01*
X185241Y-8153D01*
X185280Y-8236D01*
X185336Y-8314D01*
X185341Y-8320D01*
X185369Y-8342D01*
X185402Y-8375D01*
X185458Y-8408D01*
X185524Y-8442D01*
X185608Y-8475D01*
X185702Y-8497D01*
X185808Y-8503D01*
X185835D01*
X185857Y-8497D01*
X185913Y-8492D01*
X185979Y-8481D01*
X186057Y-8458D01*
X186135Y-8425D01*
X186207Y-8375D01*
X186274Y-8314D01*
X186279Y-8303D01*
X186301Y-8281D01*
X186329Y-8236D01*
X186357Y-8175D01*
X186390Y-8098D01*
X186412Y-8009D01*
X186435Y-7898D01*
X186440Y-7776D01*
Y-7770D01*
Y-7759D01*
Y-7742D01*
Y-7720D01*
X186429Y-7654D01*
X186418Y-7576D01*
X186401Y-7493D01*
X186368Y-7398D01*
X186329Y-7315D01*
X186274Y-7237D01*
X186268Y-7226D01*
X186246Y-7204D01*
X186207Y-7176D01*
X186152Y-7137D01*
X186085Y-7104D01*
X186007Y-7071D01*
X185913Y-7049D01*
X185808Y-7043D01*
D02*
G37*
%LPD*%
D54*
X261000Y202532D02*
Y206469D01*
X259032Y204500D02*
X262968D01*
X182917Y204972D02*
X210083D01*
X182917Y236468D02*
X210083D01*
X182917Y204972D02*
Y236468D01*
X210083Y204972D02*
Y236468D01*
X196500Y218752D02*
Y222689D01*
X194531Y220720D02*
X198469D01*
D55*
X30095Y244874D02*
X141905D01*
Y28732D02*
Y244874D01*
X30095Y28732D02*
X141905D01*
X30095D02*
Y244874D01*
X242496Y226500D02*
X279504Y226500D01*
Y186784D02*
Y226500D01*
X242496Y186784D02*
X279504D01*
X242496D02*
Y226500D01*
D56*
X-4500Y9000D02*
X-2500Y3000D01*
X-500Y9000D01*
X-2500Y264000D02*
X-500Y258000D01*
X-4500D02*
X-2500Y264000D01*
Y3000D02*
Y126083D01*
Y138906D02*
Y264000D01*
X-3500Y3000D02*
X5000D01*
X-3500Y264000D02*
X5500D01*
X5000Y-8500D02*
X11000Y-6500D01*
X5000Y-8500D02*
X11000Y-10500D01*
X372000D02*
X378000Y-8500D01*
X372000Y-6500D02*
X378000Y-8500D01*
X5000D02*
X183814D01*
X197175D02*
X378000D01*
X5000Y-9500D02*
Y3000D01*
X378000Y-9500D02*
Y-1000D01*
M02*
