G04*
G04 #@! TF.GenerationSoftware,Altium Limited,Altium Designer,20.0.13 (296)*
G04*
G04 Layer_Color=0*
%FSLAX25Y25*%
%MOIN*%
G70*
G01*
G75*
%ADD55C,0.00197*%
D55*
X272819Y236205D02*
Y261795D01*
X250181D02*
X272819D01*
X250181Y236205D02*
Y261795D01*
Y236205D02*
X272819D01*
X191220Y163847D02*
X198779D01*
X198779Y177154D02*
X198779Y163847D01*
X191220Y177154D02*
X198779D01*
X191220Y163847D02*
Y177154D01*
X212720Y164346D02*
X220280Y164347D01*
X220280Y177654D02*
X220280Y164347D01*
X212720Y177654D02*
X220280D01*
X212720Y164346D02*
Y177654D01*
X327894Y225153D02*
Y236846D01*
X322106Y225153D02*
Y236846D01*
Y225153D02*
X327894D01*
X322106Y236846D02*
X327894D01*
X327894Y195343D02*
Y207036D01*
X322106Y195343D02*
Y207036D01*
Y195343D02*
X327894D01*
X322106Y207036D02*
X327894D01*
X327894Y165532D02*
Y177225D01*
X322106Y165532D02*
Y177225D01*
Y165532D02*
X327894D01*
X322106Y177225D02*
X327894D01*
Y135721D02*
Y147414D01*
X322106Y135721D02*
Y147414D01*
Y135721D02*
X327894D01*
X322106Y147414D02*
X327894D01*
X335028Y131220D02*
X348335D01*
X335028D02*
Y138779D01*
X348335D01*
Y131220D02*
Y138779D01*
X317894Y184050D02*
X317894Y172357D01*
X312106Y184050D02*
X312106Y172357D01*
X317894D01*
X312106Y184050D02*
X317894D01*
X312106Y157658D02*
Y169351D01*
X317894Y157658D02*
Y169351D01*
X312106D02*
X317894D01*
X312106Y157658D02*
X317894D01*
X317894Y154651D02*
X317894Y142958D01*
X312106D02*
Y154651D01*
Y142958D02*
X317894D01*
X312106Y154651D02*
X317894D01*
X312106Y128259D02*
Y139952D01*
X317894Y128259D02*
Y139952D01*
X312106D02*
X317894D01*
X312106Y128259D02*
X317894D01*
X335028Y145863D02*
X348335Y145863D01*
X335028Y145863D02*
Y153422D01*
X348335Y153422D01*
Y145863D02*
Y153422D01*
X246493Y174177D02*
X259800Y174177D01*
X246493Y174177D02*
Y181736D01*
X259800Y181736D01*
Y174177D02*
Y181736D01*
X268876Y174221D02*
X282183Y174221D01*
X268876Y174221D02*
Y181780D01*
X282183Y181780D01*
Y174221D02*
Y181780D01*
X335028Y160506D02*
X348335Y160506D01*
X335028Y160506D02*
Y168065D01*
X348335Y168065D01*
Y160506D02*
Y168065D01*
X259894Y158653D02*
Y170346D01*
X254106Y158653D02*
Y170346D01*
Y158653D02*
X259894D01*
X254106Y170346D02*
X259894D01*
X269683Y168739D02*
X281376D01*
X269683Y162952D02*
X281376D01*
Y168739D01*
X269683Y162952D02*
Y168739D01*
X335028Y175149D02*
X348335Y175149D01*
X335028Y175149D02*
Y182708D01*
X348335Y182708D01*
Y175149D02*
Y182708D01*
X335028Y189792D02*
X348335D01*
X335028D02*
Y197351D01*
X348335Y197351D01*
Y189792D02*
Y197351D01*
X317894Y231153D02*
Y242846D01*
X312106Y231153D02*
Y242846D01*
Y231153D02*
X317894D01*
X312106Y242846D02*
X317894D01*
X312106Y216454D02*
Y228147D01*
X317894Y216454D02*
Y228147D01*
X312106D02*
X317894D01*
X312106Y216454D02*
X317894D01*
X317894Y201755D02*
Y213448D01*
X312106Y201755D02*
Y213448D01*
Y201755D02*
X317894D01*
X312106Y213448D02*
X317894D01*
X312106Y187056D02*
Y198749D01*
X317894Y187056D02*
Y198749D01*
X312106D02*
X317894D01*
X312106Y187056D02*
X317894D01*
X335028Y204435D02*
X348335D01*
X335028D02*
Y211994D01*
X348335D01*
Y204435D02*
Y211994D01*
X335028Y219077D02*
X348335D01*
X335028D02*
Y226637D01*
X348335Y226637D01*
Y219077D02*
Y226637D01*
X335028Y233720D02*
X348335D01*
X335028D02*
Y241279D01*
X348335D01*
X348335Y233720D02*
X348335Y241279D01*
X222220Y164347D02*
Y177654D01*
X229780D01*
X229780Y164347D02*
X229780Y177654D01*
X222220Y164347D02*
X229780Y164347D01*
X201720Y177335D02*
X201720Y164028D01*
X201720Y177335D02*
X209279D01*
Y164028D02*
Y177335D01*
X201720Y164028D02*
X209279D01*
X180720Y163847D02*
Y177154D01*
X188279Y177154D01*
X188279Y163847D01*
X180720D02*
X188279D01*
X169220D02*
Y177154D01*
X176779Y177154D01*
Y163847D02*
Y177154D01*
X169220Y163847D02*
X176779D01*
X213606Y212653D02*
Y224346D01*
X219394Y212653D02*
Y224346D01*
X213606D02*
X219394D01*
X213606Y212653D02*
X219394D01*
X173606D02*
Y224346D01*
X179394Y212653D02*
Y224346D01*
X173606D02*
X179394D01*
X173606Y212653D02*
X179394D01*
X158221Y163847D02*
Y177154D01*
X165779Y177154D01*
Y163847D02*
Y177154D01*
X158221Y163847D02*
X165779D01*
X289154Y230394D02*
X300847D01*
X289154Y224606D02*
X300847D01*
Y230394D01*
X289154Y224606D02*
Y230394D01*
M02*
