G04*
G04 #@! TF.GenerationSoftware,Altium Limited,Altium Designer,20.0.13 (296)*
G04*
G04 Layer_Color=8388736*
%FSLAX25Y25*%
%MOIN*%
G70*
G01*
G75*
%ADD21R,0.06391X0.04737*%
%ADD22R,0.04619X0.04422*%
%ADD23R,0.04737X0.06391*%
%ADD24R,0.04422X0.04619*%
%ADD25O,0.08477X0.02769*%
%ADD26R,0.04343X0.09068*%
%ADD27R,0.13398X0.09068*%
%ADD28C,0.06800*%
%ADD29C,0.07828*%
%ADD30R,0.07828X0.07828*%
%ADD31R,0.06942X0.06942*%
G04:AMPARAMS|DCode=32|XSize=82.8mil|YSize=69.42mil|CornerRadius=0mil|HoleSize=0mil|Usage=FLASHONLY|Rotation=0.000|XOffset=0mil|YOffset=0mil|HoleType=Round|Shape=Octagon|*
%AMOCTAGOND32*
4,1,8,0.04140,-0.01735,0.04140,0.01735,0.02405,0.03471,-0.02405,0.03471,-0.04140,0.01735,-0.04140,-0.01735,-0.02405,-0.03471,0.02405,-0.03471,0.04140,-0.01735,0.0*
%
%ADD32OCTAGOND32*%

G04:AMPARAMS|DCode=33|XSize=82.8mil|YSize=67.06mil|CornerRadius=0mil|HoleSize=0mil|Usage=FLASHONLY|Rotation=90.000|XOffset=0mil|YOffset=0mil|HoleType=Round|Shape=Octagon|*
%AMOCTAGOND33*
4,1,8,0.01676,0.04140,-0.01676,0.04140,-0.03353,0.02464,-0.03353,-0.02464,-0.01676,-0.04140,0.01676,-0.04140,0.03353,-0.02464,0.03353,0.02464,0.01676,0.04140,0.0*
%
%ADD33OCTAGOND33*%

D21*
X195000Y174181D02*
D03*
Y166819D02*
D03*
X216500Y174681D02*
D03*
Y167319D02*
D03*
X226000Y167319D02*
D03*
Y174681D02*
D03*
X205500Y167000D02*
D03*
Y174362D02*
D03*
X184500Y166819D02*
D03*
Y174181D02*
D03*
X173000Y166819D02*
D03*
X173000Y174181D02*
D03*
X162000Y166819D02*
D03*
Y174181D02*
D03*
D22*
X325000Y227949D02*
D03*
Y234051D02*
D03*
Y198138D02*
D03*
Y204240D02*
D03*
Y168327D02*
D03*
Y174430D02*
D03*
Y138516D02*
D03*
Y144619D02*
D03*
X315000Y175152D02*
D03*
Y181254D02*
D03*
Y166555D02*
D03*
Y160453D02*
D03*
Y145754D02*
D03*
Y151856D02*
D03*
Y137157D02*
D03*
Y131055D02*
D03*
X257000Y161449D02*
D03*
Y167551D02*
D03*
X315000Y233949D02*
D03*
Y240051D02*
D03*
Y225352D02*
D03*
Y219250D02*
D03*
Y204551D02*
D03*
Y210653D02*
D03*
Y195954D02*
D03*
Y189851D02*
D03*
X216500Y221551D02*
D03*
Y215449D02*
D03*
X176500Y221551D02*
D03*
Y215449D02*
D03*
D23*
X345362Y135000D02*
D03*
X338000D02*
D03*
X345362Y149643D02*
D03*
X338000D02*
D03*
X256827Y177957D02*
D03*
X249465D02*
D03*
X279210Y178000D02*
D03*
X271848D02*
D03*
X345362Y164286D02*
D03*
X338000D02*
D03*
X345362Y178928D02*
D03*
X338000D02*
D03*
X345362Y193571D02*
D03*
X338000D02*
D03*
X345362Y208214D02*
D03*
X338000D02*
D03*
X345362Y222857D02*
D03*
X338000D02*
D03*
X345362Y237500D02*
D03*
X338000Y237500D02*
D03*
D24*
X278580Y165846D02*
D03*
X272478D02*
D03*
X298051Y227500D02*
D03*
X291949D02*
D03*
D25*
X247319Y218575D02*
D03*
Y216016D02*
D03*
X247319Y213433D02*
D03*
Y210874D02*
D03*
X247319Y208315D02*
D03*
X247319Y205756D02*
D03*
X247319Y203197D02*
D03*
X247319Y200638D02*
D03*
X274681Y218575D02*
D03*
Y216016D02*
D03*
X274681Y213457D02*
D03*
X274681Y210898D02*
D03*
X274681Y208339D02*
D03*
X274681Y205780D02*
D03*
X274681Y203221D02*
D03*
X274681Y200661D02*
D03*
X274681Y198102D02*
D03*
X274681Y195543D02*
D03*
X274681Y192984D02*
D03*
Y190425D02*
D03*
X274681Y223693D02*
D03*
Y221134D02*
D03*
X247319Y223693D02*
D03*
Y221134D02*
D03*
Y198079D02*
D03*
X247319Y195520D02*
D03*
X247319Y192961D02*
D03*
X247319Y190401D02*
D03*
D26*
X187445Y209500D02*
D03*
X196500Y209500D02*
D03*
X205555Y209500D02*
D03*
D27*
X196500Y231941D02*
D03*
D28*
X249500Y13000D02*
D03*
X291000Y255500D02*
D03*
X15000D02*
D03*
D29*
X266500Y249000D02*
D03*
D30*
X256500D02*
D03*
D31*
X36000Y214795D02*
D03*
D32*
Y204795D02*
D03*
Y34795D02*
D03*
Y194795D02*
D03*
Y184795D02*
D03*
Y174795D02*
D03*
Y164795D02*
D03*
Y154795D02*
D03*
Y144795D02*
D03*
Y134795D02*
D03*
Y124795D02*
D03*
Y114795D02*
D03*
Y104795D02*
D03*
Y94795D02*
D03*
Y84795D02*
D03*
Y74795D02*
D03*
Y64795D02*
D03*
Y54795D02*
D03*
Y44795D02*
D03*
X136000Y214795D02*
D03*
Y204795D02*
D03*
Y194795D02*
D03*
Y184795D02*
D03*
Y174795D02*
D03*
Y164795D02*
D03*
Y154795D02*
D03*
Y144795D02*
D03*
Y134795D02*
D03*
Y124795D02*
D03*
Y114795D02*
D03*
Y104795D02*
D03*
Y94795D02*
D03*
Y84795D02*
D03*
Y74795D02*
D03*
Y64795D02*
D03*
Y54795D02*
D03*
Y44795D02*
D03*
Y34795D02*
D03*
D33*
X364000Y239000D02*
D03*
Y229000D02*
D03*
Y219000D02*
D03*
Y209000D02*
D03*
Y199000D02*
D03*
Y189000D02*
D03*
Y179000D02*
D03*
Y169000D02*
D03*
Y159000D02*
D03*
Y149000D02*
D03*
Y139000D02*
D03*
Y129000D02*
D03*
M02*
