%FSTAX23Y23*%
%MOIN*%
%SFA1B1*%

%IPPOS*%
%AMD30*
4,1,8,0.024000,0.034700,-0.024000,0.034700,-0.041400,0.017400,-0.041400,-0.017400,-0.024000,-0.034700,0.024000,-0.034700,0.041400,-0.017400,0.041400,0.017400,0.024000,0.034700,0.0*
%
%AMD31*
4,1,8,-0.033500,0.024600,-0.033500,-0.024600,-0.016800,-0.041400,0.016800,-0.041400,0.033500,-0.024600,0.033500,0.024600,0.016800,0.041400,-0.016800,0.041400,-0.033500,0.024600,0.0*
%
%ADD27C,0.078280*%
%ADD28R,0.078280X0.078280*%
%ADD29R,0.069420X0.069420*%
G04~CAMADD=30~4~0.0~0.0~828.0~694.2~0.0~173.6~0~0.0~0.0~0.0~0.0~0~0.0~0.0~0.0~0.0~0~0.0~0.0~0.0~0.0~828.0~694.2*
%ADD30D30*%
G04~CAMADD=31~4~0.0~0.0~828.0~670.6~0.0~167.7~0~0.0~0.0~0.0~0.0~0~0.0~0.0~0.0~0.0~0~0.0~0.0~0.0~90.0~670.0~828.0*
%ADD31D31*%
%LNpcb1-1*%
%LPD*%
%SRX1Y1I0J0*%
G54D27*
X0263Y0249D03*
G54D28*
X0253Y0249D03*
G54D29*
X00325Y02147D03*
G54D30*
X00325Y02047D03*
Y00347D03*
Y01947D03*
Y01847D03*
Y01747D03*
Y01647D03*
Y01547D03*
Y01447D03*
Y01347D03*
Y01247D03*
Y01147D03*
Y01047D03*
Y00947D03*
Y00847D03*
Y00747D03*
Y00647D03*
Y00547D03*
Y00447D03*
X01325Y02147D03*
Y02047D03*
Y01947D03*
Y01847D03*
Y01747D03*
Y01647D03*
Y01547D03*
Y01447D03*
Y01347D03*
Y01247D03*
Y01147D03*
Y01047D03*
Y00947D03*
Y00847D03*
Y00747D03*
Y00647D03*
Y00547D03*
Y00447D03*
Y00347D03*
G54D31*
X03605Y0239D03*
Y0229D03*
Y0219D03*
Y0209D03*
Y0199D03*
Y0189D03*
Y0179D03*
Y0169D03*
Y0159D03*
Y0149D03*
Y0139D03*
Y0129D03*
M02*