%FSTAX23Y23*%
%MOIN*%
%SFA1B1*%

%IPPOS*%
%AMD48*
4,1,8,0.022000,0.030700,-0.022000,0.030700,-0.037400,0.015400,-0.037400,-0.015400,-0.022000,-0.030700,0.022000,-0.030700,0.037400,-0.015400,0.037400,0.015400,0.022000,0.030700,0.0*
%
%AMD49*
4,1,8,-0.029500,0.022600,-0.029500,-0.022600,-0.014800,-0.037400,0.014800,-0.037400,0.029500,-0.022600,0.029500,0.022600,0.014800,0.037400,-0.014800,0.037400,-0.029500,0.022600,0.0*
%
%ADD13R,0.055910X0.039370*%
%ADD14R,0.038190X0.036220*%
%ADD15R,0.039370X0.055910*%
%ADD16R,0.036220X0.038190*%
%ADD17O,0.076770X0.019680*%
%ADD18R,0.035430X0.082680*%
%ADD19R,0.125980X0.082680*%
%ADD45C,0.070280*%
%ADD46R,0.070280X0.070280*%
%ADD47R,0.061420X0.061420*%
G04~CAMADD=48~4~0.0~0.0~748.0~614.2~0.0~153.6~0~0.0~0.0~0.0~0.0~0~0.0~0.0~0.0~0.0~0~0.0~0.0~0.0~0.0~748.0~614.2*
%ADD48D48*%
G04~CAMADD=49~4~0.0~0.0~748.0~590.6~0.0~147.7~0~0.0~0.0~0.0~0.0~0~0.0~0.0~0.0~0.0~0~0.0~0.0~0.0~90.0~590.0~748.0*
%ADD49D49*%
%LNpcb1-1*%
%LPD*%
%SRX1Y1I0J0*%
G54D13*
X01915Y01741D03*
Y01668D03*
X0213Y01746D03*
Y01673D03*
X02225D03*
Y01746D03*
X0202Y0167D03*
Y01743D03*
X0181Y01668D03*
Y01741D03*
X01695Y01668D03*
Y01741D03*
X01585Y01668D03*
Y01741D03*
G54D14*
X03215Y02279D03*
Y0234D03*
Y01981D03*
Y02042D03*
Y01683D03*
Y01744D03*
Y01385D03*
Y01446D03*
X03115Y01751D03*
Y01812D03*
Y01665D03*
Y01604D03*
Y01457D03*
Y01518D03*
Y01371D03*
Y0131D03*
X02535Y01614D03*
Y01675D03*
X03115Y02339D03*
Y024D03*
Y02253D03*
Y02192D03*
Y02045D03*
Y02106D03*
Y01959D03*
Y01898D03*
X0213Y02215D03*
Y02154D03*
X0173Y02215D03*
Y02154D03*
G54D15*
X03418Y0135D03*
X03345D03*
X03418Y01496D03*
X03345D03*
X02533Y01779D03*
X02459D03*
X02757Y0178D03*
X02683D03*
X03418Y01642D03*
X03345D03*
X03418Y01789D03*
X03345D03*
X03418Y01935D03*
X03345D03*
X03418Y02082D03*
X03345D03*
X03418Y02228D03*
X03345D03*
X03418Y02375D03*
X03345D03*
G54D16*
X0275Y01658D03*
X02689D03*
X02945Y02275D03*
X02884D03*
G54D17*
X02438Y02185D03*
Y0216D03*
Y02134D03*
Y02108D03*
Y02083D03*
Y02057D03*
Y02031D03*
Y02006D03*
X02711Y02185D03*
Y0216D03*
Y02134D03*
Y02108D03*
Y02083D03*
Y02057D03*
Y02032D03*
Y02006D03*
Y01981D03*
Y01955D03*
Y01929D03*
Y01904D03*
Y02236D03*
Y02211D03*
X02438Y02236D03*
Y02211D03*
Y0198D03*
Y01955D03*
Y01929D03*
Y01904D03*
G54D18*
X01839Y02095D03*
X0193D03*
X0202D03*
G54D19*
X0193Y02319D03*
G54D45*
X0263Y0249D03*
G54D46*
X0253Y0249D03*
G54D47*
X00325Y02147D03*
G54D48*
X00325Y02047D03*
Y00347D03*
Y01947D03*
Y01847D03*
Y01747D03*
Y01647D03*
Y01547D03*
Y01447D03*
Y01347D03*
Y01247D03*
Y01147D03*
Y01047D03*
Y00947D03*
Y00847D03*
Y00747D03*
Y00647D03*
Y00547D03*
Y00447D03*
X01325Y02147D03*
Y02047D03*
Y01947D03*
Y01847D03*
Y01747D03*
Y01647D03*
Y01547D03*
Y01447D03*
Y01347D03*
Y01247D03*
Y01147D03*
Y01047D03*
Y00947D03*
Y00847D03*
Y00747D03*
Y00647D03*
Y00547D03*
Y00447D03*
Y00347D03*
G54D49*
X03605Y0239D03*
Y0229D03*
Y0219D03*
Y0209D03*
Y0199D03*
Y0189D03*
Y0179D03*
Y0169D03*
Y0159D03*
Y0149D03*
Y0139D03*
Y0129D03*
M02*