%FSTAX23Y23*%
%MOIN*%
%SFA1B1*%

%IPPOS*%
%ADD10C,0.007870*%
%ADD11C,0.009840*%
%ADD12C,0.005000*%
%LNpcb1-1*%
%LPD*%
%SRX1Y1I0J0*%
G36*
X02655Y01901D02*
X02651D01*
X02642Y01897*
X02635Y01891*
X02632Y01882*
Y01877*
X02643*
X02655Y01889*
Y01901*
G37*
G36*
X02464Y0265D02*
Y0265D01*
Y0265*
Y0265*
Y0265*
X02464Y02649*
Y02649*
X02463Y02648*
X02463Y02647*
X02463Y02646*
X02463Y02645*
X02462Y02644*
Y02644*
X02462Y02644*
X02462Y02643*
X02462Y02643*
X02461Y02642*
X02461Y02641*
X0246Y02641*
X02459Y0264*
X02458Y0264*
X02458Y0264*
X02458Y02639*
X02457Y02639*
X02457Y02639*
X02456Y02639*
X02455Y02638*
X02454Y02638*
X02452Y02638*
X02452*
X02451Y02638*
X02451Y02638*
X0245Y02638*
X02449Y02639*
X02448Y02639*
X02447Y02639*
X02447Y02639*
X02447Y02639*
X02446Y0264*
X02446Y0264*
X02445Y0264*
X02445Y02641*
X02444Y02642*
X02444Y02642*
X02446Y02645*
X02446Y02645*
X02446Y02644*
X02446Y02644*
X02447Y02644*
X02447Y02643*
X02448Y02643*
X02448Y02643*
X02449Y02642*
X02449Y02642*
X02449Y02642*
X02449Y02642*
X0245Y02642*
X02451Y02642*
X02451Y02642*
X02452Y02642*
X02453Y02641*
X02453*
X02453Y02642*
X02454Y02642*
X02455Y02642*
X02456Y02642*
X02457Y02642*
X02457Y02643*
X02458Y02644*
X02458Y02644*
X02458Y02644*
X02459Y02645*
X02459Y02645*
X02459Y02646*
X0246Y02647*
X0246Y02649*
X0246Y0265*
Y02674*
X02464*
Y0265*
G37*
G36*
X0248Y02639D02*
X02477D01*
Y02671*
X0247Y02667*
Y02671*
X02475Y02674*
X0248*
Y02639*
G37*
G36*
X01891Y01827D02*
X01891Y01827D01*
X01892Y01827*
X01893Y01827*
X01894Y01826*
X01895Y01826*
X01895Y01826*
X01895Y01826*
X01896Y01825*
X01896Y01825*
X01897Y01824*
X01897Y01824*
X01898Y01823*
X01899Y01822*
X01899Y01822*
X01899Y01822*
X01899Y01821*
X01899Y01821*
X01899Y0182*
X019Y01819*
X019Y01818*
X019Y01817*
Y01817*
Y01817*
Y01817*
Y01816*
X019Y01816*
X019Y01815*
X019Y01814*
X01899Y01813*
X01899Y01812*
X01899Y01812*
X01898Y01811*
X01898Y01811*
X01898Y01811*
X01898Y0181*
X01897Y0181*
X01896Y01809*
X01896Y01808*
X01895Y01808*
X01895Y01808*
X01895Y01808*
X01894Y01808*
X01893Y01807*
X01893Y01807*
X01901Y01792*
X01897*
X0189Y01807*
X01891Y01807*
X01892Y01807*
X01893Y01807*
X01893Y01807*
X01892Y01809*
X01889Y01808*
X0189Y01807*
X0189Y01807*
X01879*
Y0181*
X01878*
Y01807*
X01879*
Y01792*
X01876*
Y01827*
X01878*
Y01824*
X01879*
Y0181*
X0189*
X0189Y0181*
X01891Y0181*
X01891Y0181*
X01892Y0181*
X01893Y01811*
X01893Y01811*
X01893Y01811*
X01893Y01811*
X01894Y01811*
X01894Y01811*
X01894Y01812*
X01895Y01812*
X01895Y01813*
X01896Y01813*
X01896Y01813*
X01896Y01814*
X01896Y01814*
X01896Y01814*
X01896Y01815*
X01896Y01815*
X01896Y01816*
X01896Y01817*
Y01817*
Y01817*
X01896Y01818*
X01896Y01818*
X01896Y01819*
X01896Y01819*
X01896Y0182*
X01896Y01821*
X01895Y01821*
X01895Y01821*
X01895Y01821*
X01895Y01821*
X01895Y01822*
X01894Y01822*
X01894Y01823*
X01893Y01823*
X01893Y01823*
X01893Y01823*
X01893Y01823*
X01892Y01823*
X01892Y01824*
X01891Y01824*
X0189Y01824*
X0189Y01824*
X01879*
Y01827*
X0189*
X01891Y01827*
G37*
G36*
X01943Y018D02*
X01946D01*
Y01797*
X01943*
Y018*
X01939*
Y01813*
X01943*
Y018*
G37*
G36*
X01927D02*
X01939D01*
Y01797*
X01943*
Y01792*
X01939*
Y01797*
X01923*
Y018*
X01935Y01827*
X01939*
X01927Y018*
G37*
G36*
X01916Y01792D02*
X01912D01*
Y01824*
X01906Y0182*
Y01824*
X01911Y01827*
X01916*
Y01792*
G37*
G36*
X02106Y01833D02*
X02106Y01833D01*
X02107Y01833*
X02108Y01832*
X02109Y01832*
X0211Y01832*
X0211Y01832*
X0211Y01831*
X02111Y01831*
X02111Y01831*
X02112Y0183*
X02112Y0183*
X02113Y01829*
X02114Y01828*
X02114Y01828*
X02114Y01828*
X02114Y01827*
X02114Y01827*
X02114Y01826*
X02115Y01825*
X02115Y01824*
X02115Y01823*
Y01823*
Y01823*
Y01822*
Y01822*
X02115Y01822*
X02115Y01821*
X02115Y0182*
X02114Y01819*
X02114Y01818*
X02114Y01817*
X02113Y01817*
X02113Y01817*
X02113Y01817*
X02113Y01816*
X02112Y01815*
X02111Y01815*
X02111Y01814*
X0211Y01814*
X0211Y01814*
X0211Y01814*
X02109Y01813*
X02108Y01813*
X02108Y01813*
X02116Y01798*
X02112*
X02105Y01812*
X02106Y01813*
X02107Y01813*
X02108Y01813*
X02108Y01813*
X02107Y01815*
X02104Y01814*
X02105Y01812*
X02105Y01812*
X02094*
Y01816*
X02093*
Y01812*
X02094*
Y01798*
X02091*
Y01833*
X02093*
Y0183*
X02094*
Y01816*
X02105*
X02105Y01816*
X02106Y01816*
X02106Y01816*
X02107Y01816*
X02108Y01816*
X02108Y01817*
X02108Y01817*
X02108Y01817*
X02109Y01817*
X02109Y01817*
X02109Y01818*
X0211Y01818*
X0211Y01818*
X02111Y01819*
X02111Y01819*
X02111Y01819*
X02111Y0182*
X02111Y0182*
X02111Y01821*
X02111Y01821*
X02111Y01822*
X02111Y01823*
Y01823*
Y01823*
X02111Y01823*
X02111Y01824*
X02111Y01825*
X02111Y01825*
X02111Y01826*
X02111Y01826*
X0211Y01826*
X0211Y01827*
X0211Y01827*
X0211Y01827*
X0211Y01828*
X02109Y01828*
X02109Y01828*
X02108Y01829*
X02108Y01829*
X02108Y01829*
X02108Y01829*
X02107Y01829*
X02107Y01829*
X02106Y0183*
X02105Y0183*
X02105Y0183*
X02094*
Y01833*
X02105*
X02106Y01833*
G37*
G36*
X02149Y01833D02*
X0215Y01833D01*
X02151Y01833*
X02152Y01833*
X02153Y01833*
X02154Y01832*
X02154Y01832*
X02154Y01832*
X02154Y01832*
X02155Y01831*
X02155Y01831*
X02156Y0183*
X02156Y0183*
X02157Y01829*
X02157Y01829*
X02157Y01829*
X02157Y01828*
X02158Y01828*
X02158Y01827*
X02158Y01826*
X02158Y01825*
X02158Y01824*
Y01824*
Y01824*
Y01824*
X02158Y01823*
X02158Y01823*
X02158Y01822*
X02158Y01822*
X02158Y01821*
X02157Y0182*
X02157Y0182*
X02157Y0182*
X02157Y01819*
X02157Y01819*
X02156Y01818*
X02156Y01817*
X02155Y01817*
X02155Y01816*
X02143Y01801*
X02158*
Y01798*
X02138*
Y018*
X02152Y01818*
X02152Y01818*
X02152Y01818*
X02152Y01818*
X02152Y01819*
X02153Y01819*
X02153Y0182*
X02153Y01821*
X02154Y01821*
X02154Y01821*
X02154Y01821*
X02154Y01822*
X02154Y01822*
X02154Y01823*
X02154Y01823*
X02154Y01824*
X02154Y01824*
Y01824*
Y01824*
Y01825*
X02154Y01825*
X02154Y01826*
X02154Y01826*
X02154Y01827*
X02153Y01828*
X02153Y01828*
X02153Y01829*
X02153Y01829*
X02152Y01829*
X02152Y01829*
X02151Y0183*
X0215Y0183*
X02149Y0183*
X02148Y0183*
X02148*
X02147Y0183*
X02147Y0183*
X02146Y0183*
X02145Y01829*
X02144Y01829*
X02144Y01828*
X02144Y01828*
X02143Y01828*
X02143Y01828*
X02143Y01827*
X02142Y01826*
X02142Y01826*
X02142Y01825*
X02142Y01824*
X02138*
Y01824*
Y01824*
X02138Y01824*
X02138Y01824*
X02138Y01825*
X02138Y01825*
X02139Y01826*
X02139Y01827*
X02139Y01828*
X0214Y01829*
X0214Y01829*
X0214Y01829*
X0214Y0183*
X02141Y0183*
X02141Y01831*
X02142Y01831*
X02142Y01832*
X02143Y01832*
X02143Y01832*
X02144Y01832*
X02144Y01833*
X02145Y01833*
X02145Y01833*
X02146Y01833*
X02147Y01833*
X02148Y01833*
X02149*
X02149Y01833*
G37*
G36*
X02131Y01798D02*
X02127D01*
Y0183*
X02121Y01826*
Y0183*
X02126Y01833*
X02131*
Y01798*
G37*
G36*
X03198Y02425D02*
X03199Y02425D01*
X032Y02425*
X032Y02425*
X03201Y02424*
X03202Y02424*
X03202*
X03203Y02424*
X03203Y02424*
X03203Y02424*
X03204Y02423*
X03205Y02423*
X03205Y02422*
X03206Y02421*
X03207Y02421*
X03207Y0242*
X03207Y0242*
X03207Y0242*
X03208Y02419*
X03208Y02418*
X03208Y02417*
X03209Y02416*
X03209Y02415*
X03206*
Y02415*
X03205Y02416*
X03205Y02416*
X03205Y02416*
X03205Y02417*
X03204Y02418*
X03204Y02418*
X03204Y02419*
X03204Y02419*
X03203Y02419*
X03203Y02419*
X03203Y0242*
X03202Y0242*
X03202Y0242*
X03201Y02421*
X032Y02421*
X032Y02421*
X032Y02421*
X032Y02421*
X03199Y02422*
X03199Y02422*
X03198Y02422*
X03198Y02422*
X03197Y02422*
X03196*
X03196Y02422*
X03195Y02422*
X03194Y02422*
X03194Y02421*
X03193Y02421*
X03192Y02421*
X03192Y02421*
X03192Y02421*
X03191Y0242*
X03191Y0242*
X03191Y02419*
X0319Y02419*
X0319Y02418*
X03189Y02417*
X03189Y02417*
X03189Y02417*
X03189Y02416*
X03189Y02416*
X03188Y02415*
X03188Y02414*
X03188Y02413*
X03188Y02412*
Y02402*
Y02402*
Y02402*
Y02402*
Y02402*
X03188Y02401*
X03188Y02401*
X03188Y024*
X03188Y02399*
X03189Y02398*
X03189Y02397*
X03189Y02397*
X03189Y02397*
X0319Y02396*
X0319Y02396*
X0319Y02395*
X03191Y02395*
X03191Y02394*
X03192Y02394*
X03192Y02394*
X03192Y02393*
X03193Y02393*
X03193Y02393*
X03194Y02393*
X03195Y02393*
X03196Y02392*
X03197Y02392*
X03197*
X03197Y02392*
X03198Y02393*
X03199Y02393*
X03199Y02393*
X032Y02393*
X032Y02393*
X03201Y02393*
X03201Y02393*
X03201Y02394*
X03202Y02394*
X03202Y02394*
X03203Y02394*
X03203Y02395*
X03204Y02395*
X03204Y02396*
X03204Y02396*
X03204Y02396*
X03204Y02397*
X03205Y02397*
X03205Y02398*
X03205Y02398*
X03206Y02399*
X03209*
Y02399*
X03209Y02399*
Y02399*
X03209Y02399*
X03209Y02398*
X03209Y02397*
X03208Y02397*
X03208Y02396*
X03207Y02395*
X03207Y02394*
X03207Y02394*
X03206Y02394*
X03206Y02393*
X03206Y02393*
X03205Y02392*
X03204Y02391*
X03203Y02391*
X03202Y0239*
X03202Y0239*
X03202Y0239*
X03201Y0239*
X03201Y0239*
X032Y0239*
X03199Y02389*
X03198Y02389*
X03197Y02389*
X03196*
X03196Y02389*
X03195Y02389*
X03195Y02389*
X03194Y0239*
X03192Y0239*
X03191Y0239*
X0319Y02391*
X0319*
X0319Y02391*
X0319Y02391*
X03189Y02391*
X03189Y02392*
X03188Y02393*
X03187Y02393*
X03187Y02394*
X03186Y02395*
Y02395*
X03186Y02395*
X03186Y02396*
X03186Y02396*
X03186Y02396*
X03186Y02397*
X03185Y02397*
X03185Y02398*
X03185Y024*
X03185Y02401*
X03184Y02402*
Y02412*
Y02412*
Y02412*
Y02412*
Y02413*
X03185Y02413*
X03185Y02413*
X03185Y02414*
X03185Y02415*
X03185Y02417*
X03186Y02418*
X03186Y02419*
Y02419*
X03186Y02419*
X03186Y02419*
X03186Y0242*
X03187Y0242*
X03187Y02421*
X03188Y02421*
X03189Y02422*
X03189Y02423*
X0319Y02424*
X0319*
X0319Y02424*
X03191Y02424*
X03191Y02424*
X03191Y02424*
X03192Y02424*
X03193Y02425*
X03194Y02425*
X03195Y02425*
X03197Y02425*
X03197*
X03198Y02425*
G37*
G36*
X0325Y02422D02*
X03241Y0239D01*
X03237*
X03247Y02422*
X03235*
Y02415*
X03231*
Y02425*
X0325*
Y02422*
G37*
G36*
X03224Y0239D02*
X0322D01*
Y02422*
X03214Y02418*
Y02422*
X03219Y02425*
X03224*
Y0239*
G37*
G36*
X03198Y02127D02*
X03199Y02127D01*
X032Y02127*
X032Y02127*
X03201Y02126*
X03202Y02126*
X03202*
X03203Y02126*
X03203Y02126*
X03203Y02125*
X03204Y02125*
X03205Y02125*
X03205Y02124*
X03206Y02123*
X03207Y02122*
X03207Y02122*
X03207Y02122*
X03207Y02122*
X03208Y02121*
X03208Y0212*
X03208Y02119*
X03209Y02118*
X03209Y02117*
X03206*
Y02117*
X03205Y02117*
X03205Y02118*
X03205Y02118*
X03205Y02119*
X03204Y02119*
X03204Y0212*
X03204Y02121*
X03204Y02121*
X03203Y02121*
X03203Y02121*
X03203Y02122*
X03202Y02122*
X03202Y02122*
X03201Y02123*
X032Y02123*
X032Y02123*
X032Y02123*
X032Y02123*
X03199Y02123*
X03199Y02124*
X03198Y02124*
X03198Y02124*
X03197Y02124*
X03196*
X03196Y02124*
X03195Y02124*
X03194Y02124*
X03194Y02123*
X03193Y02123*
X03192Y02123*
X03192Y02123*
X03192Y02122*
X03191Y02122*
X03191Y02122*
X03191Y02121*
X0319Y02121*
X0319Y0212*
X03189Y02119*
X03189Y02119*
X03189Y02119*
X03189Y02118*
X03189Y02118*
X03188Y02117*
X03188Y02116*
X03188Y02115*
X03188Y02114*
Y02104*
Y02104*
Y02104*
Y02104*
Y02104*
X03188Y02103*
X03188Y02102*
X03188Y02102*
X03188Y02101*
X03189Y021*
X03189Y02099*
X03189Y02099*
X03189Y02099*
X0319Y02098*
X0319Y02098*
X0319Y02097*
X03191Y02097*
X03191Y02096*
X03192Y02096*
X03192Y02095*
X03192Y02095*
X03193Y02095*
X03193Y02095*
X03194Y02095*
X03195Y02094*
X03196Y02094*
X03197Y02094*
X03197*
X03197Y02094*
X03198Y02094*
X03199Y02094*
X03199Y02095*
X032Y02095*
X032Y02095*
X03201Y02095*
X03201Y02095*
X03201Y02095*
X03202Y02096*
X03202Y02096*
X03203Y02096*
X03203Y02097*
X03204Y02097*
X03204Y02097*
X03204Y02098*
X03204Y02098*
X03204Y02098*
X03205Y02099*
X03205Y021*
X03205Y021*
X03206Y02101*
X03209*
Y02101*
X03209Y02101*
Y02101*
X03209Y02101*
X03209Y021*
X03209Y02099*
X03208Y02098*
X03208Y02098*
X03207Y02097*
X03207Y02096*
X03207Y02096*
X03206Y02095*
X03206Y02095*
X03206Y02095*
X03205Y02094*
X03204Y02093*
X03203Y02093*
X03202Y02092*
X03202Y02092*
X03202Y02092*
X03201Y02092*
X03201Y02092*
X032Y02091*
X03199Y02091*
X03198Y02091*
X03197Y02091*
X03196*
X03196Y02091*
X03195Y02091*
X03195Y02091*
X03194Y02091*
X03192Y02092*
X03191Y02092*
X0319Y02093*
X0319*
X0319Y02093*
X0319Y02093*
X03189Y02093*
X03189Y02094*
X03188Y02095*
X03187Y02095*
X03187Y02096*
X03186Y02097*
Y02097*
X03186Y02097*
X03186Y02098*
X03186Y02098*
X03186Y02098*
X03186Y02098*
X03185Y02099*
X03185Y021*
X03185Y02101*
X03185Y02103*
X03184Y02104*
Y02114*
Y02114*
Y02114*
Y02114*
Y02115*
X03185Y02115*
X03185Y02115*
X03185Y02116*
X03185Y02117*
X03185Y02119*
X03186Y0212*
X03186Y02121*
Y02121*
X03186Y02121*
X03186Y02121*
X03186Y02121*
X03187Y02122*
X03187Y02123*
X03188Y02123*
X03189Y02124*
X03189Y02125*
X0319Y02126*
X0319*
X0319Y02126*
X03191Y02126*
X03191Y02126*
X03191Y02126*
X03192Y02126*
X03193Y02127*
X03194Y02127*
X03195Y02127*
X03197Y02127*
X03197*
X03198Y02127*
G37*
G36*
X03224Y02091D02*
X0322D01*
Y02124*
X03214Y0212*
Y02123*
X03219Y02127*
X03224*
Y02091*
G37*
G36*
X03237Y02111D02*
X03238Y02111D01*
X03238Y02112*
X03238Y02112*
X03238Y02112*
X03239Y02112*
X03239Y02112*
X03239Y02112*
X0324Y02112*
X0324Y02112*
X03241Y02112*
X03242*
X03243Y02112*
X03243Y02112*
X03244Y02112*
X03245Y02112*
X03246Y02112*
X03247Y02111*
X03247Y02111*
X03247Y02111*
X03247Y02111*
X03248Y0211*
X03248Y0211*
X03249Y02109*
X03249Y02108*
X0325Y02108*
X0325Y02107*
X0325Y02107*
X0325Y02107*
X0325Y02106*
X03251Y02105*
X03251Y02104*
X03251Y02103*
X03251Y02102*
Y02102*
Y02102*
Y02101*
Y02101*
X03251Y02101*
X03251Y021*
X03251Y02099*
X03251Y02098*
X0325Y02097*
X0325Y02096*
X0325Y02096*
X0325Y02096*
X03249Y02095*
X03249Y02095*
X03249Y02094*
X03248Y02093*
X03247Y02093*
X03246Y02092*
X03246Y02092*
X03246Y02092*
X03246Y02092*
X03245Y02092*
X03244Y02091*
X03243Y02091*
X03242Y02091*
X03241Y02091*
X03241*
X0324Y02091*
X03239Y02091*
X03238Y02091*
X03238Y02092*
X03237Y02092*
X03236Y02092*
X03236Y02092*
X03235Y02093*
X03235Y02093*
X03235Y02093*
X03234Y02094*
X03233Y02094*
X03233Y02095*
X03232Y02096*
Y02096*
X03232Y02096*
X03232Y02096*
X03232Y02097*
X03232Y02098*
X03232Y02098*
X03231Y02099*
X03231Y021*
X03231Y02102*
Y02102*
Y02102*
Y02102*
X03231Y02103*
X03231Y02104*
X03231Y02104*
X03232Y02105*
X03232Y02106*
Y02106*
X03232Y02106*
X03232Y02107*
X03232Y02107*
X03232Y02108*
X03232Y02109*
X03233Y0211*
Y0211*
X03233Y0211*
X03233Y02111*
X03233Y02111*
X03233Y02111*
X03233Y02111*
X03234Y02111*
X03234Y02112*
X03241Y02127*
X03245*
X03237Y02111*
G37*
G36*
X03198Y01829D02*
X03199Y01829D01*
X032Y01829*
X032Y01829*
X03201Y01828*
X03202Y01828*
X03202*
X03203Y01828*
X03203Y01828*
X03203Y01827*
X03204Y01827*
X03205Y01826*
X03205Y01826*
X03206Y01825*
X03207Y01824*
X03207Y01824*
X03207Y01824*
X03207Y01823*
X03208Y01823*
X03208Y01822*
X03208Y01821*
X03209Y0182*
X03209Y01819*
X03206*
Y01819*
X03205Y01819*
X03205Y0182*
X03205Y0182*
X03205Y01821*
X03204Y01821*
X03204Y01822*
X03204Y01823*
X03204Y01823*
X03203Y01823*
X03203Y01823*
X03203Y01823*
X03202Y01824*
X03202Y01824*
X03201Y01825*
X032Y01825*
X032Y01825*
X032Y01825*
X032Y01825*
X03199Y01825*
X03199Y01826*
X03198Y01826*
X03198Y01826*
X03197Y01826*
X03196*
X03196Y01826*
X03195Y01826*
X03194Y01825*
X03194Y01825*
X03193Y01825*
X03192Y01825*
X03192Y01824*
X03192Y01824*
X03191Y01824*
X03191Y01824*
X03191Y01823*
X0319Y01823*
X0319Y01822*
X03189Y01821*
X03189Y01821*
X03189Y01821*
X03189Y0182*
X03189Y0182*
X03188Y01819*
X03188Y01818*
X03188Y01817*
X03188Y01816*
Y01806*
Y01806*
Y01806*
Y01806*
Y01806*
X03188Y01805*
X03188Y01804*
X03188Y01804*
X03188Y01803*
X03189Y01802*
X03189Y01801*
X03189Y01801*
X03189Y018*
X0319Y018*
X0319Y018*
X0319Y01799*
X03191Y01798*
X03191Y01798*
X03192Y01797*
X03192Y01797*
X03192Y01797*
X03193Y01797*
X03193Y01797*
X03194Y01797*
X03195Y01796*
X03196Y01796*
X03197Y01796*
X03197*
X03197Y01796*
X03198Y01796*
X03199Y01796*
X03199Y01797*
X032Y01797*
X032Y01797*
X03201Y01797*
X03201Y01797*
X03201Y01797*
X03202Y01798*
X03202Y01798*
X03203Y01798*
X03203Y01799*
X03204Y01799*
X03204Y01799*
X03204Y018*
X03204Y018*
X03204Y018*
X03205Y01801*
X03205Y01802*
X03205Y01802*
X03206Y01803*
X03209*
Y01803*
X03209Y01803*
Y01803*
X03209Y01802*
X03209Y01802*
X03209Y01801*
X03208Y018*
X03208Y01799*
X03207Y01799*
X03207Y01798*
X03207Y01798*
X03206Y01797*
X03206Y01797*
X03206Y01796*
X03205Y01796*
X03204Y01795*
X03203Y01795*
X03202Y01794*
X03202Y01794*
X03202Y01794*
X03201Y01794*
X03201Y01794*
X032Y01793*
X03199Y01793*
X03198Y01793*
X03197Y01793*
X03196*
X03196Y01793*
X03195Y01793*
X03195Y01793*
X03194Y01793*
X03192Y01794*
X03191Y01794*
X0319Y01795*
X0319*
X0319Y01795*
X0319Y01795*
X03189Y01795*
X03189Y01796*
X03188Y01796*
X03187Y01797*
X03187Y01798*
X03186Y01799*
Y01799*
X03186Y01799*
X03186Y01799*
X03186Y018*
X03186Y018*
X03186Y018*
X03185Y01801*
X03185Y01802*
X03185Y01803*
X03185Y01805*
X03184Y01806*
Y01816*
Y01816*
Y01816*
Y01816*
Y01816*
X03185Y01817*
X03185Y01817*
X03185Y01818*
X03185Y01819*
X03185Y0182*
X03186Y01822*
X03186Y01823*
Y01823*
X03186Y01823*
X03186Y01823*
X03186Y01823*
X03187Y01824*
X03187Y01825*
X03188Y01825*
X03189Y01826*
X03189Y01827*
X0319Y01827*
X0319*
X0319Y01827*
X03191Y01828*
X03191Y01828*
X03191Y01828*
X03192Y01828*
X03193Y01829*
X03194Y01829*
X03195Y01829*
X03197Y01829*
X03197*
X03198Y01829*
G37*
G36*
X03251Y01825D02*
X03236D01*
Y01815*
X03236Y01815*
X03237Y01815*
X03237Y01815*
X03237Y01816*
X03238Y01816*
X03238Y01816*
X03239Y01817*
X03239Y01817*
X03239Y01817*
X0324Y01817*
X0324Y01817*
X0324Y01817*
X03241Y01817*
X03242Y01817*
X03242Y01818*
X03243Y01818*
X03243*
X03244Y01818*
X03245Y01817*
X03245Y01817*
X03246Y01817*
X03247Y01817*
X03248Y01816*
X03248Y01816*
X03248Y01816*
X03248Y01816*
X03249Y01816*
X03249Y01815*
X0325Y01815*
X0325Y01814*
X03251Y01813*
X03251Y01813*
X03251Y01813*
X03251Y01812*
X03251Y01812*
X03252Y01811*
X03252Y0181*
X03252Y01809*
X03252Y01808*
Y01803*
Y01803*
Y01803*
Y01803*
Y01802*
X03252Y01802*
X03252Y01801*
X03252Y018*
X03251Y01799*
X03251Y01798*
X03251Y01797*
X03251Y01797*
X0325Y01797*
X0325Y01797*
X0325Y01796*
X03249Y01796*
X03249Y01795*
X03248Y01795*
X03247Y01794*
X03247Y01794*
X03247Y01794*
X03246Y01794*
X03246Y01794*
X03245Y01793*
X03244Y01793*
X03243Y01793*
X03242Y01793*
X03241*
X03241Y01793*
X0324Y01793*
X0324Y01793*
X03239Y01793*
X03238Y01794*
X03237Y01794*
X03237Y01794*
X03237Y01794*
X03236Y01794*
X03236Y01795*
X03235Y01795*
X03235Y01796*
X03234Y01796*
X03234Y01797*
X03234Y01797*
X03233Y01797*
X03233Y01798*
X03233Y01798*
X03233Y01799*
X03232Y018*
X03232Y01801*
X03232Y01802*
Y01802*
X03236*
Y01802*
Y01802*
Y01802*
X03236Y01801*
X03236Y01801*
X03236Y018*
X03236Y018*
X03236Y01799*
X03237Y01798*
X03237Y01798*
X03238Y01798*
X03238Y01797*
X03238Y01797*
X03239Y01797*
X03239Y01797*
X0324Y01796*
X03241Y01796*
X03242Y01796*
X03242*
X03242Y01796*
X03243Y01796*
X03244Y01796*
X03244Y01797*
X03245Y01797*
X03246Y01797*
X03247Y01798*
X03247Y01798*
X03247Y01798*
X03247Y01799*
X03247Y01799*
X03248Y018*
X03248Y01801*
X03248Y01802*
X03248Y01803*
Y01808*
Y01808*
Y01808*
Y01808*
Y01808*
X03248Y01809*
X03248Y0181*
X03248Y0181*
X03248Y01811*
X03247Y01812*
X03247Y01813*
X03247Y01813*
X03247Y01813*
X03246Y01813*
X03246Y01813*
X03245Y01814*
X03245Y01814*
X03244Y01814*
X03243Y01814*
X03243*
X03242Y01814*
X03242Y01814*
X03241Y01814*
X0324Y01814*
X0324Y01814*
X03239Y01813*
X03239Y01813*
X03239Y01813*
X03238Y01813*
X03238Y01812*
X03237Y01812*
X03237Y01811*
X03236Y01811*
X03236Y0181*
X03233*
Y01829*
X03251*
Y01825*
G37*
G36*
X03224Y01793D02*
X0322D01*
Y01826*
X03214Y01822*
Y01825*
X03219Y01829*
X03224*
Y01793*
G37*
G36*
X03198Y01531D02*
X03199Y01531D01*
X032Y01531*
X032Y0153*
X03201Y0153*
X03202Y0153*
X03202*
X03203Y0153*
X03203Y01529*
X03203Y01529*
X03204Y01529*
X03205Y01528*
X03205Y01528*
X03206Y01527*
X03207Y01526*
X03207Y01526*
X03207Y01526*
X03207Y01525*
X03208Y01525*
X03208Y01524*
X03208Y01523*
X03209Y01522*
X03209Y01521*
X03206*
Y01521*
X03205Y01521*
X03205Y01522*
X03205Y01522*
X03205Y01523*
X03204Y01523*
X03204Y01524*
X03204Y01524*
X03204Y01524*
X03203Y01525*
X03203Y01525*
X03203Y01525*
X03202Y01526*
X03202Y01526*
X03201Y01526*
X032Y01527*
X032Y01527*
X032Y01527*
X032Y01527*
X03199Y01527*
X03199Y01527*
X03198Y01528*
X03198Y01528*
X03197Y01528*
X03196*
X03196Y01528*
X03195Y01528*
X03194Y01527*
X03194Y01527*
X03193Y01527*
X03192Y01526*
X03192Y01526*
X03192Y01526*
X03191Y01526*
X03191Y01526*
X03191Y01525*
X0319Y01524*
X0319Y01524*
X03189Y01523*
X03189Y01523*
X03189Y01523*
X03189Y01522*
X03189Y01521*
X03188Y01521*
X03188Y0152*
X03188Y01519*
X03188Y01518*
Y01508*
Y01508*
Y01508*
Y01508*
Y01508*
X03188Y01507*
X03188Y01506*
X03188Y01505*
X03188Y01505*
X03189Y01504*
X03189Y01503*
X03189Y01503*
X03189Y01502*
X0319Y01502*
X0319Y01501*
X0319Y01501*
X03191Y015*
X03191Y015*
X03192Y01499*
X03192Y01499*
X03192Y01499*
X03193Y01499*
X03193Y01499*
X03194Y01498*
X03195Y01498*
X03196Y01498*
X03197Y01498*
X03197*
X03197Y01498*
X03198Y01498*
X03199Y01498*
X03199Y01498*
X032Y01499*
X032Y01499*
X03201Y01499*
X03201Y01499*
X03201Y01499*
X03202Y01499*
X03202Y015*
X03203Y015*
X03203Y01501*
X03204Y01501*
X03204Y01501*
X03204Y01501*
X03204Y01502*
X03204Y01502*
X03205Y01503*
X03205Y01503*
X03205Y01504*
X03206Y01505*
X03209*
Y01505*
X03209Y01505*
Y01505*
X03209Y01504*
X03209Y01504*
X03209Y01503*
X03208Y01502*
X03208Y01501*
X03207Y015*
X03207Y015*
X03207Y01499*
X03206Y01499*
X03206Y01499*
X03206Y01498*
X03205Y01498*
X03204Y01497*
X03203Y01497*
X03202Y01496*
X03202Y01496*
X03202Y01496*
X03201Y01496*
X03201Y01495*
X032Y01495*
X03199Y01495*
X03198Y01495*
X03197Y01495*
X03196*
X03196Y01495*
X03195Y01495*
X03195Y01495*
X03194Y01495*
X03192Y01496*
X03191Y01496*
X0319Y01496*
X0319*
X0319Y01497*
X0319Y01497*
X03189Y01497*
X03189Y01498*
X03188Y01498*
X03187Y01499*
X03187Y015*
X03186Y01501*
Y01501*
X03186Y01501*
X03186Y01501*
X03186Y01502*
X03186Y01502*
X03186Y01502*
X03185Y01503*
X03185Y01504*
X03185Y01505*
X03185Y01507*
X03184Y01508*
Y01518*
Y01518*
Y01518*
Y01518*
Y01518*
X03185Y01519*
X03185Y01519*
X03185Y0152*
X03185Y01521*
X03185Y01522*
X03186Y01524*
X03186Y01525*
Y01525*
X03186Y01525*
X03186Y01525*
X03186Y01525*
X03187Y01526*
X03187Y01526*
X03188Y01527*
X03189Y01528*
X03189Y01529*
X0319Y01529*
X0319*
X0319Y01529*
X03191Y01529*
X03191Y0153*
X03191Y0153*
X03192Y0153*
X03193Y0153*
X03194Y01531*
X03195Y01531*
X03197Y01531*
X03197*
X03198Y01531*
G37*
G36*
X03251Y01504D02*
X03254D01*
Y01501*
X03251*
Y01504*
X03247*
Y01516*
X03251*
Y01504*
G37*
G36*
X03235D02*
X03247D01*
Y01501*
X03251*
Y01495*
X03247*
Y01501*
X03232*
Y01503*
X03243Y01531*
X03247*
X03235Y01504*
G37*
G36*
X03224Y01495D02*
X0322D01*
Y01528*
X03214Y01524*
Y01527*
X03219Y01531*
X03224*
Y01495*
G37*
G36*
X00263Y02595D02*
Y02595D01*
Y02595*
Y02595*
Y02594*
X00263Y02594*
Y02594*
X00263Y02593*
X00263Y02591*
X00263Y0259*
X00262Y02589*
X00262Y02588*
Y02588*
X00262Y02588*
X00262Y02587*
X00261Y02587*
X00261Y02586*
X0026Y02586*
X0026Y02585*
X00259Y02584*
X00258Y02584*
X00258*
X00258Y02584*
X00258Y02583*
X00257Y02583*
X00257Y02583*
X00257Y02583*
X00256Y02583*
X00255Y02583*
X00254Y02582*
X00252Y02582*
X00251Y02582*
X0025*
X0025Y02582*
X00249*
X00248Y02582*
X00247Y02583*
X00246Y02583*
X00245Y02583*
X00244Y02584*
X00244*
X00244Y02584*
X00244Y02584*
X00243Y02584*
X00242Y02585*
X00242Y02585*
X00241Y02586*
X0024Y02587*
X0024Y02588*
Y02588*
X0024Y02588*
X0024Y02588*
X0024Y02588*
X0024Y02589*
X00239Y02589*
X00239Y0259*
X00239Y02591*
X00239Y02592*
X00239Y02593*
X00239Y02595*
Y02618*
X00242*
Y02595*
Y02595*
Y02595*
Y02594*
X00242Y02594*
Y02594*
X00242Y02593*
X00242Y02592*
X00243Y02591*
X00243Y0259*
X00243Y02589*
X00244Y02588*
X00244Y02588*
X00245Y02588*
X00245Y02587*
X00246Y02587*
X00247Y02586*
X00248Y02586*
X00249Y02586*
X00251Y02586*
X00251*
X00252Y02586*
X00252*
X00252Y02586*
X00253Y02586*
X00255Y02586*
X00256Y02587*
X00257Y02587*
X00258Y02588*
X00258Y02588*
X00258Y02588*
X00258Y02589*
X00259Y0259*
X00259Y02591*
X0026Y02592*
X0026Y02593*
X0026Y02595*
Y02618*
X00263*
Y02595*
G37*
G36*
X00281Y02618D02*
X00281D01*
X00282Y02618*
X00283Y02618*
X00284Y02618*
X00285Y02617*
X00286Y02617*
X00287Y02616*
X00287Y02616*
X00287*
X00287Y02616*
X00288Y02615*
X00288Y02615*
X00289Y02614*
X00289Y02613*
X00289Y02612*
X0029Y02611*
X0029Y0261*
Y02609*
Y02608*
Y02608*
Y02608*
X0029Y02607*
X0029Y02607*
X00289Y02606*
X00289Y02605*
X00289Y02604*
X00289Y02604*
X00289Y02604*
X00288Y02603*
X00288Y02603*
X00288Y02603*
X00287Y02602*
X00287Y02602*
X00286Y02601*
X00285Y02601*
X00285*
X00286Y02601*
X00286Y02601*
X00287Y026*
X00287Y026*
X00288Y026*
X00288Y02599*
X00289Y02598*
X00289Y02598*
X00289Y02598*
X00289Y02597*
X0029Y02597*
X0029Y02596*
X0029Y02595*
X0029Y02594*
X0029Y02593*
Y02592*
Y02592*
Y02592*
Y02592*
Y02591*
X0029Y02591*
X0029Y0259*
X0029Y02589*
X0029Y02588*
X0029Y02587*
X00289Y02587*
X00289Y02586*
X00289Y02586*
X00289Y02586*
X00288Y02585*
X00288Y02585*
X00287Y02584*
X00286Y02584*
X00286Y02583*
X00286Y02583*
X00285Y02583*
X00285Y02583*
X00284Y02583*
X00283Y02583*
X00282Y02582*
X00281Y02582*
X0028Y02582*
X0028*
X00279Y02582*
X00278Y02582*
X00278Y02582*
X00277Y02583*
X00276Y02583*
X00275Y02583*
X00275Y02583*
X00275Y02583*
X00274Y02584*
X00274Y02584*
X00273Y02584*
X00272Y02585*
X00272Y02586*
X00271Y02586*
X00271Y02586*
X00271Y02587*
X00271Y02587*
X00271Y02588*
X0027Y02588*
X0027Y02589*
X0027Y0259*
X0027Y02591*
X00273*
Y02591*
X00273Y02591*
X00273Y0259*
X00273Y0259*
X00273Y0259*
X00274Y02589*
X00274Y02588*
X00274Y02588*
X00274Y02588*
X00274Y02588*
X00275Y02588*
X00275Y02587*
X00275Y02587*
X00276Y02587*
X00276Y02586*
X00277Y02586*
X00277*
X00277Y02586*
X00277Y02586*
X00278Y02586*
X00278Y02586*
X00279Y02586*
X00279Y02586*
X0028Y02585*
X0028*
X00281Y02586*
X00281Y02586*
X00282Y02586*
X00283Y02586*
X00284Y02586*
X00284Y02587*
X00285Y02587*
X00285Y02587*
X00285Y02587*
X00286Y02588*
X00286Y02588*
X00286Y02589*
X00287Y0259*
X00287Y02591*
X00287Y02592*
Y02593*
Y02593*
Y02593*
Y02593*
Y02593*
X00287Y02594*
X00287Y02595*
X00286Y02595*
X00286Y02596*
X00286Y02597*
X00285Y02598*
X00285Y02598*
X00285Y02598*
X00284Y02598*
X00284Y02598*
X00283Y02599*
X00282Y02599*
X00281Y02599*
X0028Y02599*
X00278*
Y02603*
X00281*
X00281Y02603*
X00282Y02603*
X00283Y02603*
X00283Y02603*
X00284Y02603*
X00285Y02604*
X00285Y02604*
X00285Y02604*
X00285Y02605*
X00285Y02605*
X00286Y02606*
X00286Y02606*
X00286Y02607*
X00286Y02608*
Y02609*
Y02609*
Y02609*
Y0261*
X00286Y0261*
X00286Y02611*
X00286Y02611*
X00286Y02612*
X00285Y02613*
X00285Y02613*
X00285Y02613*
X00284Y02614*
X00284Y02614*
X00283Y02614*
X00283Y02614*
X00282Y02615*
X00281Y02615*
X0028Y02615*
X0028*
X0028Y02615*
X00279*
X00279Y02615*
X00278Y02615*
X00278Y02615*
X00277Y02614*
X00277*
X00277Y02614*
X00277Y02614*
X00276Y02614*
X00276Y02614*
X00276Y02613*
X00275Y02613*
X00275Y02612*
X00275Y02612*
X00275Y02612*
X00275Y02612*
X00274Y02612*
X00274Y02611*
X00274Y02611*
X00274Y0261*
X00274Y0261*
X0027*
Y0261*
Y0261*
X0027Y0261*
X0027Y02611*
X00271Y02611*
X00271Y02612*
X00271Y02613*
X00271Y02614*
X00272Y02614*
X00272Y02614*
X00272Y02615*
X00272Y02615*
X00273Y02615*
X00273Y02616*
X00274Y02616*
X00275Y02617*
X00275Y02617*
X00275Y02617*
X00276Y02617*
X00276Y02618*
X00277Y02618*
X00277Y02618*
X00278Y02618*
X00279Y02618*
X0028Y02618*
X00281*
X00281Y02618*
G37*
G36*
X01814Y02399D02*
Y02399D01*
Y02399*
Y02399*
Y02398*
X01814Y02398*
Y02398*
X01814Y02397*
X01814Y02395*
X01814Y02394*
X01813Y02393*
X01813Y02392*
Y02392*
X01813Y02392*
X01813Y02391*
X01812Y02391*
X01812Y0239*
X01811Y0239*
X01811Y02389*
X0181Y02388*
X01809Y02388*
X01809*
X01809Y02388*
X01809Y02387*
X01808Y02387*
X01808Y02387*
X01808Y02387*
X01807Y02387*
X01806Y02387*
X01805Y02386*
X01803Y02386*
X01802Y02386*
X01801*
X01801Y02386*
X018*
X01799Y02386*
X01798Y02387*
X01797Y02387*
X01796Y02387*
X01795Y02388*
X01795*
X01795Y02388*
X01795Y02388*
X01794Y02388*
X01793Y02389*
X01793Y02389*
X01792Y0239*
X01791Y02391*
X01791Y02392*
Y02392*
X01791Y02392*
X01791Y02392*
X01791Y02392*
X01791Y02393*
X0179Y02393*
X0179Y02394*
X0179Y02395*
X0179Y02396*
X0179Y02397*
X0179Y02399*
Y02422*
X01793*
Y02399*
Y02399*
Y02399*
Y02398*
X01793Y02398*
Y02398*
X01793Y02397*
X01793Y02396*
X01794Y02395*
X01794Y02394*
X01794Y02393*
X01795Y02392*
X01795Y02392*
X01796Y02391*
X01796Y02391*
X01797Y02391*
X01798Y0239*
X01799Y0239*
X018Y0239*
X01802Y0239*
X01802*
X01803Y0239*
X01803*
X01803Y0239*
X01804Y0239*
X01806Y0239*
X01807Y02391*
X01808Y02391*
X01809Y02392*
X01809Y02392*
X01809Y02392*
X01809Y02393*
X0181Y02394*
X0181Y02395*
X01811Y02396*
X01811Y02397*
X01811Y02399*
Y02422*
X01814*
Y02399*
G37*
G36*
X01832Y02422D02*
X01833Y02422D01*
X01834Y02422*
X01835Y02422*
X01836Y02422*
X01837Y02421*
X01837Y02421*
X01837Y02421*
X01837Y02421*
X01838Y0242*
X01839Y0242*
X01839Y02419*
X0184Y02419*
X0184Y02418*
X0184Y02418*
X0184Y02418*
X0184Y02417*
X01841Y02417*
X01841Y02416*
X01841Y02415*
X01841Y02414*
X01841Y02413*
Y02413*
Y02413*
Y02413*
X01841Y02412*
X01841Y02412*
X01841Y02411*
X01841Y02411*
X01841Y0241*
X0184Y02409*
X0184Y02409*
X0184Y02409*
X0184Y02408*
X0184Y02408*
X01839Y02407*
X01839Y02406*
X01838Y02406*
X01838Y02405*
X01826Y0239*
X01841*
Y02387*
X01821*
Y02389*
X01835Y02407*
X01835Y02407*
X01835Y02407*
X01835Y02407*
X01836Y02408*
X01836Y02408*
X01836Y02409*
X01837Y0241*
X01837Y0241*
X01837Y0241*
X01837Y0241*
X01837Y02411*
X01837Y02411*
X01837Y02412*
X01837Y02412*
X01838Y02413*
X01838Y02413*
Y02413*
Y02413*
Y02414*
X01837Y02414*
X01837Y02415*
X01837Y02415*
X01837Y02416*
X01836Y02417*
X01836Y02417*
X01836Y02418*
X01836Y02418*
X01835Y02418*
X01835Y02418*
X01834Y02419*
X01833Y02419*
X01832Y02419*
X01831Y02419*
X01831*
X0183Y02419*
X0183Y02419*
X01829Y02419*
X01828Y02418*
X01827Y02418*
X01827Y02417*
X01827Y02417*
X01827Y02417*
X01826Y02417*
X01826Y02416*
X01826Y02415*
X01825Y02415*
X01825Y02414*
X01825Y02413*
X01821*
Y02413*
Y02413*
X01821Y02413*
X01821Y02413*
X01821Y02414*
X01821Y02414*
X01822Y02415*
X01822Y02416*
X01822Y02417*
X01823Y02418*
X01823Y02418*
X01823Y02418*
X01823Y02419*
X01824Y02419*
X01824Y0242*
X01825Y0242*
X01826Y02421*
X01826Y02421*
X01826Y02421*
X01827Y02421*
X01827Y02422*
X01828Y02422*
X01828Y02422*
X01829Y02422*
X0183Y02422*
X01831Y02422*
X01832*
X01832Y02422*
G37*
G36*
X02413Y02298D02*
Y02298D01*
Y02298*
Y02298*
Y02297*
X02413Y02297*
Y02297*
X02413Y02296*
X02413Y02294*
X02413Y02293*
X02412Y02292*
X02412Y02291*
Y02291*
X02412Y02291*
X02412Y0229*
X02411Y0229*
X02411Y02289*
X0241Y02289*
X0241Y02288*
X02409Y02287*
X02408Y02287*
X02408*
X02408Y02287*
X02408Y02286*
X02407Y02286*
X02407Y02286*
X02407Y02286*
X02406Y02286*
X02405Y02286*
X02404Y02285*
X02402Y02285*
X02401Y02285*
X024*
X024Y02285*
X02399*
X02398Y02285*
X02397Y02286*
X02396Y02286*
X02395Y02286*
X02394Y02287*
X02394*
X02394Y02287*
X02394Y02287*
X02393Y02287*
X02392Y02288*
X02392Y02288*
X02391Y02289*
X0239Y0229*
X0239Y02291*
Y02291*
X0239Y02291*
X0239Y02291*
X0239Y02291*
X0239Y02292*
X02389Y02292*
X02389Y02293*
X02389Y02294*
X02389Y02295*
X02389Y02296*
X02389Y02298*
Y02321*
X02392*
Y02298*
Y02298*
Y02298*
Y02297*
X02392Y02297*
Y02297*
X02392Y02296*
X02392Y02295*
X02393Y02294*
X02393Y02293*
X02394Y02292*
X02394Y02291*
X02394Y02291*
X02395Y0229*
X02395Y0229*
X02396Y0229*
X02397Y02289*
X02398Y02289*
X02399Y02289*
X02401Y02289*
X02401*
X02402Y02289*
X02402*
X02402Y02289*
X02403Y02289*
X02405Y02289*
X02406Y0229*
X02407Y0229*
X02408Y02291*
X02408Y02291*
X02408Y02291*
X02408Y02292*
X02409Y02293*
X02409Y02294*
X0241Y02295*
X0241Y02296*
X0241Y02298*
Y02321*
X02413*
Y02298*
G37*
G36*
X0243Y02286D02*
X02426D01*
Y02318*
X0242Y02314*
Y02318*
X02425Y02321*
X0243*
Y02286*
G37*
G36*
X01561Y01828D02*
X01561Y01828D01*
X01562Y01828*
X01563Y01827*
X01564Y01827*
X01565Y01827*
X01565Y01827*
X01565Y01826*
X01566Y01826*
X01566Y01826*
X01567Y01825*
X01567Y01825*
X01568Y01824*
X01569Y01823*
X01569Y01823*
X01569Y01823*
X01569Y01822*
X01569Y01822*
X01569Y01821*
X0157Y0182*
X0157Y01819*
X0157Y01818*
Y01818*
Y01818*
Y01817*
Y01817*
X0157Y01817*
X0157Y01816*
X0157Y01815*
X01569Y01814*
X01569Y01813*
X01569Y01812*
X01568Y01812*
X01568Y01812*
X01568Y01812*
X01568Y01811*
X01567Y0181*
X01566Y0181*
X01566Y01809*
X01565Y01809*
X01565Y01809*
X01565Y01809*
X01564Y01808*
X01563Y01808*
X01563Y01808*
X01571Y01793*
X01567*
X0156Y01807*
X01561Y01808*
X01562Y01808*
X01563Y01808*
X01563Y01808*
X01562Y0181*
X01559Y01809*
X0156Y01807*
X0156Y01807*
X01549*
Y01811*
X01548*
Y01807*
X01549*
Y01793*
X01546*
Y01828*
X01548*
Y01825*
X01549*
Y01811*
X0156*
X0156Y01811*
X01561Y01811*
X01561Y01811*
X01562Y01811*
X01563Y01811*
X01563Y01812*
X01563Y01812*
X01563Y01812*
X01564Y01812*
X01564Y01812*
X01564Y01813*
X01565Y01813*
X01565Y01813*
X01566Y01814*
X01566Y01814*
X01566Y01814*
X01566Y01815*
X01566Y01815*
X01566Y01816*
X01566Y01816*
X01566Y01817*
X01566Y01818*
Y01818*
Y01818*
X01566Y01818*
X01566Y01819*
X01566Y0182*
X01566Y0182*
X01566Y01821*
X01566Y01821*
X01565Y01821*
X01565Y01822*
X01565Y01822*
X01565Y01822*
X01565Y01823*
X01564Y01823*
X01564Y01823*
X01563Y01824*
X01563Y01824*
X01563Y01824*
X01563Y01824*
X01562Y01824*
X01562Y01824*
X01561Y01825*
X0156Y01825*
X0156Y01825*
X01549*
Y01828*
X0156*
X01561Y01828*
G37*
G36*
X01612Y01825D02*
X01603Y01793D01*
X01599*
X01609Y01825*
X01596*
Y01818*
X01593*
Y01828*
X01612*
Y01825*
G37*
G36*
X01586Y01793D02*
X01582D01*
Y01825*
X01576Y01821*
Y01825*
X01581Y01828*
X01586*
Y01793*
G37*
G36*
X01671Y01828D02*
X01671Y01828D01*
X01672Y01828*
X01673Y01827*
X01674Y01827*
X01675Y01827*
X01675Y01827*
X01675Y01826*
X01676Y01826*
X01676Y01826*
X01677Y01825*
X01677Y01825*
X01678Y01824*
X01679Y01823*
X01679Y01823*
X01679Y01823*
X01679Y01822*
X01679Y01822*
X01679Y01821*
X0168Y0182*
X0168Y01819*
X0168Y01818*
Y01818*
Y01818*
Y01817*
Y01817*
X0168Y01817*
X0168Y01816*
X0168Y01815*
X01679Y01814*
X01679Y01813*
X01679Y01812*
X01678Y01812*
X01678Y01812*
X01678Y01812*
X01678Y01811*
X01677Y0181*
X01676Y0181*
X01676Y01809*
X01675Y01809*
X01675Y01809*
X01675Y01809*
X01674Y01808*
X01673Y01808*
X01673Y01808*
X01681Y01793*
X01677*
X0167Y01807*
X01671Y01808*
X01672Y01808*
X01673Y01808*
X01673Y01808*
X01672Y0181*
X01669Y01809*
X0167Y01807*
X0167Y01807*
X01659*
Y01811*
X01658*
Y01807*
X01659*
Y01793*
X01656*
Y01828*
X01658*
Y01825*
X01659*
Y01811*
X0167*
X0167Y01811*
X01671Y01811*
X01671Y01811*
X01672Y01811*
X01673Y01811*
X01673Y01812*
X01673Y01812*
X01673Y01812*
X01674Y01812*
X01674Y01812*
X01674Y01813*
X01675Y01813*
X01675Y01813*
X01676Y01814*
X01676Y01814*
X01676Y01814*
X01676Y01815*
X01676Y01815*
X01676Y01816*
X01676Y01816*
X01676Y01817*
X01676Y01818*
Y01818*
Y01818*
X01676Y01818*
X01676Y01819*
X01676Y0182*
X01676Y0182*
X01676Y01821*
X01676Y01821*
X01675Y01821*
X01675Y01822*
X01675Y01822*
X01675Y01822*
X01675Y01823*
X01674Y01823*
X01674Y01823*
X01673Y01824*
X01673Y01824*
X01673Y01824*
X01673Y01824*
X01672Y01824*
X01672Y01824*
X01671Y01825*
X0167Y01825*
X0167Y01825*
X01659*
Y01828*
X0167*
X01671Y01828*
G37*
G36*
X01696Y01793D02*
X01692D01*
Y01825*
X01686Y01821*
Y01825*
X01691Y01828*
X01696*
Y01793*
G37*
G36*
X01709Y01812D02*
X01709Y01812D01*
X0171Y01813*
X0171Y01813*
X0171Y01813*
X01711Y01813*
X01711Y01813*
X01711Y01813*
X01712Y01813*
X01712Y01813*
X01713Y01814*
X01714*
X01715Y01813*
X01715Y01813*
X01716Y01813*
X01717Y01813*
X01718Y01813*
X01719Y01812*
X01719Y01812*
X01719Y01812*
X01719Y01812*
X0172Y01811*
X0172Y01811*
X01721Y0181*
X01721Y01809*
X01722Y01809*
X01722Y01809*
X01722Y01808*
X01722Y01808*
X01722Y01807*
X01723Y01806*
X01723Y01805*
X01723Y01804*
X01723Y01803*
Y01803*
Y01803*
Y01803*
Y01802*
X01723Y01802*
X01723Y01801*
X01723Y018*
X01722Y01799*
X01722Y01798*
X01722Y01797*
X01722Y01797*
X01722Y01797*
X01721Y01796*
X01721Y01796*
X0172Y01795*
X0172Y01795*
X01719Y01794*
X01718Y01793*
X01718Y01793*
X01718Y01793*
X01717Y01793*
X01717Y01793*
X01716Y01793*
X01715Y01792*
X01714Y01792*
X01713Y01792*
X01713*
X01712Y01792*
X01711Y01792*
X0171Y01792*
X0171Y01793*
X01709Y01793*
X01708Y01793*
X01708Y01793*
X01707Y01794*
X01707Y01794*
X01706Y01794*
X01706Y01795*
X01705Y01795*
X01705Y01796*
X01704Y01797*
Y01797*
X01704Y01797*
X01704Y01797*
X01704Y01798*
X01704Y01799*
X01704Y01799*
X01703Y018*
X01703Y01802*
X01703Y01803*
Y01803*
Y01803*
Y01804*
X01703Y01804*
X01703Y01805*
X01703Y01805*
X01703Y01806*
X01704Y01807*
Y01807*
X01704Y01807*
X01704Y01808*
X01704Y01808*
X01704Y01809*
X01704Y0181*
X01705Y01811*
Y01811*
X01705Y01811*
X01705Y01812*
X01705Y01812*
X01705Y01812*
X01705Y01812*
X01706Y01812*
X01706Y01813*
X01713Y01828*
X01717*
X01709Y01812*
G37*
G36*
X01786Y01828D02*
X01786Y01828D01*
X01787Y01828*
X01788Y01827*
X01789Y01827*
X0179Y01827*
X0179Y01827*
X0179Y01826*
X01791Y01826*
X01791Y01826*
X01792Y01825*
X01792Y01825*
X01793Y01824*
X01794Y01823*
X01794Y01823*
X01794Y01823*
X01794Y01822*
X01794Y01822*
X01794Y01821*
X01795Y0182*
X01795Y01819*
X01795Y01818*
Y01818*
Y01818*
Y01817*
Y01817*
X01795Y01817*
X01795Y01816*
X01795Y01815*
X01794Y01814*
X01794Y01813*
X01794Y01812*
X01793Y01812*
X01793Y01812*
X01793Y01812*
X01793Y01811*
X01792Y0181*
X01791Y0181*
X01791Y01809*
X0179Y01809*
X0179Y01809*
X0179Y01809*
X01789Y01808*
X01788Y01808*
X01788Y01808*
X01796Y01793*
X01792*
X01785Y01807*
X01786Y01808*
X01787Y01808*
X01788Y01808*
X01788Y01808*
X01787Y0181*
X01784Y01809*
X01785Y01807*
X01785Y01807*
X01774*
Y01811*
X01773*
Y01807*
X01774*
Y01793*
X01771*
Y01828*
X01773*
Y01825*
X01774*
Y01811*
X01785*
X01785Y01811*
X01786Y01811*
X01786Y01811*
X01787Y01811*
X01788Y01811*
X01788Y01812*
X01788Y01812*
X01788Y01812*
X01789Y01812*
X01789Y01812*
X01789Y01813*
X0179Y01813*
X0179Y01813*
X01791Y01814*
X01791Y01814*
X01791Y01814*
X01791Y01815*
X01791Y01815*
X01791Y01816*
X01791Y01816*
X01791Y01817*
X01791Y01818*
Y01818*
Y01818*
X01791Y01818*
X01791Y01819*
X01791Y0182*
X01791Y0182*
X01791Y01821*
X01791Y01821*
X0179Y01821*
X0179Y01822*
X0179Y01822*
X0179Y01822*
X0179Y01823*
X01789Y01823*
X01789Y01823*
X01788Y01824*
X01788Y01824*
X01788Y01824*
X01788Y01824*
X01787Y01824*
X01787Y01824*
X01786Y01825*
X01785Y01825*
X01785Y01825*
X01774*
Y01828*
X01785*
X01786Y01828*
G37*
G36*
X01838Y01825D02*
X01823D01*
Y01814*
X01823Y01814*
X01823Y01814*
X01824Y01814*
X01824Y01815*
X01825Y01815*
X01825Y01815*
X01826Y01816*
X01826Y01816*
X01826Y01816*
X01827Y01816*
X01827Y01816*
X01827Y01816*
X01828Y01817*
X01828Y01817*
X01829Y01817*
X0183Y01817*
X0183*
X01831Y01817*
X01832Y01817*
X01832Y01817*
X01833Y01816*
X01834Y01816*
X01835Y01816*
X01835Y01816*
X01835Y01815*
X01835Y01815*
X01836Y01815*
X01836Y01814*
X01837Y01814*
X01837Y01813*
X01838Y01812*
X01838Y01812*
X01838Y01812*
X01838Y01812*
X01838Y01811*
X01838Y0181*
X01839Y01809*
X01839Y01808*
X01839Y01807*
Y01802*
Y01802*
Y01802*
Y01802*
Y01801*
X01839Y01801*
X01839Y018*
X01839Y01799*
X01838Y01798*
X01838Y01798*
X01838Y01797*
X01838Y01797*
X01837Y01796*
X01837Y01796*
X01837Y01795*
X01836Y01795*
X01836Y01794*
X01835Y01794*
X01834Y01793*
X01834Y01793*
X01834Y01793*
X01833Y01793*
X01833Y01793*
X01832Y01793*
X01831Y01792*
X0183Y01792*
X01829Y01792*
X01828*
X01828Y01792*
X01827Y01792*
X01827Y01792*
X01826Y01793*
X01825Y01793*
X01824Y01793*
X01824Y01793*
X01824Y01793*
X01823Y01794*
X01823Y01794*
X01822Y01794*
X01822Y01795*
X01821Y01796*
X01821Y01796*
X01821Y01796*
X0182Y01797*
X0182Y01797*
X0182Y01798*
X0182Y01798*
X01819Y01799*
X01819Y018*
X01819Y01801*
Y01801*
X01822*
Y01801*
Y01801*
Y01801*
X01823Y01801*
X01823Y018*
X01823Y01799*
X01823Y01799*
X01823Y01798*
X01824Y01797*
X01824Y01797*
X01824Y01797*
X01825Y01797*
X01825Y01796*
X01826Y01796*
X01826Y01796*
X01827Y01796*
X01828Y01796*
X01829Y01795*
X01829*
X01829Y01796*
X0183Y01796*
X01831Y01796*
X01831Y01796*
X01832Y01796*
X01833Y01797*
X01834Y01797*
X01834Y01797*
X01834Y01797*
X01834Y01798*
X01834Y01798*
X01835Y01799*
X01835Y018*
X01835Y01801*
X01835Y01802*
Y01807*
Y01807*
Y01807*
Y01807*
Y01808*
X01835Y01808*
X01835Y01809*
X01835Y0181*
X01835Y0181*
X01834Y01811*
X01834Y01812*
X01834Y01812*
X01834Y01812*
X01833Y01812*
X01833Y01813*
X01832Y01813*
X01832Y01813*
X01831Y01813*
X0183Y01813*
X01829*
X01829Y01813*
X01829Y01813*
X01828Y01813*
X01827Y01813*
X01827Y01813*
X01826Y01812*
X01826Y01812*
X01826Y01812*
X01825Y01812*
X01825Y01812*
X01824Y01811*
X01824Y01811*
X01823Y0181*
X01823Y01809*
X0182*
Y01828*
X01838*
Y01825*
G37*
G36*
X01811Y01793D02*
X01807D01*
Y01825*
X01801Y01821*
Y01825*
X01806Y01828*
X01811*
Y01793*
G37*
G36*
X01996Y0183D02*
X01996Y0183D01*
X01997Y01829*
X01998Y01829*
X01999Y01829*
X02Y01829*
X02Y01828*
X02Y01828*
X02001Y01828*
X02001Y01828*
X02002Y01827*
X02002Y01826*
X02003Y01826*
X02004Y01825*
X02004Y01825*
X02004Y01825*
X02004Y01824*
X02004Y01823*
X02004Y01823*
X02005Y01822*
X02005Y01821*
X02005Y0182*
Y01819*
Y01819*
Y01819*
Y01819*
X02005Y01818*
X02005Y01818*
X02005Y01817*
X02004Y01816*
X02004Y01815*
X02004Y01814*
X02003Y01814*
X02003Y01814*
X02003Y01813*
X02003Y01813*
X02002Y01812*
X02001Y01812*
X02001Y01811*
X02Y01811*
X02Y0181*
X02Y0181*
X01999Y0181*
X01998Y0181*
X01998Y0181*
X02006Y01794*
X02002*
X01995Y01809*
X01996Y01809*
X01997Y01809*
X01998Y0181*
X01998Y0181*
X01997Y01812*
X01994Y0181*
X01995Y01809*
X01995*
X01984*
Y01813*
X01983*
Y01809*
X01984*
Y01794*
X01981*
Y0183*
X01983*
Y01827*
X01984*
Y01813*
X01995*
X01995Y01813*
X01996Y01813*
X01996Y01813*
X01997Y01813*
X01998Y01813*
X01998Y01813*
X01998Y01813*
X01998Y01814*
X01999Y01814*
X01999Y01814*
X01999Y01814*
X02Y01815*
X02Y01815*
X02001Y01816*
X02001Y01816*
X02001Y01816*
X02001Y01816*
X02001Y01817*
X02001Y01817*
X02001Y01818*
X02001Y01819*
X02001Y0182*
Y0182*
Y0182*
X02001Y0182*
X02001Y01821*
X02001Y01821*
X02001Y01822*
X02001Y01823*
X02001Y01823*
X02Y01823*
X02Y01823*
X02Y01824*
X02Y01824*
X02Y01825*
X01999Y01825*
X01999Y01825*
X01998Y01826*
X01998Y01826*
X01998Y01826*
X01998Y01826*
X01997Y01826*
X01997Y01826*
X01996Y01826*
X01995Y01826*
X01995Y01827*
X01984*
Y0183*
X01995*
X01996Y0183*
G37*
G36*
X02039Y0183D02*
X02039D01*
X0204Y0183*
X02041Y0183*
X02042Y0183*
X02043Y01829*
X02044Y01829*
X02045Y01828*
X02045Y01828*
X02045*
X02045Y01828*
X02046Y01827*
X02046Y01827*
X02046Y01826*
X02047Y01825*
X02047Y01824*
X02048Y01822*
X02048Y01822*
Y01821*
Y0182*
Y0182*
Y01819*
X02048Y01819*
X02047Y01818*
X02047Y01818*
X02047Y01817*
X02047Y01816*
X02046Y01815*
X02046Y01815*
X02046Y01815*
X02046Y01815*
X02046Y01814*
X02045Y01814*
X02045Y01814*
X02044Y01813*
X02043Y01813*
X02043*
X02044Y01813*
X02044Y01813*
X02045Y01812*
X02045Y01812*
X02046Y01811*
X02046Y01811*
X02047Y0181*
X02047Y0181*
X02047Y0181*
X02047Y01809*
X02048Y01809*
X02048Y01808*
X02048Y01807*
X02048Y01806*
X02048Y01805*
Y01804*
Y01804*
Y01804*
Y01803*
Y01803*
X02048Y01803*
X02048Y01802*
X02048Y01801*
X02048Y018*
X02047Y01799*
X02047Y01798*
X02047Y01798*
X02047Y01798*
X02047Y01798*
X02046Y01797*
X02046Y01797*
X02045Y01796*
X02044Y01796*
X02044Y01795*
X02043Y01795*
X02043Y01795*
X02043Y01795*
X02042Y01795*
X02041Y01794*
X0204Y01794*
X02039Y01794*
X02038Y01794*
X02038*
X02037Y01794*
X02036Y01794*
X02036Y01794*
X02035Y01794*
X02034Y01795*
X02033Y01795*
X02033Y01795*
X02032Y01795*
X02032Y01795*
X02032Y01796*
X02031Y01796*
X0203Y01797*
X0203Y01797*
X02029Y01798*
X02029Y01798*
X02029Y01798*
X02029Y01799*
X02028Y01799*
X02028Y018*
X02028Y01801*
X02028Y01802*
X02027Y01803*
X02031*
Y01803*
X02031Y01803*
X02031Y01802*
X02031Y01802*
X02031Y01801*
X02032Y01801*
X02032Y018*
X02032Y018*
X02032Y018*
X02032Y018*
X02033Y01799*
X02033Y01799*
X02033Y01799*
X02034Y01798*
X02034Y01798*
X02035Y01798*
X02035*
X02035Y01798*
X02035Y01798*
X02036Y01798*
X02036Y01797*
X02037Y01797*
X02037Y01797*
X02038Y01797*
X02038*
X02039Y01797*
X02039Y01797*
X0204Y01797*
X02041Y01798*
X02042Y01798*
X02042Y01798*
X02043Y01799*
X02043Y01799*
X02043Y01799*
X02044Y018*
X02044Y018*
X02044Y01801*
X02044Y01802*
X02045Y01803*
X02045Y01804*
Y01805*
Y01805*
Y01805*
Y01805*
Y01805*
X02045Y01806*
X02045Y01807*
X02044Y01807*
X02044Y01808*
X02044Y01809*
X02043Y01809*
X02043Y01809*
X02043Y0181*
X02042Y0181*
X02042Y0181*
X02041Y01811*
X0204Y01811*
X02039Y01811*
X02038Y01811*
X02036*
Y01814*
X02039*
X02039Y01814*
X0204Y01815*
X02041Y01815*
X02041Y01815*
X02042Y01815*
X02043Y01816*
X02043Y01816*
X02043Y01816*
X02043Y01816*
X02043Y01817*
X02044Y01817*
X02044Y01818*
X02044Y01819*
X02044Y0182*
Y01821*
Y01821*
Y01821*
Y01821*
X02044Y01822*
X02044Y01823*
X02044Y01823*
X02043Y01824*
X02043Y01825*
X02043Y01825*
X02042Y01825*
X02042Y01825*
X02042Y01826*
X02041Y01826*
X02041Y01826*
X0204Y01827*
X02039Y01827*
X02038Y01827*
X02038*
X02038Y01827*
X02037*
X02037Y01827*
X02036Y01827*
X02036Y01826*
X02035Y01826*
X02035*
X02035Y01826*
X02035Y01826*
X02034Y01826*
X02034Y01825*
X02034Y01825*
X02033Y01825*
X02033Y01824*
X02033Y01824*
X02033Y01824*
X02033Y01824*
X02032Y01824*
X02032Y01823*
X02032Y01823*
X02032Y01822*
X02032Y01821*
X02028*
Y01822*
Y01822*
X02028Y01822*
X02028Y01822*
X02028Y01823*
X02029Y01824*
X02029Y01825*
X02029Y01825*
X0203Y01826*
X0203Y01826*
X0203Y01826*
X0203Y01827*
X02031Y01827*
X02031Y01828*
X02032Y01828*
X02033Y01829*
X02033Y01829*
X02033Y01829*
X02034Y01829*
X02034Y01829*
X02035Y0183*
X02035Y0183*
X02036Y0183*
X02037Y0183*
X02038Y0183*
X02039*
X02039Y0183*
G37*
G36*
X02021Y01794D02*
X02017D01*
Y01827*
X02011Y01823*
Y01826*
X02016Y0183*
X02021*
Y01794*
G37*
G36*
X02201Y01833D02*
X02201Y01833D01*
X02202Y01833*
X02203Y01832*
X02204Y01832*
X02205Y01832*
X02205Y01832*
X02205Y01831*
X02206Y01831*
X02206Y01831*
X02207Y0183*
X02207Y0183*
X02208Y01829*
X02209Y01828*
X02209Y01828*
X02209Y01828*
X02209Y01827*
X02209Y01827*
X02209Y01826*
X0221Y01825*
X0221Y01824*
X0221Y01823*
Y01823*
Y01823*
Y01822*
Y01822*
X0221Y01822*
X0221Y01821*
X0221Y0182*
X02209Y01819*
X02209Y01818*
X02209Y01817*
X02208Y01817*
X02208Y01817*
X02208Y01817*
X02208Y01816*
X02207Y01815*
X02206Y01815*
X02206Y01814*
X02205Y01814*
X02205Y01814*
X02205Y01814*
X02204Y01813*
X02203Y01813*
X02203Y01813*
X02211Y01798*
X02207*
X022Y01812*
X02201Y01813*
X02202Y01813*
X02203Y01813*
X02203Y01813*
X02202Y01815*
X02199Y01814*
X022Y01812*
X022Y01812*
X02189*
Y01816*
X02188*
Y01812*
X02189*
Y01798*
X02186*
Y01833*
X02188*
Y0183*
X02189*
Y01816*
X022*
X022Y01816*
X02201Y01816*
X02201Y01816*
X02202Y01816*
X02203Y01816*
X02203Y01817*
X02203Y01817*
X02203Y01817*
X02204Y01817*
X02204Y01817*
X02204Y01818*
X02205Y01818*
X02205Y01818*
X02206Y01819*
X02206Y01819*
X02206Y01819*
X02206Y0182*
X02206Y0182*
X02206Y01821*
X02206Y01821*
X02206Y01822*
X02206Y01823*
Y01823*
Y01823*
X02206Y01823*
X02206Y01824*
X02206Y01825*
X02206Y01825*
X02206Y01826*
X02206Y01826*
X02205Y01826*
X02205Y01827*
X02205Y01827*
X02205Y01827*
X02205Y01828*
X02204Y01828*
X02204Y01828*
X02203Y01829*
X02203Y01829*
X02203Y01829*
X02203Y01829*
X02202Y01829*
X02202Y01829*
X02201Y0183*
X022Y0183*
X022Y0183*
X02189*
Y01833*
X022*
X02201Y01833*
G37*
G36*
X02243Y01798D02*
X02239D01*
Y0183*
X02232Y01826*
Y0183*
X02238Y01833*
X02243*
Y01798*
G37*
G36*
X02226D02*
X02222D01*
Y0183*
X02216Y01826*
Y0183*
X02221Y01833*
X02226*
Y01798*
G37*
G36*
X03329Y02469D02*
X0333Y02469D01*
X03331Y02469*
X03332Y02468*
X03333Y02468*
X03334Y02468*
X03334Y02468*
X03334Y02467*
X03334Y02467*
X03335Y02467*
X03335Y02466*
X03336Y02466*
X03337Y02465*
X03337Y02464*
X03337Y02464*
X03337Y02464*
X03338Y02463*
X03338Y02463*
X03338Y02462*
X03338Y02461*
X03338Y0246*
X03338Y02459*
Y02459*
Y02459*
Y02458*
Y02458*
X03338Y02458*
X03338Y02457*
X03338Y02456*
X03338Y02455*
X03338Y02454*
X03337Y02453*
X03337Y02453*
X03337Y02453*
X03337Y02453*
X03336Y02452*
X03336Y02451*
X03335Y02451*
X03334Y0245*
X03334Y0245*
X03333Y0245*
X03333Y0245*
X03333Y02449*
X03332Y02449*
X03332Y02449*
X0334Y02434*
X03336*
X03328Y02448*
X03329Y02449*
X0333Y02449*
X03331Y02449*
X03332Y02449*
X03331Y02451*
X03328Y0245*
X03328Y02448*
X03328Y02448*
X03318*
Y02452*
X03316*
Y02448*
X03318*
Y02434*
X03314*
Y02469*
X03316*
Y02466*
X03318*
Y02452*
X03329*
X03329Y02452*
X0333Y02452*
X0333Y02452*
X03331Y02452*
X03331Y02452*
X03332Y02453*
X03332Y02453*
X03332Y02453*
X03332Y02453*
X03333Y02453*
X03333Y02454*
X03333Y02454*
X03334Y02454*
X03334Y02455*
X03334Y02455*
X03334Y02455*
X03334Y02456*
X03335Y02456*
X03335Y02457*
X03335Y02457*
X03335Y02458*
X03335Y02459*
Y02459*
Y02459*
X03335Y02459*
X03335Y0246*
X03335Y02461*
X03335Y02461*
X03334Y02462*
X03334Y02462*
X03334Y02462*
X03334Y02463*
X03334Y02463*
X03334Y02463*
X03333Y02464*
X03333Y02464*
X03332Y02464*
X03332Y02465*
X03332Y02465*
X03332Y02465*
X03331Y02465*
X03331Y02465*
X0333Y02465*
X0333Y02466*
X03329Y02466*
X03328Y02466*
X03318*
Y02469*
X03329*
X03329Y02469*
G37*
G36*
X03355Y02434D02*
X03351D01*
Y02466*
X03344Y02462*
Y02466*
X0335Y02469*
X03355*
Y02434*
G37*
G36*
X03374Y02469D02*
X03374D01*
X03374Y02469*
X03375Y02469*
X03377Y02469*
X03378Y02468*
X03379Y02468*
X0338Y02467*
X0338Y02467*
X0338Y02467*
X0338Y02467*
X0338Y02466*
X03381Y02466*
X03381Y02466*
X03381Y02466*
X03381Y02465*
X03382Y02465*
X03382Y02464*
X03382Y02464*
X03382Y02462*
X03383Y02461*
X03383Y0246*
Y02459*
Y02443*
Y02443*
Y02443*
Y02443*
X03383Y02442*
Y02442*
X03383Y02441*
X03382Y0244*
X03382Y02439*
X03382Y02438*
X03381Y02437*
X03381Y02436*
X0338Y02436*
X0338*
X0338Y02436*
X0338Y02436*
X0338Y02435*
X03379Y02435*
X03379Y02435*
X03379Y02435*
X03378Y02435*
X03378Y02434*
X03377Y02434*
X03377Y02434*
X03376Y02434*
X03375Y02433*
X03374Y02433*
X03374Y02433*
X03373Y02433*
X03372*
X03372Y02433*
X03371*
X03371Y02433*
X0337Y02434*
X03369Y02434*
X03367Y02434*
X03366Y02435*
X03366Y02435*
X03365Y02436*
Y02436*
X03365Y02436*
X03365Y02436*
X03365Y02436*
X03364Y02437*
X03364Y02437*
X03364Y02437*
X03364Y02438*
X03363Y02439*
X03363Y0244*
X03363Y02441*
X03363Y02442*
X03363Y02443*
Y02459*
Y02459*
Y0246*
Y0246*
X03363Y0246*
Y0246*
X03363Y02461*
X03363Y02462*
X03363Y02463*
X03364Y02464*
X03364Y02466*
X03365Y02466*
X03365Y02467*
X03365Y02467*
X03365Y02467*
X03365Y02467*
X03366Y02467*
X03366Y02467*
X03366Y02468*
X03367Y02468*
X03367Y02468*
X03368Y02468*
X03368Y02469*
X03369Y02469*
X03369Y02469*
X0337Y02469*
X03371Y02469*
X03372Y02469*
X03373Y02469*
X03373*
X03374Y02469*
G37*
G36*
X03329Y02322D02*
X0333Y02322D01*
X03331Y02322*
X03332Y02322*
X03333Y02322*
X03334Y02321*
X03334Y02321*
X03334Y02321*
X03334Y02321*
X03335Y0232*
X03335Y0232*
X03336Y02319*
X03337Y02318*
X03337Y02318*
X03337Y02318*
X03337Y02317*
X03338Y02317*
X03338Y02316*
X03338Y02315*
X03338Y02314*
X03338Y02313*
X03338Y02312*
Y02312*
Y02312*
Y02312*
Y02312*
X03338Y02311*
X03338Y0231*
X03338Y0231*
X03338Y02309*
X03338Y02308*
X03337Y02307*
X03337Y02307*
X03337Y02306*
X03337Y02306*
X03336Y02306*
X03336Y02305*
X03335Y02304*
X03334Y02304*
X03334Y02303*
X03333Y02303*
X03333Y02303*
X03333Y02303*
X03332Y02303*
X03332Y02303*
X0334Y02287*
X03336*
X03328Y02302*
X03329Y02302*
X0333Y02302*
X03331Y02302*
X03332Y02303*
X03331Y02304*
X03328Y02303*
X03328Y02302*
X03328*
X03318*
Y02305*
X03316*
Y02302*
X03318*
Y02287*
X03314*
Y02323*
X03316*
Y02319*
X03318*
Y02305*
X03329*
X03329Y02305*
X0333Y02305*
X0333Y02306*
X03331Y02306*
X03331Y02306*
X03332Y02306*
X03332Y02306*
X03332Y02306*
X03332Y02307*
X03333Y02307*
X03333Y02307*
X03333Y02308*
X03334Y02308*
X03334Y02309*
X03334Y02309*
X03334Y02309*
X03334Y02309*
X03335Y0231*
X03335Y0231*
X03335Y02311*
X03335Y02312*
X03335Y02312*
Y02312*
Y02313*
X03335Y02313*
X03335Y02314*
X03335Y02314*
X03335Y02315*
X03334Y02315*
X03334Y02316*
X03334Y02316*
X03334Y02316*
X03334Y02316*
X03334Y02317*
X03333Y02317*
X03333Y02318*
X03332Y02318*
X03332Y02318*
X03332Y02318*
X03332Y02319*
X03331Y02319*
X03331Y02319*
X0333Y02319*
X0333Y02319*
X03329Y02319*
X03328Y02319*
X03318*
Y02323*
X03329*
X03329Y02322*
G37*
G36*
X03356Y02323D02*
X03357Y02323D01*
X03358Y02323*
X03359Y02322*
X0336Y02322*
X0336Y02322*
X03361Y02321*
X03361Y02321*
X03361Y02321*
X03362Y02321*
X03362Y0232*
X03363Y02319*
X03363Y02319*
X03364Y02318*
X03364Y02318*
X03364Y02317*
X03364Y02317*
X03364Y02316*
X03365Y02315*
X03365Y02314*
X03365Y02313*
X03365Y02312*
Y02312*
Y02312*
Y02311*
X03365Y02311*
X03365Y0231*
X03365Y02309*
X03365Y02309*
X03365Y02308*
Y02308*
X03364Y02307*
X03364Y02307*
X03364Y02306*
X03364Y02306*
X03364Y02305*
X03363Y02304*
Y02304*
X03363Y02303*
X03363Y02303*
X03363Y02303*
Y02303*
X03363Y02303*
X03363Y02302*
X03363Y02302*
X03355Y02287*
X03351*
X03359Y02303*
X03359Y02303*
X03358Y02302*
X03358Y02302*
X03358*
X03358Y02302*
X03357Y02302*
X03357Y02302*
X03356Y02302*
X03356Y02302*
X03355Y02302*
X03354*
X03353Y02302*
X03353Y02302*
X03352Y02302*
X03351Y02302*
X0335Y02302*
X0335Y02303*
X03349Y02303*
X03349Y02303*
X03349Y02303*
X03348Y02304*
X03348Y02304*
X03347Y02305*
X03347Y02306*
X03346Y02306*
Y02307*
X03346Y02307*
X03346Y02307*
X03346Y02307*
X03346Y02308*
X03346Y02309*
X03345Y0231*
X03345Y02311*
X03345Y02312*
Y02312*
Y02312*
Y02312*
Y02312*
Y02313*
X03345Y02313*
X03345Y02314*
X03345Y02315*
X03346Y02316*
X03346Y02317*
X03346Y02318*
Y02318*
X03346Y02318*
X03347Y02318*
X03347Y02319*
X03347Y02319*
X03348Y0232*
X03348Y0232*
X03349Y02321*
X0335Y02322*
X0335Y02322*
X0335Y02322*
X03351Y02322*
X03351Y02322*
X03352Y02322*
X03353Y02323*
X03354Y02323*
X03355Y02323*
X03356*
X03356Y02323*
G37*
G36*
X03328Y02176D02*
X03329Y02176D01*
X0333Y02176*
X03331Y02176*
X03332Y02175*
X03333Y02175*
X03333Y02175*
X03333Y02175*
X03334Y02174*
X03334Y02174*
X03335Y02173*
X03335Y02173*
X03336Y02172*
X03336Y02171*
X03336Y02171*
X03337Y02171*
X03337Y0217*
X03337Y0217*
X03337Y02169*
X03337Y02168*
X03338Y02167*
X03338Y02166*
Y02166*
Y02166*
Y02166*
Y02165*
X03338Y02165*
X03338Y02164*
X03337Y02163*
X03337Y02162*
X03337Y02161*
X03336Y0216*
X03336Y0216*
X03336Y0216*
X03336Y0216*
X03335Y02159*
X03335Y02159*
X03334Y02158*
X03334Y02157*
X03333Y02157*
X03333Y02157*
X03332Y02157*
X03332Y02156*
X03331Y02156*
X03331Y02156*
X03339Y02141*
X03335*
X03327Y02156*
X03328Y02156*
X03329Y02156*
X0333Y02156*
X03331Y02156*
X0333Y02158*
X03327Y02157*
X03327Y02156*
X03327*
X03317*
Y02159*
X03315*
Y02156*
X03317*
Y02141*
X03313*
Y02176*
X03315*
Y02173*
X03317*
Y02159*
X03328*
X03328Y02159*
X03329Y02159*
X03329Y02159*
X0333Y02159*
X0333Y02159*
X03331Y0216*
X03331Y0216*
X03331Y0216*
X03332Y0216*
X03332Y0216*
X03332Y02161*
X03333Y02161*
X03333Y02162*
X03333Y02162*
X03333Y02162*
X03333Y02162*
X03334Y02163*
X03334Y02163*
X03334Y02164*
X03334Y02164*
X03334Y02165*
X03334Y02166*
Y02166*
Y02166*
X03334Y02167*
X03334Y02167*
X03334Y02168*
X03334Y02168*
X03334Y02169*
X03333Y0217*
X03333Y0217*
X03333Y0217*
X03333Y0217*
X03333Y0217*
X03332Y02171*
X03332Y02171*
X03332Y02172*
X03331Y02172*
X03331Y02172*
X03331Y02172*
X03331Y02172*
X0333Y02172*
X0333Y02173*
X03329Y02173*
X03328Y02173*
X03328Y02173*
X03317*
Y02176*
X03328*
X03328Y02176*
G37*
G36*
X03357Y02176D02*
X03357Y02176D01*
X03358Y02176*
X03359Y02176*
X0336Y02176*
X03361Y02175*
X03361Y02175*
X03361Y02175*
X03362Y02175*
X03362Y02175*
X03363Y02174*
X03363Y02174*
X03364Y02173*
X03364Y02172*
X03364Y02172*
X03365Y02172*
X03365Y02171*
X03365Y02171*
X03365Y0217*
X03365Y02169*
X03365Y02168*
X03366Y02167*
Y02167*
Y02167*
Y02166*
X03365Y02166*
X03365Y02165*
X03365Y02164*
X03365Y02164*
X03365Y02163*
X03364Y02162*
X03364Y02162*
X03364Y02162*
X03364Y02161*
X03364Y02161*
X03363Y0216*
X03363Y0216*
X03362Y02159*
X03361Y02159*
X03361*
X03361Y02159*
X03362Y02159*
X03362Y02158*
X03363Y02158*
X03363Y02157*
X03364Y02157*
X03364Y02156*
X03365Y02155*
X03365Y02155*
X03365Y02155*
X03365Y02155*
X03366Y02154*
X03366Y02153*
X03366Y02152*
X03366Y02151*
X03366Y0215*
Y0215*
Y0215*
Y0215*
Y0215*
Y02149*
X03366Y02149*
X03366Y02148*
X03366Y02147*
X03366Y02146*
X03365Y02146*
X03365Y02145*
X03365Y02145*
X03365Y02144*
X03364Y02144*
X03364Y02143*
X03364Y02143*
X03363Y02142*
X03362Y02142*
X03361Y02141*
X03361Y02141*
X03361Y02141*
X0336Y02141*
X0336Y02141*
X03359Y02141*
X03358Y0214*
X03357Y0214*
X03356Y0214*
X03355*
X03354Y0214*
X03354Y0214*
X03353Y02141*
X03352Y02141*
X03351Y02141*
X0335Y02141*
X0335Y02141*
X03349Y02142*
X03349Y02142*
X03348Y02142*
X03348Y02143*
X03347Y02143*
X03347Y02144*
X03346Y02145*
X03346Y02145*
X03346Y02145*
X03346Y02146*
X03345Y02146*
X03345Y02147*
X03345Y02148*
X03345Y02149*
X03345Y0215*
Y0215*
Y0215*
Y0215*
Y02151*
Y02151*
X03345Y02151*
X03345Y02152*
X03345Y02153*
X03345Y02154*
X03346Y02155*
X03346Y02155*
X03346Y02155*
X03346Y02156*
X03347Y02156*
X03347Y02157*
X03348Y02157*
X03348Y02158*
X03349Y02158*
X0335Y02159*
X0335Y02159*
X03349Y02159*
X03349Y02159*
X03349Y0216*
X03348Y0216*
X03348Y02161*
X03347Y02161*
X03347Y02162*
X03347Y02162*
X03346Y02163*
X03346Y02163*
X03346Y02163*
X03346Y02164*
X03346Y02165*
X03346Y02166*
X03346Y02167*
Y02167*
Y02167*
Y02167*
Y02167*
Y02168*
X03346Y02168*
X03346Y02169*
X03346Y0217*
X03346Y0217*
X03346Y02171*
X03347Y02172*
X03347Y02172*
X03347Y02172*
X03347Y02173*
X03348Y02173*
X03348Y02174*
X03349Y02174*
X03349Y02175*
X0335Y02175*
X0335Y02175*
X03351Y02176*
X03351Y02176*
X03352Y02176*
X03352Y02176*
X03353Y02176*
X03354Y02176*
X03356Y02176*
X03356*
X03357Y02176*
G37*
G36*
X03328Y0203D02*
X03329Y0203D01*
X0333Y02029*
X03331Y02029*
X03332Y02029*
X03333Y02028*
X03333Y02028*
X03333Y02028*
X03334Y02028*
X03334Y02027*
X03335Y02027*
X03335Y02026*
X03336Y02026*
X03336Y02025*
X03336Y02025*
X03337Y02024*
X03337Y02024*
X03337Y02023*
X03337Y02022*
X03337Y02022*
X03338Y02021*
X03338Y02019*
Y02019*
Y02019*
Y02019*
Y02019*
X03338Y02018*
X03338Y02018*
X03337Y02017*
X03337Y02016*
X03337Y02015*
X03336Y02014*
X03336Y02014*
X03336Y02014*
X03336Y02013*
X03335Y02013*
X03335Y02012*
X03334Y02012*
X03334Y02011*
X03333Y0201*
X03333Y0201*
X03332Y0201*
X03332Y0201*
X03331Y0201*
X03331Y0201*
X03339Y01994*
X03335*
X03327Y02009*
X03328Y02009*
X03329Y02009*
X0333Y0201*
X03331Y0201*
X0333Y02011*
X03327Y0201*
X03327Y02009*
X03327*
X03317*
Y02012*
X03315*
Y02009*
X03317*
Y01994*
X03313*
Y0203*
X03315*
Y02026*
X03317*
Y02012*
X03328*
X03328Y02013*
X03329Y02013*
X03329Y02013*
X0333Y02013*
X0333Y02013*
X03331Y02013*
X03331Y02013*
X03331Y02013*
X03332Y02014*
X03332Y02014*
X03332Y02014*
X03333Y02015*
X03333Y02015*
X03333Y02016*
X03333Y02016*
X03333Y02016*
X03334Y02016*
X03334Y02017*
X03334Y02017*
X03334Y02018*
X03334Y02019*
X03334Y02019*
Y0202*
Y0202*
X03334Y0202*
X03334Y02021*
X03334Y02021*
X03334Y02022*
X03334Y02022*
X03333Y02023*
X03333Y02023*
X03333Y02023*
X03333Y02024*
X03333Y02024*
X03332Y02024*
X03332Y02025*
X03332Y02025*
X03331Y02026*
X03331Y02026*
X03331Y02026*
X03331Y02026*
X0333Y02026*
X0333Y02026*
X03329Y02026*
X03328Y02026*
X03328Y02026*
X03317*
Y0203*
X03328*
X03328Y0203*
G37*
G36*
X03363Y02027D02*
X03354Y01994D01*
X0335*
X0336Y02026*
X03348*
Y0202*
X03344*
Y0203*
X03363*
Y02027*
G37*
G36*
X03329Y01883D02*
X0333Y01883D01*
X03331Y01883*
X03332Y01883*
X03333Y01882*
X03334Y01882*
X03334Y01882*
X03334Y01882*
X03334Y01881*
X03335Y01881*
X03335Y01881*
X03336Y0188*
X03337Y01879*
X03337Y01878*
X03337Y01878*
X03337Y01878*
X03338Y01877*
X03338Y01877*
X03338Y01876*
X03338Y01875*
X03338Y01874*
X03338Y01873*
Y01873*
Y01873*
Y01873*
Y01872*
X03338Y01872*
X03338Y01871*
X03338Y0187*
X03338Y01869*
X03338Y01868*
X03337Y01868*
X03337Y01867*
X03337Y01867*
X03337Y01867*
X03336Y01866*
X03336Y01866*
X03335Y01865*
X03334Y01864*
X03334Y01864*
X03333Y01864*
X03333Y01864*
X03333Y01864*
X03332Y01863*
X03332Y01863*
X0334Y01848*
X03336*
X03328Y01863*
X03329Y01863*
X0333Y01863*
X03331Y01863*
X03332Y01863*
X03331Y01865*
X03328Y01864*
X03328Y01863*
X03328*
X03318*
Y01866*
X03316*
Y01863*
X03318*
Y01848*
X03314*
Y01883*
X03316*
Y0188*
X03318*
Y01866*
X03329*
X03329Y01866*
X0333Y01866*
X0333Y01866*
X03331Y01866*
X03331Y01867*
X03332Y01867*
X03332Y01867*
X03332Y01867*
X03332Y01867*
X03333Y01868*
X03333Y01868*
X03333Y01868*
X03334Y01869*
X03334Y01869*
X03334Y01869*
X03334Y0187*
X03334Y0187*
X03335Y0187*
X03335Y01871*
X03335Y01872*
X03335Y01872*
X03335Y01873*
Y01873*
Y01873*
X03335Y01874*
X03335Y01874*
X03335Y01875*
X03335Y01875*
X03334Y01876*
X03334Y01877*
X03334Y01877*
X03334Y01877*
X03334Y01877*
X03334Y01878*
X03333Y01878*
X03333Y01878*
X03332Y01879*
X03332Y01879*
X03332Y01879*
X03332Y01879*
X03331Y01879*
X03331Y0188*
X0333Y0188*
X0333Y0188*
X03329Y0188*
X03328Y0188*
X03318*
Y01883*
X03329*
X03329Y01883*
G37*
G36*
X03351Y01867D02*
X03351Y01868D01*
X03352Y01868*
X03352Y01868*
X03352Y01868*
X03353Y01868*
X03353Y01868*
X03353Y01868*
X03354Y01869*
X03354Y01869*
X03355Y01869*
X03356*
X03357Y01869*
X03357Y01869*
X03358Y01868*
X03359Y01868*
X0336Y01868*
X03361Y01868*
X03361Y01867*
X03361Y01867*
X03361Y01867*
X03362Y01867*
X03362Y01866*
X03363Y01865*
X03363Y01865*
X03364Y01864*
X03364Y01864*
X03364Y01864*
X03364Y01863*
X03364Y01862*
X03365Y01861*
X03365Y01861*
X03365Y01859*
X03365Y01858*
Y01858*
Y01858*
Y01858*
Y01858*
X03365Y01857*
X03365Y01856*
X03365Y01855*
X03365Y01854*
X03364Y01853*
X03364Y01852*
X03364Y01852*
X03364Y01852*
X03363Y01852*
X03363Y01851*
X03363Y0185*
X03362Y0185*
X03361Y01849*
X0336Y01849*
X0336Y01849*
X0336Y01849*
X0336Y01848*
X03359Y01848*
X03358Y01848*
X03357Y01848*
X03356Y01848*
X03355Y01847*
X03355*
X03354Y01848*
X03353Y01848*
X03352Y01848*
X03352Y01848*
X03351Y01848*
X0335Y01849*
X0335Y01849*
X03349Y01849*
X03349Y01849*
X03348Y0185*
X03348Y0185*
X03347Y01851*
X03347Y01851*
X03346Y01852*
Y01852*
X03346Y01852*
X03346Y01853*
X03346Y01853*
X03346Y01854*
X03346Y01855*
X03345Y01856*
X03345Y01857*
X03345Y01858*
Y01858*
Y01858*
Y01859*
X03345Y01859*
X03345Y0186*
X03345Y01861*
X03345Y01861*
X03346Y01862*
Y01862*
X03346Y01863*
X03346Y01863*
X03346Y01864*
X03346Y01864*
X03346Y01865*
X03347Y01867*
Y01867*
X03347Y01867*
X03347Y01867*
X03347Y01867*
X03347Y01867*
X03347Y01867*
X03348Y01868*
X03348Y01868*
X03355Y01883*
X03359*
X03351Y01867*
G37*
G36*
X03329Y01737D02*
X03329Y01737D01*
X0333Y01736*
X03331Y01736*
X03332Y01736*
X03333Y01736*
X03333Y01735*
X03333Y01735*
X03334Y01735*
X03334Y01735*
X03335Y01734*
X03335Y01733*
X03336Y01733*
X03337Y01732*
X03337Y01732*
X03337Y01732*
X03337Y01731*
X03337Y0173*
X03337Y0173*
X03338Y01729*
X03338Y01728*
X03338Y01727*
Y01727*
Y01726*
Y01726*
Y01726*
X03338Y01725*
X03338Y01725*
X03338Y01724*
X03337Y01723*
X03337Y01722*
X03337Y01721*
X03336Y01721*
X03336Y01721*
X03336Y0172*
X03336Y0172*
X03335Y01719*
X03334Y01719*
X03334Y01718*
X03333Y01718*
X03333Y01718*
X03333Y01717*
X03332Y01717*
X03331Y01717*
X03331Y01717*
X03339Y01701*
X03335*
X03328Y01716*
X03329Y01716*
X0333Y01717*
X03331Y01717*
X03331Y01717*
X0333Y01719*
X03327Y01717*
X03328Y01716*
X03328Y01716*
X03317*
Y0172*
X03316*
Y01716*
X03317*
Y01701*
X03314*
Y01737*
X03316*
Y01734*
X03317*
Y0172*
X03328*
X03328Y0172*
X03329Y0172*
X03329Y0172*
X0333Y0172*
X03331Y0172*
X03331Y0172*
X03331Y01721*
X03331Y01721*
X03332Y01721*
X03332Y01721*
X03332Y01721*
X03333Y01722*
X03333Y01722*
X03334Y01723*
X03334Y01723*
X03334Y01723*
X03334Y01724*
X03334Y01724*
X03334Y01725*
X03334Y01725*
X03334Y01726*
X03334Y01727*
Y01727*
Y01727*
X03334Y01727*
X03334Y01728*
X03334Y01728*
X03334Y01729*
X03334Y0173*
X03334Y0173*
X03333Y0173*
X03333Y0173*
X03333Y01731*
X03333Y01731*
X03333Y01732*
X03332Y01732*
X03332Y01732*
X03331Y01733*
X03331Y01733*
X03331Y01733*
X03331Y01733*
X0333Y01733*
X0333Y01733*
X03329Y01733*
X03328Y01733*
X03328Y01734*
X03317*
Y01737*
X03328*
X03329Y01737*
G37*
G36*
X03364Y01734D02*
X0335D01*
Y01723*
X0335Y01723*
X0335Y01723*
X0335Y01723*
X03351Y01724*
X03351Y01724*
X03351Y01724*
X03352Y01725*
X03353Y01725*
X03353Y01725*
X03353Y01725*
X03353Y01725*
X03354Y01725*
X03354Y01725*
X03355Y01726*
X03356Y01726*
X03356Y01726*
X03357*
X03357Y01726*
X03358Y01726*
X03359Y01725*
X03359Y01725*
X0336Y01725*
X03361Y01725*
X03361Y01724*
X03361Y01724*
X03362Y01724*
X03362Y01724*
X03363Y01723*
X03363Y01723*
X03364Y01722*
X03364Y01721*
X03364Y01721*
X03364Y01721*
X03365Y0172*
X03365Y0172*
X03365Y01719*
X03365Y01718*
X03365Y01717*
X03365Y01716*
Y01711*
Y01711*
Y01711*
Y01711*
Y0171*
X03365Y0171*
X03365Y01709*
X03365Y01708*
X03365Y01707*
X03364Y01706*
X03364Y01706*
X03364Y01705*
X03364Y01705*
X03364Y01705*
X03363Y01704*
X03363Y01704*
X03362Y01703*
X03361Y01703*
X03361Y01702*
X03361Y01702*
X0336Y01702*
X0336Y01702*
X03359Y01702*
X03358Y01701*
X03357Y01701*
X03356Y01701*
X03355Y01701*
X03355*
X03354Y01701*
X03354Y01701*
X03353Y01701*
X03352Y01701*
X03351Y01702*
X0335Y01702*
X0335Y01702*
X0335Y01702*
X0335Y01702*
X03349Y01703*
X03349Y01703*
X03348Y01704*
X03348Y01704*
X03347Y01705*
X03347Y01705*
X03347Y01705*
X03347Y01706*
X03346Y01706*
X03346Y01707*
X03346Y01708*
X03346Y01709*
X03345Y0171*
Y0171*
X03349*
Y0171*
Y0171*
Y0171*
X03349Y01709*
X03349Y01709*
X03349Y01708*
X03349Y01708*
X0335Y01707*
X0335Y01706*
X03351Y01706*
X03351Y01706*
X03351Y01706*
X03351Y01705*
X03352Y01705*
X03353Y01705*
X03353Y01705*
X03354Y01704*
X03355Y01704*
X03356*
X03356Y01704*
X03356Y01704*
X03357Y01705*
X03358Y01705*
X03359Y01705*
X03359Y01705*
X0336Y01706*
X0336Y01706*
X0336Y01706*
X03361Y01707*
X03361Y01707*
X03361Y01708*
X03361Y01709*
X03362Y0171*
X03362Y01711*
Y01716*
Y01716*
Y01716*
Y01716*
Y01717*
X03362Y01717*
X03362Y01718*
X03361Y01719*
X03361Y01719*
X03361Y0172*
X0336Y01721*
X0336Y01721*
X0336Y01721*
X0336Y01721*
X03359Y01722*
X03359Y01722*
X03358Y01722*
X03357Y01722*
X03356Y01722*
X03356*
X03355Y01722*
X03355Y01722*
X03354Y01722*
X03354Y01722*
X03353Y01722*
X03352Y01721*
X03352Y01721*
X03352Y01721*
X03352Y01721*
X03351Y0172*
X03351Y0172*
X0335Y01719*
X0335Y01719*
X03349Y01718*
X03346*
Y01737*
X03364*
Y01734*
G37*
G36*
X02443Y01873D02*
X02444Y01873D01*
X02445Y01873*
X02446Y01873*
X02447Y01873*
X02447Y01872*
X02448Y01872*
X02448Y01872*
X02448Y01872*
X02449Y01871*
X02449Y01871*
X0245Y0187*
X0245Y01869*
X02451Y01869*
X02451Y01869*
X02451Y01868*
X02451Y01868*
X02452Y01867*
X02452Y01866*
X02452Y01865*
X02452Y01864*
X02452Y01863*
Y01863*
Y01863*
Y01863*
Y01863*
X02452Y01862*
X02452Y01861*
X02452Y01861*
X02452Y0186*
X02451Y01859*
X02451Y01858*
X02451Y01858*
X02451Y01857*
X0245Y01857*
X0245Y01857*
X0245Y01856*
X02449Y01855*
X02448Y01855*
X02447Y01854*
X02447Y01854*
X02447Y01854*
X02447Y01854*
X02446Y01854*
X02446Y01854*
X02454Y01838*
X0245*
X02442Y01853*
X02443Y01853*
X02444Y01853*
X02445Y01853*
X02446Y01854*
X02445Y01855*
X02442Y01854*
X02442Y01853*
X02442Y01853*
X02431*
Y01856*
X0243*
Y01853*
X02431*
Y01838*
X02428*
Y01874*
X0243*
Y0187*
X02431*
Y01856*
X02443*
X02443Y01856*
X02443Y01856*
X02444Y01857*
X02445Y01857*
X02445Y01857*
X02446Y01857*
X02446Y01857*
X02446Y01857*
X02446Y01858*
X02447Y01858*
X02447Y01858*
X02447Y01859*
X02448Y01859*
X02448Y0186*
X02448Y0186*
X02448Y0186*
X02448Y0186*
X02448Y01861*
X02449Y01861*
X02449Y01862*
X02449Y01863*
X02449Y01863*
Y01863*
Y01864*
X02449Y01864*
X02449Y01865*
X02449Y01865*
X02449Y01866*
X02448Y01866*
X02448Y01867*
X02448Y01867*
X02448Y01867*
X02448Y01867*
X02447Y01868*
X02447Y01868*
X02447Y01869*
X02446Y01869*
X02446Y01869*
X02446Y01869*
X02445Y0187*
X02445Y0187*
X02445Y0187*
X02444Y0187*
X02444Y0187*
X02443Y0187*
X02442Y0187*
X02431*
Y01874*
X02443*
X02443Y01873*
G37*
G36*
X0247Y01874D02*
X02471Y01874D01*
X02472Y01874*
X02473Y01873*
X02474Y01873*
X02474Y01873*
X02475Y01873*
X02475Y01873*
X02475Y01872*
X02476Y01872*
X02476Y01872*
X02477Y01871*
X02477Y0187*
X02478Y0187*
X02478Y01869*
X02478Y01869*
X02478Y01869*
X02478Y01868*
X02479Y01867*
X02479Y01867*
X02479Y01866*
X02479Y01865*
Y01865*
Y01865*
Y01864*
X02479Y01864*
X02479Y01863*
X02479Y01863*
X02479Y01862*
X02478Y01862*
X02478Y01861*
X02478Y01861*
X02478Y0186*
X02478Y0186*
X02477Y01859*
X02477Y01859*
X02477Y01858*
X02476Y01857*
X02475Y01856*
X02464Y01841*
X02479*
Y01838*
X02459*
Y01841*
X02473Y01858*
X02473Y01858*
X02473Y01859*
X02473Y01859*
X02473Y01859*
X02474Y0186*
X02474Y0186*
X02474Y01861*
X02475Y01862*
X02475Y01862*
X02475Y01862*
X02475Y01862*
X02475Y01863*
X02475Y01863*
X02475Y01864*
X02475Y01864*
X02475Y01865*
Y01865*
Y01865*
Y01865*
X02475Y01866*
X02475Y01866*
X02475Y01867*
X02475Y01868*
X02474Y01868*
X02474Y01869*
X02474Y01869*
X02473Y01869*
X02473Y0187*
X02473Y0187*
X02472Y0187*
X02471Y0187*
X0247Y01871*
X02469Y01871*
X02469*
X02468Y0187*
X02467Y0187*
X02467Y0187*
X02466Y0187*
X02465Y01869*
X02465Y01869*
X02465Y01869*
X02464Y01869*
X02464Y01868*
X02464Y01868*
X02463Y01867*
X02463Y01866*
X02463Y01865*
X02462Y01864*
X02459*
Y01864*
Y01864*
X02459Y01864*
X02459Y01865*
X02459Y01865*
X02459Y01866*
X02459Y01867*
X0246Y01868*
X0246Y01869*
X02461Y01869*
X02461Y0187*
X02461Y0187*
X02461Y0187*
X02462Y01871*
X02462Y01871*
X02463Y01872*
X02463Y01872*
X02464Y01873*
X02464Y01873*
X02464Y01873*
X02465Y01873*
X02466Y01873*
X02466Y01873*
X02467Y01874*
X02468Y01874*
X02469Y01874*
X0247*
X0247Y01874*
G37*
G36*
X02667Y01874D02*
X02668Y01874D01*
X02669Y01874*
X02669Y01873*
X0267Y01873*
X02671Y01873*
X02671Y01873*
X02672Y01872*
X02672Y01872*
X02673Y01872*
X02673Y01871*
X02674Y01871*
X02674Y0187*
X02675Y01869*
X02675Y01869*
X02675Y01869*
X02675Y01868*
X02675Y01868*
X02676Y01867*
X02676Y01866*
X02676Y01865*
X02676Y01864*
Y01864*
Y01864*
Y01863*
Y01863*
X02676Y01863*
X02676Y01862*
X02676Y01861*
X02676Y0186*
X02675Y01859*
X02675Y01858*
X02675Y01858*
X02675Y01858*
X02674Y01858*
X02674Y01857*
X02673Y01856*
X02673Y01856*
X02672Y01855*
X02671Y01855*
X02671Y01855*
X02671Y01855*
X0267Y01854*
X0267Y01854*
X02669Y01854*
X02678Y01839*
X02673*
X02666Y01853*
X02667Y01854*
X02668Y01854*
X02669Y01854*
X02669Y01854*
X02669Y01856*
X02665Y01855*
X02666Y01853*
X02666Y01853*
X02655*
Y01857*
X02654*
Y01853*
X02655*
Y01839*
X02652*
Y01874*
X02654*
Y01871*
X02655*
Y01857*
X02666*
X02667Y01857*
X02667Y01857*
X02668Y01857*
X02668Y01857*
X02669Y01857*
X0267Y01858*
X0267Y01858*
X0267Y01858*
X0267Y01858*
X0267Y01858*
X02671Y01859*
X02671Y01859*
X02671Y01859*
X02672Y0186*
X02672Y0186*
X02672Y0186*
X02672Y01861*
X02672Y01861*
X02672Y01862*
X02673Y01862*
X02673Y01863*
X02673Y01864*
Y01864*
Y01864*
X02673Y01864*
X02673Y01865*
X02672Y01866*
X02672Y01866*
X02672Y01867*
X02672Y01867*
X02672Y01867*
X02672Y01868*
X02671Y01868*
X02671Y01868*
X02671Y01869*
X02671Y01869*
X0267Y01869*
X0267Y0187*
X0267Y0187*
X02669Y0187*
X02669Y0187*
X02669Y0187*
X02668Y0187*
X02667Y01871*
X02667Y01871*
X02666Y01871*
X02655*
Y01874*
X02666*
X02667Y01874*
G37*
G36*
X02692Y01839D02*
X02689D01*
Y01871*
X02682Y01867*
Y01871*
X02687Y01874*
X02692*
Y01839*
G37*
G36*
X03329Y01591D02*
X03329Y0159D01*
X0333Y0159*
X03331Y0159*
X03332Y0159*
X03333Y01589*
X03333Y01589*
X03333Y01589*
X03334Y01589*
X03334Y01588*
X03335Y01588*
X03335Y01587*
X03336Y01587*
X03337Y01586*
X03337Y01586*
X03337Y01585*
X03337Y01585*
X03337Y01584*
X03337Y01583*
X03338Y01582*
X03338Y01581*
X03338Y0158*
Y0158*
Y0158*
Y0158*
Y0158*
X03338Y01579*
X03338Y01579*
X03338Y01578*
X03337Y01577*
X03337Y01576*
X03337Y01575*
X03336Y01575*
X03336Y01575*
X03336Y01574*
X03336Y01574*
X03335Y01573*
X03334Y01572*
X03334Y01572*
X03333Y01571*
X03333Y01571*
X03333Y01571*
X03332Y01571*
X03331Y01571*
X03331Y01571*
X03339Y01555*
X03335*
X03328Y0157*
X03329Y0157*
X0333Y0157*
X03331Y01571*
X03331Y01571*
X0333Y01572*
X03327Y01571*
X03328Y0157*
X03328*
X03317*
Y01573*
X03316*
Y0157*
X03317*
Y01555*
X03314*
Y01591*
X03316*
Y01587*
X03317*
Y01573*
X03328*
X03328Y01573*
X03329Y01574*
X03329Y01574*
X0333Y01574*
X03331Y01574*
X03331Y01574*
X03331Y01574*
X03331Y01574*
X03332Y01575*
X03332Y01575*
X03332Y01575*
X03333Y01576*
X03333Y01576*
X03334Y01577*
X03334Y01577*
X03334Y01577*
X03334Y01577*
X03334Y01578*
X03334Y01578*
X03334Y01579*
X03334Y0158*
X03334Y0158*
Y0158*
Y01581*
X03334Y01581*
X03334Y01582*
X03334Y01582*
X03334Y01583*
X03334Y01583*
X03334Y01584*
X03333Y01584*
X03333Y01584*
X03333Y01585*
X03333Y01585*
X03333Y01585*
X03332Y01586*
X03332Y01586*
X03331Y01586*
X03331Y01587*
X03331Y01587*
X03331Y01587*
X0333Y01587*
X0333Y01587*
X03329Y01587*
X03328Y01587*
X03328Y01587*
X03317*
Y01591*
X03328*
X03329Y01591*
G37*
G36*
X03364Y01564D02*
X03368D01*
Y01561*
X03364*
Y01564*
X03361*
Y01576*
X03364*
Y01564*
G37*
G36*
X03349D02*
X03361D01*
Y01561*
X03364*
Y01555*
X03361*
Y01561*
X03345*
Y01563*
X03357Y01591*
X0336*
X03349Y01564*
G37*
G36*
X03329Y01444D02*
X03329Y01444D01*
X0333Y01444*
X03331Y01443*
X03332Y01443*
X03333Y01443*
X03333Y01443*
X03333Y01442*
X03334Y01442*
X03334Y01442*
X03335Y01441*
X03335Y01441*
X03336Y0144*
X03337Y01439*
X03337Y01439*
X03337Y01439*
X03337Y01438*
X03337Y01438*
X03337Y01437*
X03338Y01436*
X03338Y01435*
X03338Y01434*
Y01434*
Y01434*
Y01433*
Y01433*
X03338Y01433*
X03338Y01432*
X03338Y01431*
X03337Y0143*
X03337Y01429*
X03337Y01428*
X03336Y01428*
X03336Y01428*
X03336Y01428*
X03336Y01427*
X03335Y01426*
X03334Y01426*
X03334Y01425*
X03333Y01425*
X03333Y01425*
X03333Y01425*
X03332Y01424*
X03331Y01424*
X03331Y01424*
X03339Y01409*
X03335*
X03328Y01423*
X03329Y01424*
X0333Y01424*
X03331Y01424*
X03331Y01424*
X0333Y01426*
X03327Y01425*
X03328Y01423*
X03328*
X03317*
Y01427*
X03316*
Y01423*
X03317*
Y01409*
X03314*
Y01444*
X03316*
Y01441*
X03317*
Y01427*
X03328*
X03328Y01427*
X03329Y01427*
X03329Y01427*
X0333Y01427*
X03331Y01427*
X03331Y01428*
X03331Y01428*
X03331Y01428*
X03332Y01428*
X03332Y01428*
X03332Y01429*
X03333Y01429*
X03333Y01429*
X03334Y0143*
X03334Y0143*
X03334Y0143*
X03334Y01431*
X03334Y01431*
X03334Y01432*
X03334Y01432*
X03334Y01433*
X03334Y01434*
Y01434*
Y01434*
X03334Y01434*
X03334Y01435*
X03334Y01436*
X03334Y01436*
X03334Y01437*
X03334Y01437*
X03333Y01437*
X03333Y01438*
X03333Y01438*
X03333Y01438*
X03333Y01439*
X03332Y01439*
X03332Y01439*
X03331Y0144*
X03331Y0144*
X03331Y0144*
X03331Y0144*
X0333Y0144*
X0333Y0144*
X03329Y01441*
X03328Y01441*
X03328Y01441*
X03317*
Y01444*
X03328*
X03329Y01444*
G37*
G36*
X03355Y01444D02*
X03356D01*
X03356Y01444*
X03357Y01444*
X03358Y01444*
X03359Y01443*
X03361Y01443*
X03361Y01442*
X03362Y01442*
X03362*
X03362Y01442*
X03362Y01441*
X03362Y01441*
X03363Y0144*
X03363Y01439*
X03364Y01438*
X03364Y01437*
X03364Y01436*
Y01435*
Y01434*
Y01434*
Y01434*
X03364Y01433*
X03364Y01433*
X03364Y01432*
X03364Y01431*
X03363Y0143*
X03363Y0143*
X03363Y0143*
X03363Y01429*
X03362Y01429*
X03362Y01429*
X03362Y01428*
X03361Y01428*
X0336Y01427*
X0336Y01427*
X0336*
X0336Y01427*
X0336Y01427*
X03361Y01426*
X03362Y01426*
X03362Y01426*
X03363Y01425*
X03363Y01424*
X03363Y01424*
X03364Y01424*
X03364Y01423*
X03364Y01423*
X03364Y01422*
X03364Y01421*
X03365Y0142*
X03365Y01419*
Y01418*
Y01418*
Y01418*
Y01418*
Y01417*
X03365Y01417*
X03365Y01416*
X03364Y01415*
X03364Y01414*
X03364Y01413*
X03363Y01413*
X03363Y01412*
X03363Y01412*
X03363Y01412*
X03363Y01411*
X03362Y01411*
X03362Y0141*
X03361Y0141*
X0336Y01409*
X0336Y01409*
X0336Y01409*
X03359Y01409*
X03358Y01409*
X03358Y01409*
X03357Y01408*
X03356Y01408*
X03355Y01408*
X03354*
X03353Y01408*
X03353Y01408*
X03352Y01408*
X03351Y01409*
X0335Y01409*
X03349Y01409*
X03349Y01409*
X03349Y01409*
X03348Y0141*
X03348Y0141*
X03347Y0141*
X03347Y01411*
X03346Y01412*
X03346Y01412*
X03346Y01412*
X03345Y01413*
X03345Y01413*
X03345Y01414*
X03345Y01414*
X03344Y01415*
X03344Y01416*
X03344Y01417*
X03347*
Y01417*
X03347Y01417*
X03348Y01416*
X03348Y01416*
X03348Y01416*
X03348Y01415*
X03348Y01414*
X03349Y01414*
X03349Y01414*
X03349Y01414*
X03349Y01414*
X03349Y01413*
X0335Y01413*
X0335Y01413*
X0335Y01412*
X03351Y01412*
X03351*
X03351Y01412*
X03352Y01412*
X03352Y01412*
X03353Y01412*
X03353Y01412*
X03354Y01412*
X03355Y01411*
X03355*
X03355Y01412*
X03356Y01412*
X03356Y01412*
X03357Y01412*
X03358Y01412*
X03359Y01413*
X03359Y01413*
X03359Y01413*
X0336Y01413*
X0336Y01414*
X0336Y01414*
X03361Y01415*
X03361Y01416*
X03361Y01417*
X03361Y01418*
Y01419*
Y01419*
Y01419*
Y01419*
Y01419*
X03361Y0142*
X03361Y01421*
X03361Y01421*
X0336Y01422*
X0336Y01423*
X03359Y01424*
X03359Y01424*
X03359Y01424*
X03359Y01424*
X03358Y01424*
X03358Y01425*
X03357Y01425*
X03356Y01425*
X03355Y01425*
X03352*
Y01429*
X03355*
X03356Y01429*
X03356Y01429*
X03357Y01429*
X03358Y01429*
X03358Y01429*
X03359Y0143*
X03359Y0143*
X03359Y0143*
X0336Y01431*
X0336Y01431*
X0336Y01432*
X0336Y01432*
X03361Y01433*
X03361Y01434*
Y01435*
Y01435*
Y01435*
Y01436*
X03361Y01436*
X0336Y01437*
X0336Y01437*
X0336Y01438*
X0336Y01439*
X03359Y01439*
X03359Y01439*
X03359Y0144*
X03358Y0144*
X03358Y0144*
X03357Y0144*
X03356Y01441*
X03356Y01441*
X03354Y01441*
X03354*
X03354Y01441*
X03354*
X03353Y01441*
X03353Y01441*
X03352Y01441*
X03352Y0144*
X03351*
X03351Y0144*
X03351Y0144*
X03351Y0144*
X0335Y0144*
X0335Y01439*
X0335Y01439*
X03349Y01438*
X03349Y01438*
X03349Y01438*
X03349Y01438*
X03349Y01438*
X03349Y01437*
X03348Y01437*
X03348Y01436*
X03348Y01436*
X03344*
Y01436*
Y01436*
X03345Y01436*
X03345Y01437*
X03345Y01437*
X03345Y01438*
X03345Y01439*
X03346Y0144*
X03346Y0144*
X03346Y0144*
X03347Y01441*
X03347Y01441*
X03347Y01441*
X03348Y01442*
X03348Y01442*
X03349Y01443*
X0335Y01443*
X0335Y01443*
X0335Y01443*
X03351Y01444*
X03351Y01444*
X03352Y01444*
X03353Y01444*
X03354Y01444*
X03354Y01444*
X03355*
X03355Y01444*
G37*
G36*
X03565Y02499D02*
X03566Y02499D01*
X03567Y02499*
X03568Y02498*
X03569Y02498*
X0357Y02498*
X0357*
X0357Y02498*
X0357Y02497*
X03571Y02497*
X03571Y02497*
X03572Y02496*
X03572Y02495*
X03573Y02495*
X03574Y02494*
X03574Y02494*
X03574Y02493*
X03574Y02493*
X03574Y02492*
X03574Y02491*
X03575Y0249*
X03575Y02489*
X03575Y02488*
Y02488*
Y02488*
Y02488*
Y02487*
X03575Y02487*
X03575Y02486*
X03575Y02485*
X03574Y02484*
X03574Y02483*
X03574Y02482*
X03573Y02482*
X03573Y02482*
X03573Y02482*
X03573Y02481*
X03572Y0248*
X03571Y0248*
X03571Y02479*
X0357Y02479*
X0357Y02478*
X03569Y02478*
X03569Y02478*
X03568Y02478*
X03567Y02478*
X03566Y02477*
X03565Y02477*
X03564Y02477*
X03554*
Y0248*
X03553*
Y02477*
X03554*
Y02464*
X03551*
Y02499*
X03553*
Y02496*
X03554*
Y0248*
X03565*
X03565Y02481*
X03566Y02481*
X03566Y02481*
X03567Y02481*
X03567Y02481*
X03568Y02481*
X03568Y02481*
X03568Y02482*
X03569Y02482*
X03569Y02482*
X03569Y02483*
X0357Y02483*
X0357Y02483*
X0357Y02484*
X03571Y02484*
X03571Y02484*
X03571Y02485*
X03571Y02485*
X03571Y02486*
X03571Y02486*
X03571Y02487*
X03571Y02488*
Y02488*
Y02488*
X03571Y02489*
X03571Y02489*
X03571Y0249*
X03571Y02491*
X03571Y02491*
X0357Y02492*
X0357Y02492*
X0357Y02492*
X0357Y02493*
X0357Y02493*
X0357Y02493*
X03569Y02494*
X03569Y02494*
X03568Y02495*
X03568Y02495*
X03568Y02495*
X03567Y02495*
X03567Y02495*
X03566Y02495*
X03566Y02496*
X03565Y02496*
X03564Y02496*
X03554*
Y02499*
X03565*
X03565Y02499*
G37*
G36*
X03589Y02464D02*
X03586D01*
Y02496*
X03579Y02492*
Y02496*
X03584Y02499*
X03589*
Y02464*
G37*
G36*
X02869Y0236D02*
X0287Y0236D01*
X02871Y0236*
X02871Y0236*
X02872Y02359*
X02873Y02359*
X02873*
X02874Y02359*
X02874Y02359*
X02874Y02359*
X02875Y02358*
X02876Y02358*
X02876Y02357*
X02877Y02356*
X02878Y02356*
X02878Y02355*
X02878Y02355*
X02878Y02355*
X02879Y02354*
X02879Y02353*
X02879Y02352*
X0288Y02351*
X0288Y0235*
X02877*
Y0235*
X02876Y02351*
X02876Y02351*
X02876Y02351*
X02876Y02352*
X02875Y02353*
X02875Y02353*
X02875Y02354*
X02875Y02354*
X02874Y02354*
X02874Y02354*
X02874Y02355*
X02873Y02355*
X02873Y02355*
X02872Y02356*
X02871Y02356*
X02871Y02356*
X02871Y02356*
X02871Y02356*
X0287Y02357*
X0287Y02357*
X02869Y02357*
X02869Y02357*
X02868Y02357*
X02867*
X02867Y02357*
X02866Y02357*
X02865Y02357*
X02865Y02356*
X02864Y02356*
X02863Y02356*
X02863Y02356*
X02863Y02356*
X02862Y02355*
X02862Y02355*
X02862Y02354*
X02861Y02354*
X02861Y02353*
X0286Y02352*
X0286Y02352*
X0286Y02352*
X0286Y02351*
X0286Y02351*
X02859Y0235*
X02859Y02349*
X02859Y02348*
X02859Y02347*
Y02337*
Y02337*
Y02337*
Y02337*
Y02337*
X02859Y02336*
X02859Y02336*
X02859Y02335*
X02859Y02334*
X0286Y02333*
X0286Y02332*
X0286Y02332*
X0286Y02332*
X02861Y02331*
X02861Y02331*
X02861Y0233*
X02862Y0233*
X02862Y02329*
X02863Y02329*
X02863Y02329*
X02863Y02328*
X02864Y02328*
X02864Y02328*
X02865Y02328*
X02866Y02328*
X02867Y02327*
X02868Y02327*
X02868*
X02868Y02327*
X02869Y02328*
X0287Y02328*
X0287Y02328*
X02871Y02328*
X02871Y02328*
X02872Y02328*
X02872Y02328*
X02872Y02329*
X02873Y02329*
X02873Y02329*
X02874Y02329*
X02874Y0233*
X02875Y0233*
X02875Y02331*
X02875Y02331*
X02875Y02331*
X02875Y02332*
X02876Y02332*
X02876Y02333*
X02876Y02333*
X02877Y02334*
X0288*
Y02334*
X0288Y02334*
Y02334*
X0288Y02334*
X0288Y02333*
X0288Y02332*
X02879Y02332*
X02879Y02331*
X02878Y0233*
X02878Y02329*
X02878Y02329*
X02877Y02329*
X02877Y02328*
X02877Y02328*
X02876Y02327*
X02875Y02326*
X02874Y02326*
X02873Y02325*
X02873Y02325*
X02873Y02325*
X02872Y02325*
X02872Y02325*
X02871Y02325*
X0287Y02324*
X02869Y02324*
X02868Y02324*
X02867*
X02867Y02324*
X02866Y02324*
X02866Y02324*
X02865Y02325*
X02863Y02325*
X02862Y02325*
X02861Y02326*
X02861*
X02861Y02326*
X02861Y02326*
X0286Y02326*
X0286Y02327*
X02859Y02328*
X02858Y02328*
X02858Y02329*
X02857Y0233*
Y0233*
X02857Y0233*
X02857Y02331*
X02857Y02331*
X02857Y02331*
X02857Y02332*
X02856Y02332*
X02856Y02333*
X02856Y02335*
X02856Y02336*
X02855Y02337*
Y02347*
Y02347*
Y02347*
Y02347*
Y02348*
X02856Y02348*
X02856Y02348*
X02856Y02349*
X02856Y0235*
X02856Y02352*
X02857Y02353*
X02857Y02354*
Y02354*
X02857Y02354*
X02857Y02354*
X02857Y02355*
X02858Y02355*
X02858Y02356*
X02859Y02356*
X0286Y02357*
X0286Y02358*
X02861Y02359*
X02861*
X02861Y02359*
X02862Y02359*
X02862Y02359*
X02862Y02359*
X02863Y02359*
X02864Y0236*
X02865Y0236*
X02866Y0236*
X02868Y0236*
X02868*
X02869Y0236*
G37*
G36*
X02913D02*
X02913D01*
X02914Y0236*
X02915Y0236*
X02916Y0236*
X02917Y02359*
X02918Y02359*
X02919Y02358*
X02919Y02358*
X02919*
X02919Y02358*
X0292Y02357*
X0292Y02357*
X0292Y02356*
X02921Y02355*
X02921Y02354*
X02922Y02353*
X02922Y02352*
Y02351*
Y0235*
Y0235*
Y0235*
X02922Y02349*
X02922Y02349*
X02921Y02348*
X02921Y02347*
X02921Y02346*
X02921Y02346*
X0292Y02346*
X0292Y02345*
X0292Y02345*
X0292Y02345*
X02919Y02344*
X02919Y02344*
X02918Y02343*
X02917Y02343*
X02917*
X02918Y02343*
X02918Y02343*
X02919Y02342*
X02919Y02342*
X0292Y02342*
X0292Y02341*
X02921Y0234*
X02921Y0234*
X02921Y0234*
X02921Y02339*
X02922Y02339*
X02922Y02338*
X02922Y02337*
X02922Y02336*
X02922Y02335*
Y02334*
Y02334*
Y02334*
Y02334*
Y02333*
X02922Y02333*
X02922Y02332*
X02922Y02331*
X02922Y0233*
X02921Y02329*
X02921Y02329*
X02921Y02328*
X02921Y02328*
X02921Y02328*
X0292Y02327*
X0292Y02327*
X02919Y02326*
X02918Y02326*
X02918Y02325*
X02918Y02325*
X02917Y02325*
X02917Y02325*
X02916Y02325*
X02915Y02325*
X02914Y02324*
X02913Y02324*
X02912Y02324*
X02912*
X02911Y02324*
X0291Y02324*
X0291Y02324*
X02909Y02325*
X02908Y02325*
X02907Y02325*
X02907Y02325*
X02907Y02325*
X02906Y02326*
X02906Y02326*
X02905Y02326*
X02904Y02327*
X02904Y02328*
X02903Y02328*
X02903Y02328*
X02903Y02329*
X02903Y02329*
X02903Y0233*
X02902Y0233*
X02902Y02331*
X02902Y02332*
X02902Y02333*
X02905*
Y02333*
X02905Y02333*
X02905Y02332*
X02905Y02332*
X02905Y02332*
X02906Y02331*
X02906Y0233*
X02906Y0233*
X02906Y0233*
X02906Y0233*
X02907Y0233*
X02907Y02329*
X02907Y02329*
X02908Y02329*
X02908Y02328*
X02909Y02328*
X02909*
X02909Y02328*
X02909Y02328*
X0291Y02328*
X0291Y02328*
X02911Y02328*
X02911Y02328*
X02912Y02327*
X02912*
X02913Y02328*
X02913Y02328*
X02914Y02328*
X02915Y02328*
X02916Y02328*
X02916Y02329*
X02917Y02329*
X02917Y02329*
X02917Y02329*
X02918Y0233*
X02918Y0233*
X02918Y02331*
X02919Y02332*
X02919Y02333*
X02919Y02334*
Y02335*
Y02335*
Y02335*
Y02335*
Y02335*
X02919Y02336*
X02919Y02337*
X02918Y02337*
X02918Y02338*
X02918Y02339*
X02917Y0234*
X02917Y0234*
X02917Y0234*
X02916Y0234*
X02916Y0234*
X02915Y02341*
X02914Y02341*
X02913Y02341*
X02912Y02341*
X0291*
Y02345*
X02913*
X02913Y02345*
X02914Y02345*
X02915Y02345*
X02915Y02345*
X02916Y02345*
X02917Y02346*
X02917Y02346*
X02917Y02346*
X02917Y02347*
X02917Y02347*
X02918Y02348*
X02918Y02348*
X02918Y02349*
X02918Y0235*
Y02351*
Y02351*
Y02351*
Y02352*
X02918Y02352*
X02918Y02353*
X02918Y02353*
X02918Y02354*
X02917Y02355*
X02917Y02355*
X02917Y02355*
X02916Y02356*
X02916Y02356*
X02915Y02356*
X02915Y02356*
X02914Y02357*
X02913Y02357*
X02912Y02357*
X02912*
X02912Y02357*
X02911*
X02911Y02357*
X0291Y02357*
X0291Y02357*
X02909Y02356*
X02909*
X02909Y02356*
X02909Y02356*
X02908Y02356*
X02908Y02356*
X02908Y02355*
X02907Y02355*
X02907Y02354*
X02907Y02354*
X02907Y02354*
X02907Y02354*
X02906Y02354*
X02906Y02353*
X02906Y02353*
X02906Y02352*
X02906Y02352*
X02902*
Y02352*
Y02352*
X02902Y02352*
X02902Y02353*
X02903Y02353*
X02903Y02354*
X02903Y02355*
X02903Y02356*
X02904Y02356*
X02904Y02356*
X02904Y02357*
X02904Y02357*
X02905Y02357*
X02905Y02358*
X02906Y02358*
X02907Y02359*
X02907Y02359*
X02907Y02359*
X02908Y02359*
X02908Y0236*
X02909Y0236*
X02909Y0236*
X0291Y0236*
X02911Y0236*
X02912Y0236*
X02913*
X02913Y0236*
G37*
G36*
X02895Y02325D02*
X02891D01*
Y02357*
X02885Y02353*
Y02357*
X0289Y0236*
X02895*
Y02325*
G37*
G36*
X02113Y023D02*
X02114Y023D01*
X02115Y023*
X02115Y023*
X02116Y02299*
X02117Y02299*
X02117*
X02118Y02299*
X02118Y02299*
X02118Y02299*
X02119Y02298*
X0212Y02298*
X0212Y02297*
X02121Y02296*
X02122Y02296*
X02122Y02295*
X02122Y02295*
X02122Y02295*
X02123Y02294*
X02123Y02293*
X02123Y02292*
X02124Y02291*
X02124Y0229*
X02121*
Y0229*
X0212Y02291*
X0212Y02291*
X0212Y02291*
X0212Y02292*
X02119Y02293*
X02119Y02293*
X02119Y02294*
X02119Y02294*
X02118Y02294*
X02118Y02294*
X02118Y02295*
X02117Y02295*
X02117Y02295*
X02116Y02296*
X02115Y02296*
X02115Y02296*
X02115Y02296*
X02115Y02296*
X02114Y02297*
X02114Y02297*
X02113Y02297*
X02113Y02297*
X02112Y02297*
X02111*
X02111Y02297*
X0211Y02297*
X02109Y02297*
X02109Y02296*
X02108Y02296*
X02107Y02296*
X02107Y02296*
X02107Y02296*
X02106Y02295*
X02106Y02295*
X02106Y02294*
X02105Y02294*
X02105Y02293*
X02104Y02292*
X02104Y02292*
X02104Y02292*
X02104Y02291*
X02104Y02291*
X02103Y0229*
X02103Y02289*
X02103Y02288*
X02103Y02287*
Y02277*
Y02277*
Y02277*
Y02277*
Y02277*
X02103Y02276*
X02103Y02276*
X02103Y02275*
X02103Y02274*
X02104Y02273*
X02104Y02272*
X02104Y02272*
X02104Y02272*
X02105Y02271*
X02105Y02271*
X02105Y0227*
X02106Y0227*
X02106Y02269*
X02107Y02269*
X02107Y02269*
X02107Y02268*
X02108Y02268*
X02108Y02268*
X02109Y02268*
X0211Y02268*
X02111Y02267*
X02112Y02267*
X02112*
X02112Y02267*
X02113Y02268*
X02114Y02268*
X02114Y02268*
X02115Y02268*
X02115Y02268*
X02116Y02268*
X02116Y02268*
X02116Y02269*
X02117Y02269*
X02117Y02269*
X02118Y02269*
X02118Y0227*
X02119Y0227*
X02119Y02271*
X02119Y02271*
X02119Y02271*
X02119Y02272*
X0212Y02272*
X0212Y02273*
X0212Y02273*
X02121Y02274*
X02124*
Y02274*
X02124Y02274*
Y02274*
X02124Y02274*
X02124Y02273*
X02124Y02272*
X02123Y02272*
X02123Y02271*
X02122Y0227*
X02122Y02269*
X02122Y02269*
X02121Y02269*
X02121Y02268*
X02121Y02268*
X0212Y02267*
X02119Y02266*
X02118Y02266*
X02117Y02265*
X02117Y02265*
X02117Y02265*
X02116Y02265*
X02116Y02265*
X02115Y02265*
X02114Y02264*
X02113Y02264*
X02112Y02264*
X02111*
X02111Y02264*
X0211Y02264*
X0211Y02264*
X02109Y02265*
X02107Y02265*
X02106Y02265*
X02105Y02266*
X02105*
X02105Y02266*
X02105Y02266*
X02104Y02266*
X02104Y02267*
X02103Y02268*
X02102Y02268*
X02102Y02269*
X02101Y0227*
Y0227*
X02101Y0227*
X02101Y02271*
X02101Y02271*
X02101Y02271*
X02101Y02272*
X021Y02272*
X021Y02273*
X021Y02275*
X021Y02276*
X02099Y02277*
Y02287*
Y02287*
Y02287*
Y02287*
Y02288*
X021Y02288*
X021Y02288*
X021Y02289*
X021Y0229*
X021Y02292*
X02101Y02293*
X02101Y02294*
Y02294*
X02101Y02294*
X02101Y02294*
X02101Y02295*
X02102Y02295*
X02102Y02296*
X02103Y02296*
X02104Y02297*
X02104Y02298*
X02105Y02299*
X02105*
X02105Y02299*
X02106Y02299*
X02106Y02299*
X02106Y02299*
X02107Y02299*
X02108Y023*
X02109Y023*
X0211Y023*
X02112Y023*
X02112*
X02113Y023*
G37*
G36*
X02157D02*
X02158Y023D01*
X02159Y023*
X0216Y023*
X02161Y023*
X02162Y02299*
X02162Y02299*
X02162Y02299*
X02162Y02299*
X02163Y02298*
X02163Y02298*
X02164Y02297*
X02165Y02297*
X02165Y02296*
X02165Y02296*
X02165Y02296*
X02165Y02295*
X02166Y02295*
X02166Y02294*
X02166Y02293*
X02166Y02292*
X02166Y02291*
Y02291*
Y02291*
Y02291*
X02166Y0229*
X02166Y0229*
X02166Y02289*
X02166Y02289*
X02166Y02288*
X02165Y02287*
X02165Y02287*
X02165Y02287*
X02165Y02286*
X02165Y02286*
X02164Y02285*
X02164Y02284*
X02163Y02284*
X02163Y02283*
X02151Y02268*
X02166*
Y02265*
X02146*
Y02267*
X0216Y02285*
X0216Y02285*
X0216Y02285*
X0216Y02285*
X02161Y02286*
X02161Y02286*
X02161Y02287*
X02162Y02288*
X02162Y02288*
X02162Y02288*
X02162Y02288*
X02162Y02289*
X02162Y02289*
X02162Y0229*
X02162Y0229*
X02162Y02291*
X02163Y02291*
Y02291*
Y02291*
Y02292*
X02162Y02292*
X02162Y02293*
X02162Y02293*
X02162Y02294*
X02161Y02295*
X02161Y02295*
X02161Y02296*
X02161Y02296*
X0216Y02296*
X0216Y02296*
X02159Y02297*
X02158Y02297*
X02157Y02297*
X02156Y02297*
X02156*
X02155Y02297*
X02155Y02297*
X02154Y02297*
X02153Y02296*
X02152Y02296*
X02152Y02295*
X02152Y02295*
X02152Y02295*
X02151Y02295*
X02151Y02294*
X02151Y02293*
X0215Y02293*
X0215Y02292*
X0215Y02291*
X02146*
Y02291*
Y02291*
X02146Y02291*
X02146Y02291*
X02146Y02292*
X02146Y02292*
X02147Y02293*
X02147Y02294*
X02147Y02295*
X02148Y02296*
X02148Y02296*
X02148Y02296*
X02148Y02297*
X02149Y02297*
X02149Y02298*
X0215Y02298*
X02151Y02299*
X02151Y02299*
X02151Y02299*
X02152Y02299*
X02152Y023*
X02153Y023*
X02153Y023*
X02154Y023*
X02155Y023*
X02156Y023*
X02157*
X02157Y023*
G37*
G36*
X02139Y02265D02*
X02135D01*
Y02297*
X02129Y02293*
Y02297*
X02134Y023*
X02139*
Y02265*
G37*
G36*
X01713Y023D02*
X01714Y023D01*
X01715Y023*
X01715Y023*
X01716Y02299*
X01717Y02299*
X01717*
X01718Y02299*
X01718Y02299*
X01718Y02299*
X01719Y02298*
X0172Y02298*
X0172Y02297*
X01721Y02296*
X01722Y02296*
X01722Y02295*
X01722Y02295*
X01722Y02295*
X01723Y02294*
X01723Y02293*
X01723Y02292*
X01724Y02291*
X01724Y0229*
X01721*
Y0229*
X0172Y02291*
X0172Y02291*
X0172Y02291*
X0172Y02292*
X01719Y02293*
X01719Y02293*
X01719Y02294*
X01719Y02294*
X01718Y02294*
X01718Y02294*
X01718Y02295*
X01717Y02295*
X01717Y02295*
X01716Y02296*
X01715Y02296*
X01715Y02296*
X01715Y02296*
X01715Y02296*
X01714Y02297*
X01714Y02297*
X01713Y02297*
X01713Y02297*
X01712Y02297*
X01711*
X01711Y02297*
X0171Y02297*
X01709Y02297*
X01709Y02296*
X01708Y02296*
X01707Y02296*
X01707Y02296*
X01707Y02296*
X01706Y02295*
X01706Y02295*
X01706Y02294*
X01705Y02294*
X01705Y02293*
X01704Y02292*
X01704Y02292*
X01704Y02292*
X01704Y02291*
X01704Y02291*
X01703Y0229*
X01703Y02289*
X01703Y02288*
X01703Y02287*
Y02277*
Y02277*
Y02277*
Y02277*
Y02277*
X01703Y02276*
X01703Y02276*
X01703Y02275*
X01703Y02274*
X01704Y02273*
X01704Y02272*
X01704Y02272*
X01704Y02272*
X01705Y02271*
X01705Y02271*
X01705Y0227*
X01706Y0227*
X01706Y02269*
X01707Y02269*
X01707Y02269*
X01707Y02268*
X01708Y02268*
X01708Y02268*
X01709Y02268*
X0171Y02268*
X01711Y02267*
X01712Y02267*
X01712*
X01712Y02267*
X01713Y02268*
X01714Y02268*
X01714Y02268*
X01715Y02268*
X01715Y02268*
X01716Y02268*
X01716Y02268*
X01716Y02269*
X01717Y02269*
X01717Y02269*
X01718Y02269*
X01718Y0227*
X01719Y0227*
X01719Y02271*
X01719Y02271*
X01719Y02271*
X01719Y02272*
X0172Y02272*
X0172Y02273*
X0172Y02273*
X01721Y02274*
X01724*
Y02274*
X01724Y02274*
Y02274*
X01724Y02274*
X01724Y02273*
X01724Y02272*
X01723Y02272*
X01723Y02271*
X01722Y0227*
X01722Y02269*
X01722Y02269*
X01721Y02269*
X01721Y02268*
X01721Y02268*
X0172Y02267*
X01719Y02266*
X01718Y02266*
X01717Y02265*
X01717Y02265*
X01717Y02265*
X01716Y02265*
X01716Y02265*
X01715Y02265*
X01714Y02264*
X01713Y02264*
X01712Y02264*
X01711*
X01711Y02264*
X0171Y02264*
X0171Y02264*
X01709Y02265*
X01707Y02265*
X01706Y02265*
X01705Y02266*
X01705*
X01705Y02266*
X01705Y02266*
X01704Y02266*
X01704Y02267*
X01703Y02268*
X01702Y02268*
X01702Y02269*
X01701Y0227*
Y0227*
X01701Y0227*
X01701Y02271*
X01701Y02271*
X01701Y02271*
X01701Y02272*
X017Y02272*
X017Y02273*
X017Y02275*
X017Y02276*
X01699Y02277*
Y02287*
Y02287*
Y02287*
Y02287*
Y02288*
X017Y02288*
X017Y02288*
X017Y02289*
X017Y0229*
X017Y02292*
X01701Y02293*
X01701Y02294*
Y02294*
X01701Y02294*
X01701Y02294*
X01701Y02295*
X01702Y02295*
X01702Y02296*
X01703Y02296*
X01704Y02297*
X01704Y02298*
X01705Y02299*
X01705*
X01705Y02299*
X01706Y02299*
X01706Y02299*
X01706Y02299*
X01707Y02299*
X01708Y023*
X01709Y023*
X0171Y023*
X01712Y023*
X01712*
X01713Y023*
G37*
G36*
X01756Y02265D02*
X01752D01*
Y02297*
X01746Y02293*
Y02297*
X01751Y023*
X01756*
Y02265*
G37*
G36*
X01739D02*
X01735D01*
Y02297*
X01729Y02293*
Y02297*
X01734Y023*
X01739*
Y02265*
G37*
G36*
X03098Y02485D02*
X03099Y02485D01*
X031Y02485*
X031Y02485*
X03101Y02484*
X03102Y02484*
X03102*
X03103Y02484*
X03103Y02484*
X03103Y02484*
X03104Y02483*
X03105Y02483*
X03105Y02482*
X03106Y02481*
X03107Y02481*
X03107Y0248*
X03107Y0248*
X03107Y0248*
X03108Y02479*
X03108Y02478*
X03108Y02477*
X03109Y02476*
X03109Y02475*
X03106*
Y02475*
X03105Y02476*
X03105Y02476*
X03105Y02476*
X03105Y02477*
X03104Y02478*
X03104Y02478*
X03104Y02479*
X03104Y02479*
X03103Y02479*
X03103Y02479*
X03103Y0248*
X03102Y0248*
X03102Y0248*
X03101Y02481*
X031Y02481*
X031Y02481*
X031Y02481*
X031Y02481*
X03099Y02482*
X03099Y02482*
X03098Y02482*
X03098Y02482*
X03097Y02482*
X03096*
X03096Y02482*
X03095Y02482*
X03094Y02482*
X03094Y02481*
X03093Y02481*
X03092Y02481*
X03092Y02481*
X03092Y02481*
X03091Y0248*
X03091Y0248*
X03091Y02479*
X0309Y02479*
X03089Y02478*
X03089Y02477*
X03089Y02477*
X03089Y02477*
X03089Y02476*
X03089Y02476*
X03088Y02475*
X03088Y02474*
X03088Y02473*
X03088Y02472*
Y02462*
Y02462*
Y02462*
Y02462*
Y02462*
X03088Y02461*
X03088Y02461*
X03088Y0246*
X03088Y02459*
X03089Y02458*
X03089Y02457*
X03089Y02457*
X03089Y02457*
X03089Y02456*
X0309Y02456*
X0309Y02455*
X03091Y02455*
X03091Y02454*
X03092Y02454*
X03092Y02454*
X03092Y02453*
X03093Y02453*
X03093Y02453*
X03094Y02453*
X03095Y02453*
X03096Y02452*
X03097Y02452*
X03097*
X03097Y02452*
X03098Y02453*
X03099Y02453*
X03099Y02453*
X031Y02453*
X031Y02453*
X03101Y02453*
X03101Y02453*
X03101Y02454*
X03102Y02454*
X03102Y02454*
X03103Y02454*
X03103Y02455*
X03104Y02455*
X03104Y02456*
X03104Y02456*
X03104Y02456*
X03104Y02457*
X03105Y02457*
X03105Y02458*
X03105Y02458*
X03106Y02459*
X03109*
Y02459*
X03109Y02459*
Y02459*
X03109Y02459*
X03109Y02458*
X03109Y02457*
X03108Y02457*
X03108Y02456*
X03107Y02455*
X03107Y02454*
X03107Y02454*
X03106Y02454*
X03106Y02453*
X03106Y02453*
X03105Y02452*
X03104Y02451*
X03103Y02451*
X03102Y0245*
X03102Y0245*
X03102Y0245*
X03101Y0245*
X03101Y0245*
X031Y0245*
X03099Y02449*
X03098Y02449*
X03097Y02449*
X03096*
X03096Y02449*
X03095Y02449*
X03095Y02449*
X03094Y0245*
X03092Y0245*
X03091Y0245*
X0309Y02451*
X0309*
X0309Y02451*
X0309Y02451*
X03089Y02451*
X03089Y02452*
X03088Y02453*
X03087Y02453*
X03087Y02454*
X03086Y02455*
Y02455*
X03086Y02455*
X03086Y02456*
X03086Y02456*
X03086Y02456*
X03086Y02457*
X03085Y02457*
X03085Y02458*
X03085Y0246*
X03085Y02461*
X03084Y02462*
Y02472*
Y02472*
Y02472*
Y02472*
Y02473*
X03085Y02473*
X03085Y02473*
X03085Y02474*
X03085Y02475*
X03085Y02477*
X03086Y02478*
X03086Y02479*
Y02479*
X03086Y02479*
X03086Y02479*
X03086Y0248*
X03087Y0248*
X03087Y02481*
X03088Y02481*
X03089Y02482*
X03089Y02483*
X0309Y02484*
X0309*
X0309Y02484*
X03091Y02484*
X03091Y02484*
X03091Y02484*
X03092Y02484*
X03093Y02485*
X03094Y02485*
X03095Y02485*
X03097Y02485*
X03097*
X03098Y02485*
G37*
G36*
X03124Y0245D02*
X0312D01*
Y02482*
X03114Y02478*
Y02482*
X03119Y02485*
X03124*
Y0245*
G37*
G36*
X03143Y02485D02*
X03143D01*
X03144Y02485*
X03145Y02485*
X03146Y02485*
X03147Y02484*
X03149Y02484*
X03149Y02483*
X0315Y02483*
X0315Y02483*
X0315Y02483*
X0315Y02482*
X0315Y02482*
X0315Y02482*
X0315Y02482*
X03151Y02481*
X03151Y02481*
X03151Y0248*
X03151Y0248*
X03152Y02478*
X03152Y02477*
X03152Y02476*
Y02475*
Y02459*
Y02459*
Y02459*
Y02459*
X03152Y02458*
Y02458*
X03152Y02457*
X03152Y02456*
X03152Y02455*
X03151Y02454*
X0315Y02453*
X0315Y02452*
X0315Y02452*
X0315*
X03149Y02452*
X03149Y02452*
X03149Y02451*
X03149Y02451*
X03149Y02451*
X03148Y02451*
X03148Y02451*
X03147Y0245*
X03147Y0245*
X03146Y0245*
X03145Y0245*
X03145Y02449*
X03144Y02449*
X03143Y02449*
X03142Y02449*
X03142*
X03141Y02449*
X03141*
X0314Y02449*
X03139Y0245*
X03138Y0245*
X03137Y0245*
X03136Y02451*
X03135Y02451*
X03135Y02452*
Y02452*
X03134Y02452*
X03134Y02452*
X03134Y02452*
X03134Y02453*
X03134Y02453*
X03133Y02453*
X03133Y02454*
X03133Y02455*
X03132Y02456*
X03132Y02457*
X03132Y02458*
X03132Y02459*
Y02475*
Y02475*
Y02476*
Y02476*
X03132Y02476*
Y02476*
X03132Y02477*
X03132Y02478*
X03133Y02479*
X03133Y0248*
X03134Y02482*
X03134Y02482*
X03135Y02483*
X03135Y02483*
X03135Y02483*
X03135Y02483*
X03135Y02483*
X03135Y02483*
X03136Y02484*
X03136Y02484*
X03137Y02484*
X03137Y02484*
X03138Y02485*
X03138Y02485*
X03139Y02485*
X0314Y02485*
X0314Y02485*
X03141Y02485*
X03142Y02485*
X03143*
X03143Y02485*
G37*
G36*
X03098Y02338D02*
X03099Y02338D01*
X031Y02338*
X031Y02338*
X03101Y02337*
X03102Y02337*
X03102*
X03103Y02337*
X03103Y02337*
X03103Y02337*
X03104Y02336*
X03105Y02336*
X03105Y02335*
X03106Y02334*
X03107Y02334*
X03107Y02333*
X03107Y02333*
X03107Y02333*
X03108Y02332*
X03108Y02331*
X03108Y0233*
X03109Y02329*
X03109Y02328*
X03106*
Y02328*
X03105Y02329*
X03105Y02329*
X03105Y02329*
X03105Y0233*
X03104Y02331*
X03104Y02331*
X03104Y02332*
X03104Y02332*
X03103Y02332*
X03103Y02332*
X03103Y02333*
X03102Y02333*
X03102Y02333*
X03101Y02334*
X031Y02334*
X031Y02334*
X031Y02334*
X031Y02334*
X03099Y02335*
X03099Y02335*
X03098Y02335*
X03098Y02335*
X03097Y02335*
X03096*
X03096Y02335*
X03095Y02335*
X03094Y02335*
X03094Y02334*
X03093Y02334*
X03092Y02334*
X03092Y02334*
X03092Y02334*
X03091Y02333*
X03091Y02333*
X03091Y02332*
X0309Y02332*
X03089Y02331*
X03089Y0233*
X03089Y0233*
X03089Y0233*
X03089Y02329*
X03089Y02329*
X03088Y02328*
X03088Y02327*
X03088Y02326*
X03088Y02325*
Y02315*
Y02315*
Y02315*
Y02315*
Y02315*
X03088Y02314*
X03088Y02314*
X03088Y02313*
X03088Y02312*
X03089Y02311*
X03089Y0231*
X03089Y0231*
X03089Y0231*
X03089Y02309*
X0309Y02309*
X0309Y02308*
X03091Y02308*
X03091Y02307*
X03092Y02307*
X03092Y02307*
X03092Y02306*
X03093Y02306*
X03093Y02306*
X03094Y02306*
X03095Y02306*
X03096Y02305*
X03097Y02305*
X03097*
X03097Y02305*
X03098Y02306*
X03099Y02306*
X03099Y02306*
X031Y02306*
X031Y02306*
X03101Y02306*
X03101Y02306*
X03101Y02307*
X03102Y02307*
X03102Y02307*
X03103Y02308*
X03103Y02308*
X03104Y02309*
X03104Y02309*
X03104Y02309*
X03104Y02309*
X03104Y0231*
X03105Y0231*
X03105Y02311*
X03105Y02311*
X03106Y02312*
X03109*
Y02312*
X03109Y02312*
Y02312*
X03109Y02312*
X03109Y02311*
X03109Y0231*
X03108Y0231*
X03108Y02309*
X03107Y02308*
X03107Y02307*
X03107Y02307*
X03106Y02307*
X03106Y02306*
X03106Y02306*
X03105Y02305*
X03104Y02304*
X03103Y02304*
X03102Y02303*
X03102Y02303*
X03102Y02303*
X03101Y02303*
X03101Y02303*
X031Y02303*
X03099Y02302*
X03098Y02302*
X03097Y02302*
X03096*
X03096Y02302*
X03095Y02302*
X03095Y02302*
X03094Y02303*
X03092Y02303*
X03091Y02303*
X0309Y02304*
X0309*
X0309Y02304*
X0309Y02304*
X03089Y02304*
X03089Y02305*
X03088Y02306*
X03087Y02306*
X03087Y02307*
X03086Y02308*
Y02308*
X03086Y02309*
X03086Y02309*
X03086Y02309*
X03086Y02309*
X03086Y0231*
X03085Y0231*
X03085Y02311*
X03085Y02313*
X03085Y02314*
X03084Y02315*
Y02325*
Y02325*
Y02325*
Y02325*
Y02326*
X03085Y02326*
X03085Y02326*
X03085Y02327*
X03085Y02328*
X03085Y0233*
X03086Y02331*
X03086Y02332*
Y02332*
X03086Y02332*
X03086Y02332*
X03086Y02333*
X03087Y02333*
X03087Y02334*
X03088Y02334*
X03089Y02335*
X03089Y02336*
X0309Y02337*
X0309*
X0309Y02337*
X03091Y02337*
X03091Y02337*
X03091Y02337*
X03092Y02337*
X03093Y02338*
X03094Y02338*
X03095Y02338*
X03097Y02338*
X03097*
X03098Y02338*
G37*
G36*
X03126D02*
X03126Y02338D01*
X03127Y02338*
X03128Y02338*
X03129Y02337*
X0313Y02337*
X0313Y02337*
X0313Y02337*
X03131Y02336*
X03131Y02336*
X03132Y02336*
X03132Y02335*
X03133Y02334*
X03133Y02333*
X03133Y02333*
X03133Y02333*
X03134Y02332*
X03134Y02332*
X03134Y02331*
X03134Y0233*
X03134Y02329*
X03134Y02327*
Y02327*
Y02327*
Y02327*
X03134Y02326*
X03134Y02325*
X03134Y02325*
X03134Y02324*
X03134Y02323*
Y02323*
X03134Y02323*
X03134Y02322*
X03134Y02322*
X03133Y02321*
X03133Y02321*
X03133Y02319*
Y02319*
X03132Y02319*
X03132Y02319*
X03132Y02318*
Y02318*
X03132Y02318*
X03132Y02318*
X03132Y02318*
X03124Y02303*
X0312*
X03128Y02318*
X03128Y02318*
X03128Y02318*
X03127Y02318*
X03127*
X03127Y02317*
X03127Y02317*
X03126Y02317*
X03126Y02317*
X03125Y02317*
X03125Y02317*
X03123*
X03123Y02317*
X03122Y02317*
X03122Y02317*
X03121Y02318*
X0312Y02318*
X03119Y02318*
X03119Y02318*
X03119Y02319*
X03118Y02319*
X03118Y02319*
X03117Y0232*
X03117Y0232*
X03116Y02321*
X03116Y02322*
Y02322*
X03116Y02322*
X03116Y02322*
X03115Y02323*
X03115Y02324*
X03115Y02324*
X03115Y02325*
X03115Y02326*
X03115Y02327*
Y02327*
Y02328*
Y02328*
Y02328*
Y02328*
X03115Y02329*
X03115Y02329*
X03115Y0233*
X03115Y02331*
X03115Y02332*
X03116Y02333*
Y02333*
X03116Y02333*
X03116Y02334*
X03116Y02334*
X03117Y02335*
X03117Y02335*
X03118Y02336*
X03118Y02337*
X03119Y02337*
X03119Y02337*
X0312Y02337*
X0312Y02337*
X03121Y02338*
X03121Y02338*
X03122Y02338*
X03123Y02338*
X03125Y02338*
X03125*
X03126Y02338*
G37*
G36*
X03098Y02191D02*
X03099Y02191D01*
X031Y02191*
X031Y02191*
X03101Y02191*
X03102Y0219*
X03102*
X03103Y0219*
X03103Y0219*
X03103Y0219*
X03104Y02189*
X03105Y02189*
X03105Y02188*
X03106Y02188*
X03107Y02187*
X03107Y02187*
X03107Y02186*
X03107Y02186*
X03108Y02185*
X03108Y02184*
X03108Y02184*
X03109Y02183*
X03109Y02181*
X03106*
Y02182*
X03105Y02182*
X03105Y02182*
X03105Y02183*
X03105Y02183*
X03104Y02184*
X03104Y02184*
X03104Y02185*
X03104Y02185*
X03103Y02185*
X03103Y02186*
X03103Y02186*
X03102Y02186*
X03102Y02187*
X03101Y02187*
X031Y02187*
X031Y02187*
X031Y02188*
X031Y02188*
X03099Y02188*
X03099Y02188*
X03098Y02188*
X03098Y02188*
X03097Y02188*
X03096*
X03096Y02188*
X03095Y02188*
X03094Y02188*
X03094Y02188*
X03093Y02187*
X03092Y02187*
X03092Y02187*
X03092Y02187*
X03091Y02186*
X03091Y02186*
X03091Y02186*
X0309Y02185*
X03089Y02184*
X03089Y02183*
X03089Y02183*
X03089Y02183*
X03089Y02183*
X03089Y02182*
X03088Y02181*
X03088Y0218*
X03088Y02179*
X03088Y02178*
Y02169*
Y02168*
Y02168*
Y02168*
Y02168*
X03088Y02167*
X03088Y02167*
X03088Y02166*
X03088Y02165*
X03089Y02164*
X03089Y02163*
X03089Y02163*
X03089Y02163*
X03089Y02162*
X0309Y02162*
X0309Y02161*
X03091Y02161*
X03091Y0216*
X03092Y0216*
X03092Y0216*
X03092Y0216*
X03093Y02159*
X03093Y02159*
X03094Y02159*
X03095Y02159*
X03096Y02159*
X03097Y02159*
X03097*
X03097Y02159*
X03098Y02159*
X03099Y02159*
X03099Y02159*
X031Y02159*
X031Y02159*
X03101Y02159*
X03101Y0216*
X03101Y0216*
X03102Y0216*
X03102Y0216*
X03103Y02161*
X03103Y02161*
X03104Y02162*
X03104Y02162*
X03104Y02162*
X03104Y02162*
X03104Y02163*
X03105Y02163*
X03105Y02164*
X03105Y02165*
X03106Y02165*
X03109*
Y02165*
X03109Y02165*
Y02165*
X03109Y02165*
X03109Y02164*
X03109Y02164*
X03108Y02163*
X03108Y02162*
X03107Y02161*
X03107Y0216*
X03107Y0216*
X03106Y0216*
X03106Y02159*
X03106Y02159*
X03105Y02158*
X03104Y02158*
X03103Y02157*
X03102Y02157*
X03102Y02157*
X03102Y02156*
X03101Y02156*
X03101Y02156*
X031Y02156*
X03099Y02156*
X03098Y02155*
X03097Y02155*
X03096*
X03096Y02155*
X03095Y02155*
X03095Y02156*
X03094Y02156*
X03092Y02156*
X03091Y02156*
X0309Y02157*
X0309*
X0309Y02157*
X0309Y02157*
X03089Y02158*
X03089Y02158*
X03088Y02159*
X03087Y0216*
X03087Y02161*
X03086Y02162*
Y02162*
X03086Y02162*
X03086Y02162*
X03086Y02162*
X03086Y02162*
X03086Y02163*
X03085Y02164*
X03085Y02165*
X03085Y02166*
X03085Y02167*
X03084Y02169*
Y02178*
Y02178*
Y02178*
Y02179*
Y02179*
X03085Y02179*
X03085Y0218*
X03085Y02181*
X03085Y02182*
X03085Y02183*
X03086Y02184*
X03086Y02185*
Y02185*
X03086Y02185*
X03086Y02186*
X03086Y02186*
X03087Y02186*
X03087Y02187*
X03088Y02188*
X03089Y02188*
X03089Y02189*
X0309Y0219*
X0309*
X0309Y0219*
X03091Y0219*
X03091Y0219*
X03091Y0219*
X03092Y02191*
X03093Y02191*
X03094Y02191*
X03095Y02191*
X03097Y02192*
X03097*
X03098Y02191*
G37*
G36*
X03127D02*
X03128Y02191D01*
X03129Y02191*
X03129Y02191*
X0313Y02191*
X03131Y0219*
X03131Y0219*
X03132Y0219*
X03132Y0219*
X03132Y0219*
X03133Y02189*
X03134Y02189*
X03134Y02188*
X03135Y02187*
X03135Y02187*
X03135Y02187*
X03135Y02186*
X03135Y02186*
X03135Y02185*
X03136Y02184*
X03136Y02183*
X03136Y02182*
Y02182*
Y02182*
Y02181*
X03136Y02181*
X03136Y0218*
X03136Y02179*
X03135Y02179*
X03135Y02178*
X03135Y02177*
X03135Y02177*
X03134Y02177*
X03134Y02176*
X03134Y02176*
X03133Y02175*
X03133Y02175*
X03132Y02174*
X03132Y02174*
X03132*
X03132Y02174*
X03132Y02174*
X03132Y02173*
X03133Y02173*
X03134Y02173*
X03134Y02172*
X03135Y02171*
X03135Y0217*
X03135Y0217*
X03135Y0217*
X03136Y0217*
X03136Y02169*
X03136Y02168*
X03136Y02167*
X03136Y02166*
X03137Y02165*
Y02165*
Y02165*
Y02165*
Y02165*
Y02165*
X03136Y02164*
X03136Y02163*
X03136Y02162*
X03136Y02162*
X03136Y02161*
X03135Y0216*
X03135Y0216*
X03135Y02159*
X03135Y02159*
X03134Y02159*
X03134Y02158*
X03133Y02157*
X03132Y02157*
X03132Y02156*
X03131Y02156*
X03131Y02156*
X03131Y02156*
X0313Y02156*
X03129Y02156*
X03128Y02156*
X03127Y02155*
X03126Y02155*
X03125*
X03125Y02155*
X03124Y02156*
X03123Y02156*
X03122Y02156*
X03121Y02156*
X0312Y02156*
X0312Y02157*
X0312Y02157*
X03119Y02157*
X03119Y02157*
X03118Y02158*
X03117Y02158*
X03117Y02159*
X03116Y0216*
X03116Y0216*
X03116Y0216*
X03116Y02161*
X03116Y02161*
X03115Y02162*
X03115Y02163*
X03115Y02164*
X03115Y02165*
Y02165*
Y02165*
Y02165*
Y02166*
Y02166*
X03115Y02166*
X03115Y02167*
X03115Y02168*
X03116Y02169*
X03116Y0217*
X03116Y0217*
X03116Y02171*
X03117Y02171*
X03117Y02171*
X03117Y02172*
X03118Y02172*
X03118Y02173*
X03119Y02173*
X0312Y02174*
X0312Y02174*
X0312Y02174*
X03119Y02174*
X03119Y02175*
X03118Y02175*
X03118Y02176*
X03117Y02176*
X03117Y02177*
X03117Y02177*
X03117Y02178*
X03116Y02178*
X03116Y02179*
X03116Y02179*
X03116Y0218*
X03116Y02181*
X03116Y02182*
Y02182*
Y02182*
Y02182*
Y02182*
Y02183*
X03116Y02183*
X03116Y02184*
X03116Y02185*
X03116Y02186*
X03117Y02186*
X03117Y02187*
X03117Y02187*
X03117Y02188*
X03117Y02188*
X03118Y02188*
X03118Y02189*
X03119Y02189*
X0312Y0219*
X0312Y0219*
X0312Y0219*
X03121Y02191*
X03121Y02191*
X03122Y02191*
X03123Y02191*
X03124Y02191*
X03125Y02191*
X03126Y02192*
X03126*
X03127Y02191*
G37*
G36*
X03098Y02044D02*
X03099Y02044D01*
X031Y02043*
X031Y02043*
X03101Y02043*
X03102Y02043*
X03102*
X03103Y02042*
X03103Y02042*
X03103Y02042*
X03104Y02042*
X03105Y02041*
X03105Y02041*
X03106Y0204*
X03107Y02039*
X03107Y02039*
X03107Y02039*
X03107Y02038*
X03108Y02038*
X03108Y02037*
X03108Y02036*
X03109Y02035*
X03109Y02034*
X03106*
Y02034*
X03105Y02034*
X03105Y02034*
X03105Y02035*
X03105Y02035*
X03104Y02036*
X03104Y02037*
X03104Y02037*
X03104Y02037*
X03103Y02038*
X03103Y02038*
X03103Y02038*
X03102Y02039*
X03102Y02039*
X03101Y02039*
X031Y0204*
X031Y0204*
X031Y0204*
X031Y0204*
X03099Y0204*
X03099Y0204*
X03098Y0204*
X03098Y0204*
X03097Y02041*
X03096*
X03096Y0204*
X03095Y0204*
X03094Y0204*
X03094Y0204*
X03093Y0204*
X03092Y02039*
X03092Y02039*
X03092Y02039*
X03091Y02039*
X03091Y02038*
X03091Y02038*
X0309Y02037*
X03089Y02037*
X03089Y02036*
X03089Y02036*
X03089Y02035*
X03089Y02035*
X03089Y02034*
X03088Y02034*
X03088Y02033*
X03088Y02032*
X03088Y02031*
Y02021*
Y02021*
Y02021*
Y02021*
Y0202*
X03088Y0202*
X03088Y02019*
X03088Y02018*
X03088Y02017*
X03089Y02016*
X03089Y02016*
X03089Y02015*
X03089Y02015*
X03089Y02015*
X0309Y02014*
X0309Y02014*
X03091Y02013*
X03091Y02013*
X03092Y02012*
X03092Y02012*
X03092Y02012*
X03093Y02012*
X03093Y02012*
X03094Y02011*
X03095Y02011*
X03096Y02011*
X03097Y02011*
X03097*
X03097Y02011*
X03098Y02011*
X03099Y02011*
X03099Y02011*
X031Y02011*
X031Y02012*
X03101Y02012*
X03101Y02012*
X03101Y02012*
X03102Y02012*
X03102Y02013*
X03103Y02013*
X03103Y02013*
X03104Y02014*
X03104Y02014*
X03104Y02014*
X03104Y02015*
X03104Y02015*
X03105Y02016*
X03105Y02016*
X03105Y02017*
X03106Y02018*
X03109*
Y02018*
X03109Y02018*
Y02017*
X03109Y02017*
X03109Y02017*
X03109Y02016*
X03108Y02015*
X03108Y02014*
X03107Y02013*
X03107Y02012*
X03107Y02012*
X03106Y02012*
X03106Y02012*
X03106Y02011*
X03105Y02011*
X03104Y0201*
X03103Y02009*
X03102Y02009*
X03102Y02009*
X03102Y02009*
X03101Y02009*
X03101Y02008*
X031Y02008*
X03099Y02008*
X03098Y02008*
X03097Y02008*
X03096*
X03096Y02008*
X03095Y02008*
X03095Y02008*
X03094Y02008*
X03092Y02008*
X03091Y02009*
X0309Y02009*
X0309*
X0309Y02009*
X0309Y0201*
X03089Y0201*
X03089Y0201*
X03088Y02011*
X03087Y02012*
X03087Y02013*
X03086Y02014*
Y02014*
X03086Y02014*
X03086Y02014*
X03086Y02014*
X03086Y02015*
X03086Y02015*
X03085Y02016*
X03085Y02017*
X03085Y02018*
X03085Y02019*
X03084Y02021*
Y02031*
Y02031*
Y02031*
Y02031*
Y02031*
X03085Y02032*
X03085Y02032*
X03085Y02033*
X03085Y02034*
X03085Y02035*
X03086Y02036*
X03086Y02038*
Y02038*
X03086Y02038*
X03086Y02038*
X03086Y02038*
X03087Y02039*
X03087Y02039*
X03088Y0204*
X03089Y02041*
X03089Y02041*
X0309Y02042*
X0309*
X0309Y02042*
X03091Y02042*
X03091Y02042*
X03091Y02043*
X03092Y02043*
X03093Y02043*
X03094Y02044*
X03095Y02044*
X03097Y02044*
X03097*
X03098Y02044*
G37*
G36*
X03134Y0204D02*
X03125Y02008D01*
X03121*
X0313Y0204*
X03118*
Y02034*
X03114*
Y02043*
X03134*
Y0204*
G37*
G36*
X02518Y0176D02*
X02519Y0176D01*
X0252Y0176*
X0252Y0176*
X02521Y01759*
X02522Y01759*
X02522*
X02523Y01759*
X02523Y01759*
X02523Y01759*
X02524Y01758*
X02525Y01758*
X02525Y01757*
X02526Y01756*
X02527Y01756*
X02527Y01755*
X02527Y01755*
X02527Y01755*
X02528Y01754*
X02528Y01753*
X02528Y01752*
X02529Y01751*
X02529Y0175*
X02526*
Y0175*
X02525Y01751*
X02525Y01751*
X02525Y01751*
X02525Y01752*
X02524Y01753*
X02524Y01753*
X02524Y01754*
X02524Y01754*
X02523Y01754*
X02523Y01754*
X02523Y01755*
X02522Y01755*
X02522Y01755*
X02521Y01756*
X0252Y01756*
X0252Y01756*
X0252Y01756*
X0252Y01756*
X02519Y01757*
X02519Y01757*
X02518Y01757*
X02518Y01757*
X02517Y01757*
X02516*
X02516Y01757*
X02515Y01757*
X02514Y01757*
X02514Y01756*
X02513Y01756*
X02512Y01756*
X02512Y01756*
X02512Y01756*
X02511Y01755*
X02511Y01755*
X02511Y01754*
X0251Y01754*
X02509Y01753*
X02509Y01752*
X02509Y01752*
X02509Y01752*
X02509Y01751*
X02509Y01751*
X02508Y0175*
X02508Y01749*
X02508Y01748*
X02508Y01747*
Y01737*
Y01737*
Y01737*
Y01737*
Y01737*
X02508Y01736*
X02508Y01736*
X02508Y01735*
X02508Y01734*
X02509Y01733*
X02509Y01732*
X02509Y01732*
X02509Y01732*
X02509Y01731*
X0251Y01731*
X0251Y0173*
X02511Y0173*
X02511Y01729*
X02512Y01729*
X02512Y01729*
X02512Y01728*
X02513Y01728*
X02513Y01728*
X02514Y01728*
X02515Y01728*
X02516Y01727*
X02517Y01727*
X02517*
X02517Y01727*
X02518Y01728*
X02519Y01728*
X02519Y01728*
X0252Y01728*
X0252Y01728*
X02521Y01728*
X02521Y01728*
X02521Y01729*
X02522Y01729*
X02522Y01729*
X02523Y0173*
X02523Y0173*
X02524Y0173*
X02524Y01731*
X02524Y01731*
X02524Y01731*
X02524Y01732*
X02525Y01732*
X02525Y01733*
X02525Y01733*
X02526Y01734*
X02529*
Y01734*
X02529Y01734*
Y01734*
X02529Y01734*
X02529Y01733*
X02529Y01732*
X02528Y01732*
X02528Y01731*
X02527Y0173*
X02527Y01729*
X02527Y01729*
X02526Y01729*
X02526Y01728*
X02526Y01728*
X02525Y01727*
X02524Y01726*
X02523Y01726*
X02522Y01725*
X02522Y01725*
X02522Y01725*
X02521Y01725*
X02521Y01725*
X0252Y01725*
X02519Y01724*
X02518Y01724*
X02517Y01724*
X02516*
X02516Y01724*
X02515Y01724*
X02515Y01724*
X02514Y01725*
X02512Y01725*
X02511Y01725*
X0251Y01726*
X0251*
X0251Y01726*
X0251Y01726*
X02509Y01726*
X02509Y01727*
X02508Y01728*
X02507Y01728*
X02507Y01729*
X02506Y0173*
Y0173*
X02506Y0173*
X02506Y01731*
X02506Y01731*
X02506Y01731*
X02506Y01732*
X02505Y01732*
X02505Y01733*
X02505Y01735*
X02505Y01736*
X02504Y01737*
Y01747*
Y01747*
Y01747*
Y01747*
Y01748*
X02505Y01748*
X02505Y01748*
X02505Y01749*
X02505Y0175*
X02505Y01752*
X02506Y01753*
X02506Y01754*
Y01754*
X02506Y01754*
X02506Y01754*
X02506Y01755*
X02507Y01755*
X02507Y01756*
X02508Y01756*
X02509Y01757*
X02509Y01758*
X0251Y01759*
X0251*
X0251Y01759*
X02511Y01759*
X02511Y01759*
X02511Y01759*
X02512Y01759*
X02513Y0176*
X02514Y0176*
X02515Y0176*
X02517Y0176*
X02517*
X02518Y0176*
G37*
G36*
X02541Y01744D02*
X02541Y01744D01*
X02541Y01745*
X02542Y01745*
X02542Y01745*
X02542Y01745*
X02542Y01745*
X02543Y01745*
X02543Y01745*
X02544Y01745*
X02544Y01746*
X02545*
X02546Y01745*
X02547Y01745*
X02548Y01745*
X02548Y01745*
X02549Y01745*
X0255Y01744*
X0255Y01744*
X0255Y01744*
X02551Y01744*
X02551Y01743*
X02552Y01743*
X02552Y01742*
X02553Y01741*
X02553Y01741*
X02553Y01741*
X02554Y0174*
X02554Y0174*
X02554Y01739*
X02554Y01738*
X02554Y01737*
X02554Y01736*
X02554Y01735*
Y01735*
Y01735*
Y01735*
Y01734*
X02554Y01734*
X02554Y01733*
X02554Y01732*
X02554Y01731*
X02554Y0173*
X02553Y01729*
X02553Y01729*
X02553Y01729*
X02553Y01728*
X02552Y01728*
X02552Y01727*
X02551Y01727*
X02551Y01726*
X0255Y01725*
X0255Y01725*
X02549Y01725*
X02549Y01725*
X02548Y01725*
X02548Y01725*
X02547Y01724*
X02546Y01724*
X02545Y01724*
X02544*
X02543Y01724*
X02543Y01724*
X02542Y01724*
X02541Y01725*
X0254Y01725*
X02539Y01725*
X02539Y01725*
X02539Y01726*
X02538Y01726*
X02538Y01726*
X02537Y01727*
X02537Y01727*
X02536Y01728*
X02536Y01729*
Y01729*
X02536Y01729*
X02536Y01729*
X02535Y0173*
X02535Y01731*
X02535Y01731*
X02535Y01732*
X02535Y01734*
X02535Y01735*
Y01735*
Y01735*
Y01736*
X02535Y01736*
X02535Y01737*
X02535Y01737*
X02535Y01738*
X02535Y01739*
Y01739*
X02535Y01739*
X02535Y0174*
X02535Y0174*
X02536Y01741*
X02536Y01742*
X02536Y01743*
Y01743*
X02537Y01743*
X02537Y01744*
X02537Y01744*
X02537Y01744*
X02537Y01744*
X02537Y01744*
X02537Y01745*
X02545Y0176*
X02549*
X02541Y01744*
G37*
G36*
X02674Y01744D02*
X02675Y01744D01*
X02676Y01743*
X02677Y01743*
X02678Y01743*
X02679Y01742*
X02679*
X02679Y01742*
X02679Y01742*
X0268Y01742*
X0268Y01742*
X02681Y01741*
X02682Y0174*
X02682Y0174*
X02683Y01739*
X02683Y01739*
X02683Y01739*
X02684Y01738*
X02684Y01737*
X02684Y01737*
X02685Y01736*
X02685Y01735*
X02685Y01734*
X02682*
Y01734*
X02682Y01734*
X02682Y01734*
X02681Y01735*
X02681Y01735*
X02681Y01736*
X0268Y01737*
X0268Y01737*
X0268Y01737*
X0268Y01737*
X02679Y01738*
X02679Y01738*
X02679Y01738*
X02678Y01739*
X02677Y01739*
X02677Y0174*
X02677Y0174*
X02677Y0174*
X02676Y0174*
X02676Y0174*
X02675Y0174*
X02675Y0174*
X02674Y0174*
X02673Y0174*
X02673*
X02672Y0174*
X02672Y0174*
X02671Y0174*
X0267Y0174*
X02669Y0174*
X02668Y01739*
X02668Y01739*
X02668Y01739*
X02668Y01739*
X02667Y01738*
X02667Y01738*
X02666Y01737*
X02666Y01737*
X02665Y01736*
X02665Y01736*
X02665Y01735*
X02665Y01735*
X02665Y01734*
X02665Y01733*
X02664Y01733*
X02664Y01732*
X02664Y0173*
Y01721*
Y01721*
Y01721*
Y01721*
Y0172*
X02664Y0172*
X02664Y01719*
X02665Y01718*
X02665Y01717*
X02665Y01716*
X02665Y01716*
X02665Y01715*
X02666Y01715*
X02666Y01715*
X02666Y01714*
X02667Y01714*
X02667Y01713*
X02668Y01713*
X02668Y01712*
X02669Y01712*
X02669Y01712*
X02669Y01712*
X0267Y01711*
X0267Y01711*
X02671Y01711*
X02672Y01711*
X02673Y01711*
X02673*
X02674Y01711*
X02674Y01711*
X02675Y01711*
X02675Y01711*
X02676Y01711*
X02677Y01712*
X02677Y01712*
X02677Y01712*
X02677Y01712*
X02678Y01712*
X02678Y01713*
X02679Y01713*
X02679Y01713*
X0268Y01714*
X0268Y01714*
X0268Y01714*
X0268Y01715*
X02681Y01715*
X02681Y01716*
X02681Y01716*
X02682Y01717*
X02682Y01718*
X02685*
Y01718*
X02685Y01718*
Y01717*
X02685Y01717*
X02685Y01717*
X02685Y01716*
X02684Y01715*
X02684Y01714*
X02684Y01713*
X02683Y01712*
X02683Y01712*
X02683Y01712*
X02682Y01712*
X02682Y01711*
X02681Y01711*
X0268Y0171*
X0268Y01709*
X02679Y01709*
X02679Y01709*
X02678Y01709*
X02678Y01708*
X02677Y01708*
X02676Y01708*
X02675Y01708*
X02674Y01708*
X02673Y01708*
X02673*
X02672Y01708*
X02672Y01708*
X02671Y01708*
X0267Y01708*
X02669Y01708*
X02668Y01709*
X02667Y01709*
X02667*
X02667Y01709*
X02666Y0171*
X02666Y0171*
X02665Y0171*
X02664Y01711*
X02664Y01712*
X02663Y01713*
X02662Y01714*
Y01714*
X02662Y01714*
X02662Y01714*
X02662Y01714*
X02662Y01715*
X02662Y01715*
X02662Y01716*
X02661Y01717*
X02661Y01718*
X02661Y01719*
X02661Y01721*
Y0173*
Y01731*
Y01731*
Y01731*
Y01731*
X02661Y01731*
X02661Y01732*
X02661Y01733*
X02661Y01734*
X02661Y01735*
X02662Y01736*
X02662Y01737*
Y01738*
X02662Y01738*
X02662Y01738*
X02663Y01738*
X02663Y01739*
X02663Y01739*
X02664Y0174*
X02665Y01741*
X02666Y01741*
X02667Y01742*
X02667*
X02667Y01742*
X02667Y01742*
X02667Y01742*
X02668Y01743*
X02668Y01743*
X02669Y01743*
X02671Y01743*
X02672Y01744*
X02673Y01744*
X02674*
X02674Y01744*
G37*
G36*
X02711Y0174D02*
X02696D01*
Y01729*
X02696Y0173*
X02696Y0173*
X02696Y0173*
X02697Y0173*
X02697Y01731*
X02698Y01731*
X02698Y01731*
X02699Y01732*
X02699Y01732*
X02699Y01732*
X027Y01732*
X027Y01732*
X02701Y01732*
X02701Y01732*
X02702Y01732*
X02703Y01732*
X02703*
X02704Y01732*
X02704Y01732*
X02705Y01732*
X02706Y01732*
X02707Y01731*
X02707Y01731*
X02708Y01731*
X02708Y01731*
X02708Y01731*
X02709Y0173*
X02709Y0173*
X0271Y01729*
X0271Y01729*
X02711Y01728*
X02711Y01728*
X02711Y01727*
X02711Y01727*
X02711Y01726*
X02711Y01726*
X02711Y01725*
X02712Y01724*
X02712Y01723*
Y01717*
Y01717*
Y01717*
Y01717*
Y01717*
X02712Y01716*
X02711Y01716*
X02711Y01715*
X02711Y01714*
X02711Y01713*
X0271Y01712*
X0271Y01712*
X0271Y01712*
X0271Y01711*
X0271Y01711*
X02709Y0171*
X02708Y0171*
X02708Y01709*
X02707Y01709*
X02707Y01709*
X02707Y01709*
X02706Y01708*
X02705Y01708*
X02705Y01708*
X02704Y01708*
X02703Y01708*
X02702Y01708*
X02701*
X02701Y01708*
X027Y01708*
X02699Y01708*
X02698Y01708*
X02698Y01708*
X02697Y01709*
X02697Y01709*
X02696Y01709*
X02696Y01709*
X02696Y01709*
X02695Y0171*
X02694Y0171*
X02694Y01711*
X02693Y01712*
X02693Y01712*
X02693Y01712*
X02693Y01712*
X02693Y01713*
X02692Y01714*
X02692Y01715*
X02692Y01715*
X02692Y01716*
Y01717*
X02695*
Y01716*
Y01716*
Y01716*
X02695Y01716*
X02695Y01716*
X02696Y01715*
X02696Y01714*
X02696Y01714*
X02697Y01713*
X02697Y01712*
X02697Y01712*
X02697Y01712*
X02698Y01712*
X02698Y01712*
X02699Y01711*
X027Y01711*
X02701Y01711*
X02702Y01711*
X02702*
X02702Y01711*
X02703Y01711*
X02703Y01711*
X02704Y01711*
X02705Y01712*
X02706Y01712*
X02706Y01713*
X02706Y01713*
X02707Y01713*
X02707Y01713*
X02707Y01714*
X02707Y01715*
X02708Y01715*
X02708Y01716*
X02708Y01717*
Y01723*
Y01723*
Y01723*
Y01723*
Y01723*
X02708Y01724*
X02708Y01724*
X02708Y01725*
X02707Y01726*
X02707Y01727*
X02707Y01727*
X02707Y01727*
X02706Y01728*
X02706Y01728*
X02706Y01728*
X02705Y01728*
X02704Y01729*
X02703Y01729*
X02703Y01729*
X02702*
X02702Y01729*
X02701Y01729*
X02701Y01729*
X027Y01728*
X02699Y01728*
X02699Y01728*
X02699Y01728*
X02698Y01728*
X02698Y01727*
X02698Y01727*
X02697Y01727*
X02697Y01726*
X02696Y01725*
X02696Y01725*
X02692*
Y01743*
X02711*
Y0174*
G37*
G36*
X03098Y01897D02*
X03099Y01897D01*
X031Y01896*
X031Y01896*
X03101Y01896*
X03102Y01896*
X03102*
X03103Y01895*
X03103Y01895*
X03103Y01895*
X03104Y01895*
X03105Y01894*
X03105Y01894*
X03106Y01893*
X03107Y01892*
X03107Y01892*
X03107Y01892*
X03107Y01891*
X03108Y01891*
X03108Y0189*
X03108Y01889*
X03109Y01888*
X03109Y01887*
X03106*
Y01887*
X03105Y01887*
X03105Y01888*
X03105Y01888*
X03105Y01888*
X03104Y01889*
X03104Y0189*
X03104Y0189*
X03104Y0189*
X03103Y01891*
X03103Y01891*
X03103Y01891*
X03102Y01892*
X03102Y01892*
X03101Y01892*
X031Y01893*
X031Y01893*
X031Y01893*
X031Y01893*
X03099Y01893*
X03099Y01893*
X03098Y01893*
X03098Y01893*
X03097Y01894*
X03096*
X03096Y01893*
X03095Y01893*
X03094Y01893*
X03094Y01893*
X03093Y01893*
X03092Y01892*
X03092Y01892*
X03092Y01892*
X03091Y01892*
X03091Y01891*
X03091Y01891*
X0309Y0189*
X03089Y0189*
X03089Y01889*
X03089Y01889*
X03089Y01888*
X03089Y01888*
X03089Y01887*
X03088Y01887*
X03088Y01886*
X03088Y01885*
X03088Y01884*
Y01874*
Y01874*
Y01874*
Y01874*
Y01873*
X03088Y01873*
X03088Y01872*
X03088Y01871*
X03088Y0187*
X03089Y01869*
X03089Y01869*
X03089Y01868*
X03089Y01868*
X03089Y01868*
X0309Y01867*
X0309Y01867*
X03091Y01866*
X03091Y01866*
X03092Y01865*
X03092Y01865*
X03092Y01865*
X03093Y01865*
X03093Y01865*
X03094Y01864*
X03095Y01864*
X03096Y01864*
X03097Y01864*
X03097*
X03097Y01864*
X03098Y01864*
X03099Y01864*
X03099Y01864*
X031Y01864*
X031Y01865*
X03101Y01865*
X03101Y01865*
X03101Y01865*
X03102Y01865*
X03102Y01866*
X03103Y01866*
X03103Y01866*
X03104Y01867*
X03104Y01867*
X03104Y01867*
X03104Y01868*
X03104Y01868*
X03105Y01869*
X03105Y01869*
X03105Y0187*
X03106Y01871*
X03109*
Y01871*
X03109Y01871*
Y0187*
X03109Y0187*
X03109Y0187*
X03109Y01869*
X03108Y01868*
X03108Y01867*
X03107Y01866*
X03107Y01865*
X03107Y01865*
X03106Y01865*
X03106Y01865*
X03106Y01864*
X03105Y01864*
X03104Y01863*
X03103Y01862*
X03102Y01862*
X03102Y01862*
X03102Y01862*
X03101Y01862*
X03101Y01861*
X031Y01861*
X03099Y01861*
X03098Y01861*
X03097Y01861*
X03096*
X03096Y01861*
X03095Y01861*
X03095Y01861*
X03094Y01861*
X03092Y01861*
X03091Y01862*
X0309Y01862*
X0309*
X0309Y01862*
X0309Y01863*
X03089Y01863*
X03089Y01863*
X03088Y01864*
X03087Y01865*
X03087Y01866*
X03086Y01867*
Y01867*
X03086Y01867*
X03086Y01867*
X03086Y01867*
X03086Y01868*
X03086Y01868*
X03085Y01869*
X03085Y0187*
X03085Y01871*
X03085Y01872*
X03084Y01874*
Y01884*
Y01884*
Y01884*
Y01884*
Y01884*
X03085Y01885*
X03085Y01885*
X03085Y01886*
X03085Y01887*
X03085Y01888*
X03086Y01889*
X03086Y01891*
Y01891*
X03086Y01891*
X03086Y01891*
X03086Y01891*
X03087Y01892*
X03087Y01892*
X03088Y01893*
X03089Y01894*
X03089Y01894*
X0309Y01895*
X0309*
X0309Y01895*
X03091Y01895*
X03091Y01895*
X03091Y01896*
X03092Y01896*
X03093Y01896*
X03094Y01897*
X03095Y01897*
X03097Y01897*
X03097*
X03098Y01897*
G37*
G36*
X03134Y0187D02*
X03138D01*
Y01866*
X03134*
Y0187*
X03131*
Y01882*
X03134*
Y0187*
G37*
G36*
X03119D02*
X03131D01*
Y01866*
X03134*
Y01861*
X03131*
Y01866*
X03115*
Y01869*
X03127Y01896*
X0313*
X03119Y0187*
G37*
G36*
X03098Y0175D02*
X03099Y0175D01*
X031Y01749*
X031Y01749*
X03101Y01749*
X03102Y01749*
X03102*
X03103Y01748*
X03103Y01748*
X03103Y01748*
X03104Y01748*
X03105Y01747*
X03105Y01747*
X03106Y01746*
X03107Y01745*
X03107Y01745*
X03107Y01745*
X03107Y01744*
X03108Y01744*
X03108Y01743*
X03108Y01742*
X03109Y01741*
X03109Y0174*
X03106*
Y0174*
X03105Y0174*
X03105Y01741*
X03105Y01741*
X03105Y01742*
X03104Y01742*
X03104Y01743*
X03104Y01743*
X03104Y01743*
X03103Y01744*
X03103Y01744*
X03103Y01744*
X03102Y01745*
X03102Y01745*
X03101Y01745*
X031Y01746*
X031Y01746*
X031Y01746*
X031Y01746*
X03099Y01746*
X03099Y01746*
X03098Y01746*
X03098Y01747*
X03097Y01747*
X03096*
X03096Y01747*
X03095Y01746*
X03094Y01746*
X03094Y01746*
X03093Y01746*
X03092Y01745*
X03092Y01745*
X03092Y01745*
X03091Y01745*
X03091Y01744*
X03091Y01744*
X0309Y01743*
X03089Y01743*
X03089Y01742*
X03089Y01742*
X03089Y01741*
X03089Y01741*
X03089Y0174*
X03088Y0174*
X03088Y01739*
X03088Y01738*
X03088Y01737*
Y01727*
Y01727*
Y01727*
Y01727*
Y01726*
X03088Y01726*
X03088Y01725*
X03088Y01724*
X03088Y01723*
X03089Y01722*
X03089Y01722*
X03089Y01721*
X03089Y01721*
X03089Y01721*
X0309Y0172*
X0309Y0172*
X03091Y01719*
X03091Y01719*
X03092Y01718*
X03092Y01718*
X03092Y01718*
X03093Y01718*
X03093Y01718*
X03094Y01717*
X03095Y01717*
X03096Y01717*
X03097Y01717*
X03097*
X03097Y01717*
X03098Y01717*
X03099Y01717*
X03099Y01717*
X031Y01717*
X031Y01718*
X03101Y01718*
X03101Y01718*
X03101Y01718*
X03102Y01718*
X03102Y01719*
X03103Y01719*
X03103Y01719*
X03104Y0172*
X03104Y0172*
X03104Y0172*
X03104Y01721*
X03104Y01721*
X03105Y01722*
X03105Y01722*
X03105Y01723*
X03106Y01724*
X03109*
Y01724*
X03109Y01724*
Y01723*
X03109Y01723*
X03109Y01723*
X03109Y01722*
X03108Y01721*
X03108Y0172*
X03107Y01719*
X03107Y01718*
X03107Y01718*
X03106Y01718*
X03106Y01718*
X03106Y01717*
X03105Y01717*
X03104Y01716*
X03103Y01715*
X03102Y01715*
X03102Y01715*
X03102Y01715*
X03101Y01715*
X03101Y01714*
X031Y01714*
X03099Y01714*
X03098Y01714*
X03097Y01714*
X03096*
X03096Y01714*
X03095Y01714*
X03095Y01714*
X03094Y01714*
X03092Y01714*
X03091Y01715*
X0309Y01715*
X0309*
X0309Y01715*
X0309Y01716*
X03089Y01716*
X03089Y01716*
X03088Y01717*
X03087Y01718*
X03087Y01719*
X03086Y0172*
Y0172*
X03086Y0172*
X03086Y0172*
X03086Y0172*
X03086Y01721*
X03086Y01721*
X03085Y01722*
X03085Y01723*
X03085Y01724*
X03085Y01725*
X03084Y01727*
Y01737*
Y01737*
Y01737*
Y01737*
Y01737*
X03085Y01738*
X03085Y01738*
X03085Y01739*
X03085Y0174*
X03085Y01741*
X03086Y01742*
X03086Y01744*
Y01744*
X03086Y01744*
X03086Y01744*
X03086Y01744*
X03087Y01745*
X03087Y01745*
X03088Y01746*
X03089Y01747*
X03089Y01748*
X0309Y01748*
X0309*
X0309Y01748*
X03091Y01748*
X03091Y01748*
X03091Y01749*
X03092Y01749*
X03093Y01749*
X03094Y0175*
X03095Y0175*
X03097Y0175*
X03097*
X03098Y0175*
G37*
G36*
X03125D02*
X03126D01*
X03126Y0175*
X03127Y0175*
X03128Y01749*
X03129Y01749*
X03131Y01748*
X03131Y01748*
X03132Y01747*
X03132*
X03132Y01747*
X03132Y01747*
X03132Y01746*
X03133Y01746*
X03133Y01745*
X03134Y01744*
X03134Y01742*
X03134Y01741*
Y01741*
Y0174*
Y01739*
Y01739*
X03134Y01739*
X03134Y01738*
X03134Y01737*
X03134Y01737*
X03133Y01736*
X03133Y01735*
X03133Y01735*
X03133Y01735*
X03132Y01735*
X03132Y01734*
X03132Y01734*
X03131Y01733*
X0313Y01733*
X0313Y01733*
X0313*
X0313Y01732*
X0313Y01732*
X03131Y01732*
X03132Y01732*
X03132Y01731*
X03133Y01731*
X03133Y0173*
X03133Y0173*
X03134Y01729*
X03134Y01729*
X03134Y01728*
X03134Y01728*
X03135Y01727*
X03135Y01726*
X03135Y01724*
Y01723*
Y01723*
Y01723*
Y01723*
Y01723*
X03135Y01722*
X03135Y01722*
X03134Y01721*
X03134Y0172*
X03134Y01719*
X03134Y01718*
X03133Y01718*
X03133Y01718*
X03133Y01717*
X03133Y01717*
X03132Y01716*
X03132Y01716*
X03131Y01715*
X0313Y01715*
X0313Y01715*
X0313Y01715*
X03129Y01714*
X03129Y01714*
X03128Y01714*
X03127Y01714*
X03126Y01714*
X03125Y01714*
X03124*
X03124Y01714*
X03123Y01714*
X03122Y01714*
X03121Y01714*
X0312Y01714*
X03119Y01715*
X03119Y01715*
X03119Y01715*
X03119Y01715*
X03118Y01715*
X03117Y01716*
X03117Y01716*
X03116Y01717*
X03116Y01718*
X03116Y01718*
X03115Y01718*
X03115Y01719*
X03115Y01719*
X03115Y0172*
X03114Y01721*
X03114Y01722*
X03114Y01723*
X03117*
Y01723*
X03118Y01722*
X03118Y01722*
X03118Y01722*
X03118Y01721*
X03118Y01721*
X03118Y0172*
X03119Y0172*
X03119Y01719*
X03119Y01719*
X03119Y01719*
X03119Y01719*
X0312Y01718*
X0312Y01718*
X03121Y01718*
X03121Y01718*
X03121*
X03121Y01717*
X03122Y01717*
X03122Y01717*
X03123Y01717*
X03123Y01717*
X03124Y01717*
X03125Y01717*
X03125*
X03125Y01717*
X03126Y01717*
X03126Y01717*
X03127Y01717*
X03128Y01718*
X03129Y01718*
X03129Y01719*
X0313Y01719*
X0313Y01719*
X0313Y01719*
X0313Y0172*
X03131Y01721*
X03131Y01721*
X03131Y01722*
X03131Y01723*
Y01725*
Y01725*
Y01725*
Y01725*
Y01725*
X03131Y01726*
X03131Y01726*
X03131Y01727*
X03131Y01728*
X0313Y01728*
X0313Y01729*
X03129Y01729*
X03129Y01729*
X03129Y0173*
X03128Y0173*
X03128Y0173*
X03127Y01731*
X03126Y01731*
X03125Y01731*
X03122*
Y01734*
X03125*
X03126Y01734*
X03126Y01734*
X03127Y01734*
X03128Y01735*
X03128Y01735*
X03129Y01736*
X03129Y01736*
X03129Y01736*
X0313Y01736*
X0313Y01737*
X0313Y01737*
X0313Y01738*
X03131Y01739*
X03131Y0174*
Y01741*
Y01741*
Y01741*
Y01741*
X03131Y01742*
X0313Y01742*
X0313Y01743*
X0313Y01744*
X0313Y01744*
X03129Y01745*
X03129Y01745*
X03129Y01745*
X03128Y01745*
X03128Y01746*
X03127Y01746*
X03126Y01746*
X03126Y01746*
X03125Y01747*
X03124*
X03124Y01746*
X03124*
X03123Y01746*
X03123Y01746*
X03122Y01746*
X03122Y01746*
X03122*
X03121Y01746*
X03121Y01746*
X03121Y01745*
X0312Y01745*
X0312Y01745*
X0312Y01744*
X03119Y01744*
X03119Y01744*
X03119Y01744*
X03119Y01744*
X03119Y01743*
X03119Y01743*
X03118Y01742*
X03118Y01742*
X03118Y01741*
X03115*
Y01741*
Y01741*
X03115Y01742*
X03115Y01742*
X03115Y01743*
X03115Y01744*
X03115Y01744*
X03116Y01745*
X03116Y01746*
X03116Y01746*
X03117Y01746*
X03117Y01747*
X03117Y01747*
X03118Y01747*
X03118Y01748*
X03119Y01748*
X0312Y01749*
X0312Y01749*
X0312Y01749*
X03121Y01749*
X03121Y01749*
X03122Y01749*
X03123Y0175*
X03124Y0175*
X03125Y0175*
X03125*
X03125Y0175*
G37*
G36*
X03098Y01603D02*
X03099Y01603D01*
X031Y01603*
X031Y01603*
X03101Y01603*
X03102Y01602*
X03102*
X03103Y01602*
X03103Y01602*
X03103Y01602*
X03104Y01601*
X03105Y01601*
X03105Y016*
X03106Y01599*
X03107Y01599*
X03107Y01598*
X03107Y01598*
X03107Y01598*
X03108Y01597*
X03108Y01596*
X03108Y01595*
X03109Y01594*
X03109Y01593*
X03106*
Y01593*
X03105Y01594*
X03105Y01594*
X03105Y01594*
X03105Y01595*
X03104Y01596*
X03104Y01596*
X03104Y01597*
X03104Y01597*
X03103Y01597*
X03103Y01597*
X03103Y01598*
X03102Y01598*
X03102Y01598*
X03101Y01599*
X031Y01599*
X031Y01599*
X031Y01599*
X031Y01599*
X03099Y016*
X03099Y016*
X03098Y016*
X03098Y016*
X03097Y016*
X03096*
X03096Y016*
X03095Y016*
X03094Y016*
X03094Y016*
X03093Y01599*
X03092Y01599*
X03092Y01599*
X03092Y01599*
X03091Y01598*
X03091Y01598*
X03091Y01597*
X0309Y01597*
X03089Y01596*
X03089Y01595*
X03089Y01595*
X03089Y01595*
X03089Y01594*
X03089Y01594*
X03088Y01593*
X03088Y01592*
X03088Y01591*
X03088Y0159*
Y0158*
Y0158*
Y0158*
Y0158*
Y0158*
X03088Y01579*
X03088Y01579*
X03088Y01578*
X03088Y01577*
X03089Y01576*
X03089Y01575*
X03089Y01575*
X03089Y01575*
X03089Y01574*
X0309Y01574*
X0309Y01573*
X03091Y01573*
X03091Y01572*
X03092Y01572*
X03092Y01572*
X03092Y01571*
X03093Y01571*
X03093Y01571*
X03094Y01571*
X03095Y01571*
X03096Y0157*
X03097Y0157*
X03097*
X03097Y0157*
X03098Y01571*
X03099Y01571*
X03099Y01571*
X031Y01571*
X031Y01571*
X03101Y01571*
X03101Y01571*
X03101Y01572*
X03102Y01572*
X03102Y01572*
X03103Y01573*
X03103Y01573*
X03104Y01574*
X03104Y01574*
X03104Y01574*
X03104Y01574*
X03104Y01575*
X03105Y01575*
X03105Y01576*
X03105Y01576*
X03106Y01577*
X03109*
Y01577*
X03109Y01577*
Y01577*
X03109Y01577*
X03109Y01576*
X03109Y01575*
X03108Y01575*
X03108Y01574*
X03107Y01573*
X03107Y01572*
X03107Y01572*
X03106Y01572*
X03106Y01571*
X03106Y01571*
X03105Y0157*
X03104Y01569*
X03103Y01569*
X03102Y01568*
X03102Y01568*
X03102Y01568*
X03101Y01568*
X03101Y01568*
X031Y01568*
X03099Y01567*
X03098Y01567*
X03097Y01567*
X03096*
X03096Y01567*
X03095Y01567*
X03095Y01567*
X03094Y01568*
X03092Y01568*
X03091Y01568*
X0309Y01569*
X0309*
X0309Y01569*
X0309Y01569*
X03089Y01569*
X03089Y0157*
X03088Y01571*
X03087Y01571*
X03087Y01572*
X03086Y01573*
Y01573*
X03086Y01574*
X03086Y01574*
X03086Y01574*
X03086Y01574*
X03086Y01575*
X03085Y01575*
X03085Y01576*
X03085Y01578*
X03085Y01579*
X03084Y0158*
Y0159*
Y0159*
Y0159*
Y0159*
Y01591*
X03085Y01591*
X03085Y01592*
X03085Y01592*
X03085Y01594*
X03085Y01595*
X03086Y01596*
X03086Y01597*
Y01597*
X03086Y01597*
X03086Y01597*
X03086Y01598*
X03087Y01598*
X03087Y01599*
X03088Y016*
X03089Y016*
X03089Y01601*
X0309Y01602*
X0309*
X0309Y01602*
X03091Y01602*
X03091Y01602*
X03091Y01602*
X03092Y01603*
X03093Y01603*
X03094Y01603*
X03095Y01603*
X03097Y01603*
X03097*
X03098Y01603*
G37*
G36*
X03126D02*
X03127Y01603D01*
X03127Y01603*
X03128Y01603*
X03129Y01603*
X0313Y01602*
X0313Y01602*
X0313Y01602*
X03131Y01602*
X03131Y01601*
X03132Y01601*
X03132Y016*
X03133Y016*
X03133Y01599*
X03134Y01599*
X03134Y01599*
X03134Y01598*
X03134Y01598*
X03134Y01597*
X03135Y01596*
X03135Y01595*
X03135Y01594*
Y01594*
Y01594*
Y01594*
X03135Y01593*
X03135Y01593*
X03134Y01592*
X03134Y01592*
X03134Y01591*
X03134Y0159*
X03134Y0159*
X03134Y0159*
X03133Y01589*
X03133Y01589*
X03133Y01588*
X03132Y01588*
X03132Y01587*
X03131Y01586*
X03119Y01571*
X03135*
Y01568*
X03115*
Y0157*
X03128Y01588*
X03128Y01588*
X03128Y01588*
X03129Y01588*
X03129Y01589*
X03129Y01589*
X0313Y0159*
X0313Y01591*
X0313Y01591*
X0313Y01591*
X0313Y01591*
X0313Y01592*
X03131Y01592*
X03131Y01593*
X03131Y01593*
X03131Y01594*
X03131Y01594*
Y01594*
Y01594*
Y01595*
X03131Y01595*
X03131Y01596*
X03131Y01596*
X0313Y01597*
X0313Y01598*
X03129Y01599*
X03129Y01599*
X03129Y01599*
X03129Y01599*
X03128Y01599*
X03127Y016*
X03127Y016*
X03126Y016*
X03125Y016*
X03124*
X03124Y016*
X03123Y016*
X03122Y016*
X03122Y01599*
X03121Y01599*
X0312Y01598*
X0312Y01598*
X0312Y01598*
X0312Y01598*
X03119Y01597*
X03119Y01597*
X03119Y01596*
X03118Y01595*
X03118Y01594*
X03114*
Y01594*
Y01594*
X03114Y01594*
X03115Y01594*
X03115Y01595*
X03115Y01595*
X03115Y01596*
X03115Y01597*
X03116Y01598*
X03116Y01599*
X03116Y01599*
X03116Y01599*
X03117Y016*
X03117Y016*
X03118Y01601*
X03118Y01601*
X03119Y01602*
X0312Y01602*
X0312Y01602*
X0312Y01602*
X03121Y01603*
X03121Y01603*
X03122Y01603*
X03123Y01603*
X03124Y01603*
X03125Y01603*
X03125*
X03126Y01603*
G37*
G36*
X03098Y01456D02*
X03099Y01456D01*
X031Y01456*
X031Y01456*
X03101Y01455*
X03102Y01455*
X03102*
X03103Y01455*
X03103Y01455*
X03103Y01454*
X03104Y01454*
X03105Y01454*
X03105Y01453*
X03106Y01452*
X03107Y01451*
X03107Y01451*
X03107Y01451*
X03107Y01451*
X03108Y0145*
X03108Y01449*
X03108Y01448*
X03109Y01447*
X03109Y01446*
X03106*
Y01446*
X03105Y01446*
X03105Y01447*
X03105Y01447*
X03105Y01448*
X03104Y01448*
X03104Y01449*
X03104Y0145*
X03104Y0145*
X03103Y0145*
X03103Y0145*
X03103Y01451*
X03102Y01451*
X03102Y01451*
X03101Y01452*
X031Y01452*
X031Y01452*
X031Y01452*
X031Y01452*
X03099Y01452*
X03099Y01453*
X03098Y01453*
X03098Y01453*
X03097Y01453*
X03096*
X03096Y01453*
X03095Y01453*
X03094Y01453*
X03094Y01452*
X03093Y01452*
X03092Y01452*
X03092Y01452*
X03092Y01451*
X03091Y01451*
X03091Y01451*
X03091Y0145*
X0309Y0145*
X03089Y01449*
X03089Y01448*
X03089Y01448*
X03089Y01448*
X03089Y01447*
X03089Y01447*
X03088Y01446*
X03088Y01445*
X03088Y01444*
X03088Y01443*
Y01433*
Y01433*
Y01433*
Y01433*
Y01433*
X03088Y01432*
X03088Y01431*
X03088Y01431*
X03088Y0143*
X03089Y01429*
X03089Y01428*
X03089Y01428*
X03089Y01428*
X03089Y01427*
X0309Y01427*
X0309Y01426*
X03091Y01426*
X03091Y01425*
X03092Y01424*
X03092Y01424*
X03092Y01424*
X03093Y01424*
X03093Y01424*
X03094Y01424*
X03095Y01423*
X03096Y01423*
X03097Y01423*
X03097*
X03097Y01423*
X03098Y01423*
X03099Y01423*
X03099Y01424*
X031Y01424*
X031Y01424*
X03101Y01424*
X03101Y01424*
X03101Y01424*
X03102Y01425*
X03102Y01425*
X03103Y01425*
X03103Y01426*
X03104Y01426*
X03104Y01426*
X03104Y01427*
X03104Y01427*
X03104Y01427*
X03105Y01428*
X03105Y01429*
X03105Y01429*
X03106Y0143*
X03109*
Y0143*
X03109Y0143*
Y0143*
X03109Y0143*
X03109Y01429*
X03109Y01428*
X03108Y01427*
X03108Y01427*
X03107Y01426*
X03107Y01425*
X03107Y01425*
X03106Y01424*
X03106Y01424*
X03106Y01423*
X03105Y01423*
X03104Y01422*
X03103Y01422*
X03102Y01421*
X03102Y01421*
X03102Y01421*
X03101Y01421*
X03101Y01421*
X031Y0142*
X03099Y0142*
X03098Y0142*
X03097Y0142*
X03096*
X03096Y0142*
X03095Y0142*
X03095Y0142*
X03094Y0142*
X03092Y01421*
X03091Y01421*
X0309Y01422*
X0309*
X0309Y01422*
X0309Y01422*
X03089Y01422*
X03089Y01423*
X03088Y01423*
X03087Y01424*
X03087Y01425*
X03086Y01426*
Y01426*
X03086Y01426*
X03086Y01427*
X03086Y01427*
X03086Y01427*
X03086Y01427*
X03085Y01428*
X03085Y01429*
X03085Y0143*
X03085Y01432*
X03084Y01433*
Y01443*
Y01443*
Y01443*
Y01443*
Y01444*
X03085Y01444*
X03085Y01444*
X03085Y01445*
X03085Y01446*
X03085Y01448*
X03086Y01449*
X03086Y0145*
Y0145*
X03086Y0145*
X03086Y0145*
X03086Y0145*
X03087Y01451*
X03087Y01452*
X03088Y01452*
X03089Y01453*
X03089Y01454*
X0309Y01455*
X0309*
X0309Y01455*
X03091Y01455*
X03091Y01455*
X03091Y01455*
X03092Y01455*
X03093Y01456*
X03094Y01456*
X03095Y01456*
X03097Y01456*
X03097*
X03098Y01456*
G37*
G36*
X03124Y0142D02*
X0312D01*
Y01453*
X03114Y01449*
Y01452*
X03119Y01456*
X03124*
Y0142*
G37*
%LNpcb1-2*%
%LPC*%
%SRX1Y1I0J0*%
G36*
X03237Y02111D02*
X03237Y02111D01*
X03237Y02111*
X03237Y0211*
X03236Y0211*
X03236Y0211*
X03236Y0211*
Y02109*
X03237Y02111*
G37*
G36*
X03241Y02109D02*
X03241D01*
X0324Y02109*
X0324Y02109*
X03239Y02109*
X03239Y02109*
X03238Y02108*
X03237Y02108*
X03236Y02107*
X03236Y02107*
X03236Y02107*
X03236Y02106*
X03236Y02106*
X03235Y02105*
X03235Y02104*
X03235Y02103*
X03235Y02101*
Y02101*
Y02101*
Y02101*
Y02101*
X03235Y02101*
X03235Y021*
X03235Y02099*
X03235Y02099*
X03236Y02098*
X03236Y02097*
X03236Y02096*
X03237Y02096*
X03237Y02096*
X03237Y02096*
X03238Y02095*
X03238Y02095*
X03239Y02095*
X0324Y02094*
X03241Y02094*
X03241*
X03242Y02094*
X03242Y02094*
X03243Y02095*
X03244Y02095*
X03244Y02095*
X03245Y02096*
X03246Y02096*
X03246Y02096*
X03246Y02097*
X03246Y02097*
X03247Y02098*
X03247Y02098*
X03247Y02099*
X03247Y021*
X03247Y02101*
Y02101*
Y02102*
Y02102*
Y02102*
X03247Y02103*
X03247Y02104*
X03247Y02104*
X03247Y02105*
X03246Y02106*
X03246Y02107*
X03246Y02107*
X03245Y02107*
X03245Y02108*
X03245Y02108*
X03244Y02108*
X03243Y02109*
X03242Y02109*
X03241Y02109*
G37*
G36*
X01709Y01812D02*
X01709Y01812D01*
X01709Y01812*
X01709Y01812*
X01708Y01811*
X01708Y01811*
X01708Y01811*
Y0181*
X01709Y01812*
G37*
G36*
X01713Y0181D02*
X01713D01*
X01712Y0181*
X01712Y0181*
X01711Y0181*
X0171Y0181*
X0171Y01809*
X01709Y01809*
X01708Y01808*
X01708Y01808*
X01708Y01808*
X01708Y01807*
X01708Y01807*
X01707Y01806*
X01707Y01805*
X01707Y01804*
X01707Y01803*
Y01802*
Y01802*
Y01802*
Y01802*
X01707Y01802*
X01707Y01801*
X01707Y01801*
X01707Y018*
X01707Y01799*
X01708Y01798*
X01708Y01797*
X01708Y01797*
X01709Y01797*
X01709Y01797*
X0171Y01796*
X0171Y01796*
X01711Y01796*
X01712Y01796*
X01713Y01795*
X01713*
X01714Y01796*
X01714Y01796*
X01715Y01796*
X01716Y01796*
X01716Y01796*
X01717Y01797*
X01718Y01797*
X01718Y01797*
X01718Y01798*
X01718Y01798*
X01719Y01799*
X01719Y01799*
X01719Y018*
X01719Y01801*
X01719Y01803*
Y01803*
Y01803*
Y01803*
Y01803*
X01719Y01804*
X01719Y01805*
X01719Y01806*
X01719Y01806*
X01718Y01807*
X01718Y01808*
X01718Y01808*
X01717Y01809*
X01717Y01809*
X01716Y01809*
X01716Y0181*
X01715Y0181*
X01714Y0181*
X01713Y0181*
G37*
G36*
X03373Y02466D02*
X03372D01*
X03372Y02466*
X03371Y02466*
X0337Y02466*
X03369Y02465*
X03368Y02465*
X03368Y02464*
X03368Y02464*
X03367Y02464*
X03367Y02464*
X03367Y02463*
X03367Y02462*
X03366Y02461*
X03366Y0246*
X03366Y02459*
Y02443*
Y02443*
Y02443*
Y02443*
Y02443*
X03366Y02442*
X03366Y02441*
X03366Y02441*
X03367Y0244*
X03367Y02439*
X03368Y02438*
X03368Y02438*
X03368Y02438*
X03368Y02438*
X03369Y02437*
X0337Y02437*
X0337Y02437*
X03372Y02436*
X03373Y02436*
X03373*
X03373Y02436*
X03374Y02437*
X03375Y02437*
X03375Y02437*
X03376Y02437*
X03377Y02438*
X03378Y02438*
X03378Y02438*
X03378Y02438*
X03378Y02439*
X03379Y02439*
X03379Y0244*
X03379Y02441*
X03379Y02442*
X03379Y02443*
Y02459*
Y02459*
Y02459*
Y0246*
Y0246*
X03379Y0246*
X03379Y02461*
X03379Y02462*
X03379Y02463*
X03378Y02464*
X03378Y02464*
X03378Y02464*
X03377Y02465*
X03377Y02465*
X03376Y02465*
X03376Y02466*
X03375Y02466*
X03374Y02466*
X03373Y02466*
G37*
G36*
X03355Y0232D02*
X03355D01*
X03355Y02319*
X03354Y02319*
X03353Y02319*
X03353Y02319*
X03352Y02319*
X03351Y02318*
X0335Y02318*
X0335Y02317*
X0335Y02317*
X0335Y02317*
X0335Y02316*
X03349Y02315*
X03349Y02315*
X03349Y02313*
X03349Y02312*
Y02312*
Y02312*
Y02312*
Y02312*
X03349Y02312*
X03349Y02311*
X03349Y0231*
X03349Y02309*
X03349Y02308*
X0335Y02308*
X0335Y02307*
X0335Y02307*
X03351Y02307*
X03351Y02306*
X03352Y02306*
X03352Y02306*
X03353Y02305*
X03354Y02305*
X03355Y02305*
X03355*
X03356Y02305*
X03356Y02305*
X03357Y02305*
X03358Y02305*
X03358Y02306*
X03359Y02306*
X0336Y02307*
X0336Y02307*
X0336Y02307*
X0336Y02308*
X03361Y02308*
X03361Y02309*
X03361Y0231*
X03361Y02311*
X03361Y02312*
Y02312*
Y02312*
Y02313*
Y02313*
X03361Y02313*
X03361Y02314*
X03361Y02315*
X03361Y02316*
X0336Y02317*
X0336Y02318*
X0336Y02318*
X0336Y02318*
X03359Y02318*
X03359Y02319*
X03358Y02319*
X03357Y02319*
X03356Y02319*
X03355Y0232*
G37*
G36*
X0336Y02305D02*
X03359Y02303D01*
X03359Y02303*
X0336Y02303*
X0336Y02303*
X0336Y02304*
X0336Y02304*
Y02304*
Y02305*
G37*
G36*
X03356Y02173D02*
X03355D01*
X03355Y02173*
X03354Y02173*
X03354Y02173*
X03353Y02173*
X03353Y02173*
X03352Y02173*
X03352Y02172*
X03352Y02172*
X03351Y02172*
X03351Y02172*
X03351Y02172*
X0335Y02171*
X0335Y02171*
X0335Y0217*
X0335Y0217*
X0335Y0217*
X03349Y0217*
X03349Y0217*
X03349Y02169*
X03349Y02168*
X03349Y02168*
X03349Y02167*
Y02167*
Y02167*
Y02166*
X03349Y02166*
X03349Y02166*
X03349Y02165*
X03349Y02164*
X03349Y02164*
X0335Y02163*
X0335Y02163*
X0335Y02163*
X0335Y02163*
X0335Y02162*
X03351Y02162*
X03351Y02162*
X03351Y02161*
X03352Y02161*
X03352Y02161*
X03352Y02161*
X03353Y02161*
X03353Y02161*
X03353Y0216*
X03354Y0216*
X03355Y0216*
X03356Y0216*
X03356*
X03356Y0216*
X03357Y0216*
X03357Y0216*
X03358Y02161*
X03359Y02161*
X03359Y02161*
X03359Y02161*
X03359Y02161*
X0336Y02161*
X0336Y02162*
X0336Y02162*
X03361Y02162*
X03361Y02163*
X03361Y02163*
X03361Y02163*
X03361Y02163*
X03362Y02164*
X03362Y02164*
X03362Y02165*
X03362Y02165*
X03362Y02166*
X03362Y02167*
Y02167*
Y02167*
Y02167*
X03362Y02168*
X03362Y02168*
X03362Y02169*
X03362Y02169*
X03362Y0217*
X03361Y0217*
X03361Y02171*
X03361Y02171*
X03361Y02171*
X03361Y02171*
X0336Y02172*
X0336Y02172*
X0336Y02172*
X03359Y02173*
X03359Y02173*
X03359Y02173*
X03359Y02173*
X03358Y02173*
X03358Y02173*
X03357Y02173*
X03356Y02173*
X03356Y02173*
G37*
G36*
Y02157D02*
X03355D01*
X03355Y02157*
X03354Y02157*
X03354Y02157*
X03353Y02157*
X03352Y02157*
X03352Y02156*
X03352Y02156*
X03351Y02156*
X03351Y02156*
X03351Y02156*
X0335Y02155*
X0335Y02155*
X0335Y02155*
X03349Y02154*
X03349Y02154*
X03349Y02154*
X03349Y02153*
X03349Y02153*
X03349Y02152*
X03349Y02152*
X03348Y02151*
X03348Y0215*
Y0215*
Y0215*
Y0215*
X03348Y02149*
X03349Y02149*
X03349Y02148*
X03349Y02148*
X03349Y02147*
X03349Y02147*
X03349Y02146*
X03349Y02146*
X0335Y02146*
X0335Y02146*
X0335Y02145*
X03351Y02145*
X03351Y02145*
X03352Y02144*
X03352Y02144*
X03352Y02144*
X03352Y02144*
X03353Y02144*
X03353Y02144*
X03354Y02144*
X03355Y02143*
X03356Y02143*
X03356*
X03356Y02143*
X03357Y02144*
X03357Y02144*
X03358Y02144*
X03359Y02144*
X03359Y02144*
X03359Y02144*
X0336Y02144*
X0336Y02145*
X0336Y02145*
X03361Y02145*
X03361Y02146*
X03361Y02146*
X03362Y02147*
X03362Y02147*
X03362Y02147*
X03362Y02147*
X03362Y02148*
X03362Y02148*
X03363Y02149*
X03363Y02149*
X03363Y0215*
Y0215*
Y0215*
Y02151*
X03363Y02151*
X03363Y02152*
X03362Y02152*
X03362Y02153*
X03362Y02153*
X03362Y02154*
X03362Y02154*
X03362Y02154*
X03361Y02155*
X03361Y02155*
X03361Y02155*
X0336Y02156*
X0336Y02156*
X03359Y02156*
X03359Y02156*
X03359Y02156*
X03359Y02157*
X03358Y02157*
X03358Y02157*
X03357Y02157*
X03356Y02157*
X03356Y02157*
G37*
G36*
X03351Y01867D02*
X03351Y01867D01*
X03351Y01867*
X03351Y01867*
X0335Y01867*
X0335Y01866*
X0335Y01866*
Y01866*
X03351Y01867*
G37*
G36*
X03355Y01865D02*
X03355D01*
X03354Y01865*
X03354Y01865*
X03353Y01865*
X03352Y01865*
X03352Y01865*
X03351Y01864*
X0335Y01863*
X0335Y01863*
X0335Y01863*
X0335Y01863*
X0335Y01862*
X03349Y01861*
X03349Y0186*
X03349Y01859*
X03349Y01858*
Y01858*
Y01858*
Y01858*
Y01857*
X03349Y01857*
X03349Y01857*
X03349Y01856*
X03349Y01855*
X03349Y01854*
X0335Y01853*
X0335Y01853*
X0335Y01853*
X03351Y01852*
X03351Y01852*
X03352Y01852*
X03352Y01851*
X03353Y01851*
X03354Y01851*
X03355Y01851*
X03355*
X03356Y01851*
X03356Y01851*
X03357Y01851*
X03358Y01851*
X03358Y01852*
X03359Y01852*
X0336Y01853*
X0336Y01853*
X0336Y01853*
X0336Y01853*
X03361Y01854*
X03361Y01855*
X03361Y01856*
X03361Y01857*
X03361Y01858*
Y01858*
Y01858*
Y01858*
Y01858*
X03361Y01859*
X03361Y0186*
X03361Y01861*
X03361Y01862*
X0336Y01863*
X0336Y01863*
X0336Y01864*
X03359Y01864*
X03359Y01864*
X03358Y01864*
X03358Y01865*
X03357Y01865*
X03356Y01865*
X03355Y01865*
G37*
G36*
X03142Y02482D02*
X03142D01*
X03141Y02482*
X0314Y02482*
X03139Y02482*
X03139Y02481*
X03138Y02481*
X03137Y0248*
X03137Y0248*
X03137Y0248*
X03137Y0248*
X03136Y02479*
X03136Y02478*
X03136Y02477*
X03136Y02476*
X03136Y02475*
Y02459*
Y02459*
Y02459*
Y02459*
Y02459*
X03136Y02458*
X03136Y02457*
X03136Y02457*
X03136Y02456*
X03137Y02455*
X03137Y02454*
X03137Y02454*
X03137Y02454*
X03138Y02454*
X03138Y02453*
X03139Y02453*
X0314Y02453*
X03141Y02452*
X03142Y02452*
X03142*
X03143Y02452*
X03143Y02453*
X03144Y02453*
X03145Y02453*
X03146Y02453*
X03146Y02454*
X03147Y02454*
X03147Y02454*
X03147Y02454*
X03148Y02455*
X03148Y02455*
X03148Y02456*
X03148Y02457*
X03149Y02458*
X03149Y02459*
Y02475*
Y02475*
Y02475*
Y02476*
Y02476*
X03149Y02476*
X03148Y02477*
X03148Y02478*
X03148Y02479*
X03148Y0248*
X03147Y0248*
X03147Y0248*
X03147Y02481*
X03146Y02481*
X03146Y02481*
X03145Y02482*
X03144Y02482*
X03143Y02482*
X03142Y02482*
G37*
G36*
X03125Y02335D02*
X03124D01*
X03124Y02335*
X03124Y02335*
X03123Y02335*
X03122Y02334*
X03121Y02334*
X03121Y02334*
X0312Y02333*
X0312Y02333*
X0312Y02333*
X03119Y02332*
X03119Y02332*
X03119Y02331*
X03118Y0233*
X03118Y02329*
X03118Y02328*
Y02328*
Y02328*
Y02327*
Y02327*
X03118Y02327*
X03118Y02326*
X03118Y02326*
X03119Y02325*
X03119Y02324*
X03119Y02323*
X0312Y02322*
X0312Y02322*
X0312Y02322*
X03121Y02322*
X03121Y02321*
X03122Y02321*
X03123Y02321*
X03124Y0232*
X03125Y0232*
X03125*
X03125Y0232*
X03126Y0232*
X03126Y02321*
X03127Y02321*
X03128Y02321*
X03129Y02322*
X03129Y02322*
X03129Y02322*
X0313Y02323*
X0313Y02323*
X0313Y02324*
X0313Y02324*
X03131Y02325*
X03131Y02326*
X03131Y02328*
Y02328*
Y02328*
Y02328*
Y02328*
X03131Y02329*
X03131Y0233*
X03131Y0233*
X0313Y02331*
X0313Y02332*
X03129Y02333*
X03129Y02333*
X03129Y02333*
X03129Y02334*
X03128Y02334*
X03127Y02334*
X03127Y02335*
X03126Y02335*
X03125Y02335*
G37*
G36*
X03129Y0232D02*
X03128Y02318D01*
X03129Y02318*
X03129Y02319*
X03129Y02319*
X03129Y02319*
X03129Y02319*
Y02319*
Y0232*
G37*
G36*
X03126Y02188D02*
X03125D01*
X03125Y02188*
X03125Y02188*
X03124Y02188*
X03123Y02188*
X03123Y02188*
X03122Y02188*
X03122Y02188*
X03122Y02187*
X03122Y02187*
X03121Y02187*
X03121Y02187*
X03121Y02186*
X0312Y02186*
X0312Y02186*
X0312Y02185*
X0312Y02185*
X0312Y02185*
X0312Y02185*
X03119Y02184*
X03119Y02184*
X03119Y02183*
X03119Y02182*
Y02182*
Y02182*
Y02181*
X03119Y02181*
X03119Y02181*
X03119Y0218*
X03119Y02179*
X0312Y02179*
X0312Y02178*
X0312Y02178*
X0312Y02178*
X0312Y02178*
X0312Y02177*
X03121Y02177*
X03121Y02177*
X03122Y02176*
X03122Y02176*
X03122Y02176*
X03122Y02176*
X03123Y02176*
X03123Y02176*
X03124Y02175*
X03124Y02175*
X03125Y02175*
X03126Y02175*
X03126*
X03127Y02175*
X03127Y02175*
X03128Y02175*
X03128Y02176*
X03129Y02176*
X03129Y02176*
X03129Y02176*
X0313Y02176*
X0313Y02176*
X0313Y02177*
X03131Y02177*
X03131Y02177*
X03131Y02178*
X03132Y02178*
X03132Y02178*
X03132Y02179*
X03132Y02179*
X03132Y02179*
X03132Y0218*
X03132Y0218*
X03132Y02181*
X03132Y02182*
Y02182*
Y02182*
Y02183*
X03132Y02183*
X03132Y02183*
X03132Y02184*
X03132Y02184*
X03132Y02185*
X03132Y02186*
X03132Y02186*
X03131Y02186*
X03131Y02186*
X03131Y02186*
X03131Y02187*
X0313Y02187*
X0313Y02187*
X03129Y02188*
X03129Y02188*
X03129Y02188*
X03129Y02188*
X03128Y02188*
X03128Y02188*
X03127Y02188*
X03127Y02188*
X03126Y02188*
G37*
G36*
Y02172D02*
X03125D01*
X03125Y02172*
X03124Y02172*
X03124Y02172*
X03123Y02172*
X03123Y02172*
X03122Y02171*
X03122Y02171*
X03122Y02171*
X03121Y02171*
X03121Y02171*
X03121Y0217*
X0312Y0217*
X0312Y0217*
X03119Y02169*
X03119Y02169*
X03119Y02169*
X03119Y02168*
X03119Y02168*
X03119Y02167*
X03119Y02167*
X03119Y02166*
X03119Y02165*
Y02165*
Y02165*
Y02165*
X03119Y02165*
X03119Y02164*
X03119Y02163*
X03119Y02163*
X03119Y02162*
X03119Y02162*
X0312Y02162*
X0312Y02161*
X0312Y02161*
X0312Y02161*
X0312Y0216*
X03121Y0216*
X03121Y0216*
X03122Y02159*
X03122Y02159*
X03122Y02159*
X03123Y02159*
X03123Y02159*
X03124Y02159*
X03124Y02159*
X03125Y02159*
X03126Y02158*
X03126*
X03127Y02159*
X03127Y02159*
X03128Y02159*
X03128Y02159*
X03129Y02159*
X0313Y02159*
X0313Y02159*
X0313Y02159*
X0313Y0216*
X03131Y0216*
X03131Y0216*
X03131Y02161*
X03132Y02161*
X03132Y02162*
X03132Y02162*
X03132Y02162*
X03132Y02162*
X03133Y02163*
X03133Y02163*
X03133Y02164*
X03133Y02165*
X03133Y02165*
Y02165*
Y02165*
Y02166*
X03133Y02166*
X03133Y02167*
X03133Y02167*
X03133Y02168*
X03132Y02168*
X03132Y02169*
X03132Y02169*
X03132Y02169*
X03132Y0217*
X03131Y0217*
X03131Y0217*
X03131Y02171*
X0313Y02171*
X0313Y02171*
X0313Y02171*
X03129Y02171*
X03129Y02172*
X03129Y02172*
X03128Y02172*
X03127Y02172*
X03127Y02172*
X03126Y02172*
G37*
G36*
X02541Y01744D02*
X02541Y01744D01*
X0254Y01744*
X0254Y01744*
X0254Y01743*
X0254Y01743*
X0254Y01743*
Y01742*
X02541Y01744*
G37*
G36*
X02544Y01742D02*
X02544D01*
X02544Y01742*
X02543Y01742*
X02543Y01742*
X02542Y01742*
X02541Y01741*
X0254Y01741*
X0254Y0174*
X0254Y0174*
X0254Y0174*
X02539Y01739*
X02539Y01739*
X02539Y01738*
X02538Y01737*
X02538Y01736*
X02538Y01735*
Y01734*
Y01734*
Y01734*
Y01734*
X02538Y01734*
X02538Y01733*
X02538Y01733*
X02539Y01732*
X02539Y01731*
X02539Y0173*
X0254Y01729*
X0254Y01729*
X0254Y01729*
X02541Y01729*
X02541Y01728*
X02542Y01728*
X02543Y01728*
X02543Y01728*
X02545Y01727*
X02545*
X02545Y01728*
X02546Y01728*
X02546Y01728*
X02547Y01728*
X02548Y01728*
X02549Y01729*
X02549Y01729*
X02549Y01729*
X0255Y0173*
X0255Y0173*
X0255Y01731*
X0255Y01731*
X02551Y01732*
X02551Y01733*
X02551Y01735*
Y01735*
Y01735*
Y01735*
Y01735*
X02551Y01736*
X02551Y01737*
X0255Y01738*
X0255Y01738*
X0255Y01739*
X02549Y0174*
X02549Y0174*
X02549Y01741*
X02548Y01741*
X02548Y01741*
X02547Y01742*
X02546Y01742*
X02545Y01742*
X02544Y01742*
G37*
%LNpcb1-3*%
%LPD*%
%SRX1Y1I0J0*%
G54D10*
X02455Y02499D02*
D01*
D01*
G75*
G03X02448I-00003J0D01*
G74*G01*
D01*
G75*
G03X02455I00003J0D01*
G74*G01*
X02655Y01901D02*
D01*
D01*
G75*
G03X02632Y01877I0J-00023D01*
G74*G01*
X03555Y01315D02*
Y0244D01*
Y0124D02*
Y01315D01*
Y0124D02*
X03655D01*
Y0244D02*
Y0124D01*
X03555Y0244D02*
X03655D01*
X02657Y01895D02*
Y02255D01*
X02639Y01877D02*
X02657Y01895D01*
X02492Y01877D02*
X02639D01*
X02492Y02255D02*
X02657D01*
X02492Y01877D02*
Y02255D01*
X01798Y02148D02*
X02061D01*
X01798Y02266D02*
X02061D01*
X01798Y02148D02*
Y02266D01*
X02061Y02148D02*
Y02266D01*
G54D11*
X02716Y01872D02*
D01*
D01*
G75*
G03X02706I-00004J0D01*
G74*G01*
D01*
G75*
G03X02716I00004J0D01*
G74*G01*
X01805Y02095D02*
D01*
D01*
G75*
G03X01795I-00004J0D01*
G74*G01*
D01*
G75*
G03X01805I00004J0D01*
G74*G01*
G54D12*
X0268Y02375D02*
Y02604D01*
X0248D02*
X0268D01*
X0248Y02375D02*
Y02604D01*
Y02375D02*
X0268D01*
X0195Y01665D02*
Y01744D01*
X01879Y01665D02*
Y01744D01*
X02165Y0167D02*
Y01749D01*
X02094Y0167D02*
Y01749D01*
X00275Y00297D02*
Y02438D01*
X01374*
Y00297D02*
Y02438D01*
X00275Y00297D02*
X01374D01*
X03342Y01314D02*
X03421D01*
X03342Y01385D02*
X03421D01*
X03342Y01461D02*
X03421D01*
X03342Y01531D02*
X03421D01*
X02457Y01744D02*
X02535D01*
X02457Y01814D02*
X02535D01*
X0268Y01744D02*
X02759D01*
X0268Y01815D02*
X02759D01*
X03342Y01607D02*
X03421D01*
X03342Y01677D02*
X03421D01*
X03342Y01754D02*
X03421D01*
X03342Y01824D02*
X03421D01*
X03342Y019D02*
X03421D01*
X03342Y0197D02*
X03421D01*
X03342Y02047D02*
X03421D01*
X03342Y02117D02*
X03421D01*
X03342Y02193D02*
X03421D01*
X03342Y02263D02*
X03421D01*
X03342Y02339D02*
X03421D01*
X03342Y0241D02*
X03421D01*
X02189Y0167D02*
Y01749D01*
X0226Y0167D02*
Y01749D01*
X01984Y01746D02*
Y01667D01*
X02055D02*
Y01746D01*
X01774Y01744D02*
Y01665D01*
X01845D02*
Y01744D01*
X01659Y01665D02*
Y01744D01*
X0173Y01665D02*
Y01744D01*
X01549Y01665D02*
Y01744D01*
X0162Y01665D02*
Y01744D01*
M02*