%FSTAX23Y23*%
%MOIN*%
%SFA1B1*%

%IPPOS*%
%ADD52C,0.001970*%
%LNpcb1-1*%
%LPD*%
%SRX1Y1I0J0*%
G54D52*
X02693Y02362D02*
Y02617D01*
X02466D02*
X02693D01*
X02466Y02362D02*
Y02617D01*
Y02362D02*
X02693D01*
X01877Y01638D02*
X01952D01*
Y01771D02*
Y01638D01*
X01877Y01771D02*
X01952D01*
X01877Y01638D02*
Y01771D01*
X02092Y01643D02*
X02167Y01643D01*
Y01776D02*
Y01643D01*
X02092Y01776D02*
X02167D01*
X02092Y01643D02*
Y01776D01*
X03243Y02251D02*
Y02368D01*
X03186Y02251D02*
Y02368D01*
Y02251D02*
X03243D01*
X03186Y02368D02*
X03243D01*
Y01953D02*
Y0207D01*
X03186Y01953D02*
Y0207D01*
Y01953D02*
X03243D01*
X03186Y0207D02*
X03243D01*
Y01655D02*
Y01772D01*
X03186Y01655D02*
Y01772D01*
Y01655D02*
X03243D01*
X03186Y01772D02*
X03243D01*
Y01357D02*
Y01474D01*
X03186Y01357D02*
Y01474D01*
Y01357D02*
X03243D01*
X03186Y01474D02*
X03243D01*
X03315Y01312D02*
X03448D01*
X03315D02*
Y01387D01*
X03448*
Y01312D02*
Y01387D01*
X03143Y0184D02*
Y01723D01*
X03086Y0184D02*
Y01723D01*
X03143*
X03086Y0184D02*
X03143D01*
X03086Y01576D02*
Y01693D01*
X03143Y01576D02*
Y01693D01*
X03086D02*
X03143D01*
X03086Y01576D02*
X03143D01*
Y01546D02*
Y01429D01*
X03086D02*
Y01546D01*
Y01429D02*
X03143D01*
X03086Y01546D02*
X03143D01*
X03086Y01282D02*
Y01399D01*
X03143Y01282D02*
Y01399D01*
X03086D02*
X03143D01*
X03086Y01282D02*
X03143D01*
X03315Y01458D02*
X03448D01*
X03315D02*
Y01534D01*
X03448*
Y01458D02*
Y01534D01*
X02429Y01741D02*
X02563D01*
X02429D02*
Y01817D01*
X02563*
Y01741D02*
Y01817D01*
X02653Y01742D02*
X02786D01*
X02653D02*
Y01817D01*
X02786*
Y01742D02*
Y01817D01*
X03315Y01605D02*
X03448D01*
X03315D02*
Y0168D01*
X03448*
Y01605D02*
Y0168D01*
X02563Y01586D02*
Y01703D01*
X02506Y01586D02*
Y01703D01*
Y01586D02*
X02563D01*
X02506Y01703D02*
X02563D01*
X02661Y01687D02*
X02778D01*
X02661Y01629D02*
X02778D01*
Y01687*
X02661Y01629D02*
Y01687D01*
X03315Y01751D02*
X03448D01*
X03315D02*
Y01827D01*
X03448*
Y01751D02*
Y01827D01*
X03315Y01897D02*
X03448D01*
X03315D02*
Y01973D01*
X03448*
Y01897D02*
Y01973D01*
X03143Y02311D02*
Y02428D01*
X03086Y02311D02*
Y02428D01*
Y02311D02*
X03143D01*
X03086Y02428D02*
X03143D01*
X03086Y02164D02*
Y02281D01*
X03143Y02164D02*
Y02281D01*
X03086D02*
X03143D01*
X03086Y02164D02*
X03143D01*
Y02017D02*
Y02134D01*
X03086Y02017D02*
Y02134D01*
Y02017D02*
X03143D01*
X03086Y02134D02*
X03143D01*
X03086Y0187D02*
Y01987D01*
X03143Y0187D02*
Y01987D01*
X03086D02*
X03143D01*
X03086Y0187D02*
X03143D01*
X03315Y02044D02*
X03448D01*
X03315D02*
Y02119D01*
X03448*
Y02044D02*
Y02119D01*
X03315Y0219D02*
X03448D01*
X03315D02*
Y02266D01*
X03448*
Y0219D02*
Y02266D01*
X03315Y02337D02*
X03448D01*
X03315D02*
Y02412D01*
X03448*
Y02337D02*
Y02412D01*
X02187Y01643D02*
Y01776D01*
X02262*
Y01643D02*
Y01776D01*
X02187Y01643D02*
X02262D01*
X01982Y01773D02*
Y0164D01*
Y01773D02*
X02057D01*
Y0164D02*
Y01773D01*
X01982Y0164D02*
X02057D01*
X01772Y01638D02*
Y01771D01*
X01847*
Y01638*
X01772D02*
X01847D01*
X01657D02*
Y01771D01*
X01732*
Y01638D02*
Y01771D01*
X01657Y01638D02*
X01732D01*
X02101Y02126D02*
Y02243D01*
X02158Y02126D02*
Y02243D01*
X02101D02*
X02158D01*
X02101Y02126D02*
X02158D01*
X01701D02*
Y02243D01*
X01758Y02126D02*
Y02243D01*
X01701D02*
X01758D01*
X01701Y02126D02*
X01758D01*
X01547Y01638D02*
Y01771D01*
X01622*
Y01638D02*
Y01771D01*
X01547Y01638D02*
X01622D01*
X02856Y02303D02*
X02973D01*
X02856Y02246D02*
X02973D01*
Y02303*
X02856Y02246D02*
Y02303D01*
M02*