%FSTAX23Y23*%
%MOIN*%
%SFA1B1*%

%IPPOS*%
%AMD38*
4,1,4,0.439000,0.499100,-0.499100,-0.439000,-0.439000,-0.499100,0.499100,0.439000,0.439000,0.499100,0.0*
%
%AMD48*
4,1,8,0.022000,0.030700,-0.022000,0.030700,-0.037400,0.015400,-0.037400,-0.015400,-0.022000,-0.030700,0.022000,-0.030700,0.037400,-0.015400,0.037400,0.015400,0.022000,0.030700,0.0*
%
%AMD49*
4,1,8,-0.029500,0.022600,-0.029500,-0.022600,-0.014800,-0.037400,0.014800,-0.037400,0.029500,-0.022600,0.029500,0.022600,0.014800,0.037400,-0.014800,0.037400,-0.029500,0.022600,0.0*
%
%ADD13R,0.055910X0.039370*%
%ADD14R,0.038190X0.036220*%
%ADD15R,0.039370X0.055910*%
%ADD16R,0.036220X0.038190*%
%ADD17O,0.076770X0.019680*%
%ADD18R,0.035430X0.082680*%
%ADD19R,0.125980X0.082680*%
%ADD32C,0.012600*%
%ADD33C,0.011810*%
%ADD34C,0.023620*%
%ADD35R,0.800000X0.090000*%
%ADD36R,0.140000X0.070000*%
%ADD37R,0.111810X0.445610*%
G04~CAMADD=38~9~0.0~0.0~13266.7~850.0~0.0~0.0~0~0.0~0.0~0.0~0.0~0~0.0~0.0~0.0~0.0~0~0.0~0.0~0.0~45.0~9982.0~9981.0*
%ADD38D38*%
%ADD39R,0.095000X0.295000*%
%ADD40R,1.485000X0.220000*%
%ADD41R,0.170000X2.145000*%
%ADD42R,0.240000X0.245000*%
%ADD43R,0.735000X0.065000*%
%ADD44R,0.090000X1.980000*%
%ADD45C,0.070280*%
%ADD46R,0.070280X0.070280*%
%ADD47R,0.061420X0.061420*%
G04~CAMADD=48~4~0.0~0.0~748.0~614.2~0.0~153.6~0~0.0~0.0~0.0~0.0~0~0.0~0.0~0.0~0.0~0~0.0~0.0~0.0~0.0~748.0~614.2*
%ADD48D48*%
G04~CAMADD=49~4~0.0~0.0~748.0~590.6~0.0~147.7~0~0.0~0.0~0.0~0.0~0~0.0~0.0~0.0~0.0~0~0.0~0.0~0.0~90.0~590.0~748.0*
%ADD49D49*%
%LNpcb1-1*%
%LPD*%
%SRX1Y1I0J0*%
G36*
X02585Y026D02*
Y02514D01*
X0258Y02503*
X0258Y02501*
X02575Y02501*
Y02535*
X02535*
Y0249*
Y02444*
X02575*
Y02478*
X0258Y02478*
X0258Y02476*
X02585Y02465*
Y0242*
X02535Y0237*
X0251Y0233*
Y02327*
X02215*
X02208Y02326*
X02201Y02324*
X02195Y02319*
X0213Y02253*
X02097Y02286*
X02094Y0229*
X02045Y02339*
X0204Y02343*
X02033Y02346*
X02026Y02347*
X02008*
Y02376*
X01851*
Y02262*
X02008*
Y02291*
X02014*
X02051Y02254*
X02054Y0225*
X02095Y0221*
Y02181*
X021*
Y02159*
X0213*
X02159*
Y02181*
X02164*
Y0221*
X02226Y02272*
X0251*
Y02264*
X02438*
X0243Y02263*
X02428Y02262*
X02409*
X02402Y02261*
X02396Y02259*
X02391Y02255*
X02387Y02249*
X02384Y02243*
X02383Y02236*
X02384Y0223*
X02387Y02224*
X02384Y02218*
X02383Y02211*
X02384Y02204*
X02387Y02198*
X02391Y02193*
X0239Y02193*
X02389Y02185*
X02386Y02182*
X0234*
X02331Y0218*
X02324Y02176*
X021Y01952*
X01945*
X01936Y0195*
X01929Y01945*
X01875Y01892*
X0176*
X01751Y0189*
X01744Y01885*
X0166Y01802*
X01623*
X01614Y018*
X01607Y01795*
X01592Y0178*
X01589Y01777*
X01541*
Y01706*
Y01703*
Y01654*
X01518*
X01462Y0171*
X01455Y01715*
X01446Y01717*
X01377*
X01375Y01722*
X01378Y01724*
Y01771*
X01354Y01794*
X01295*
X01271Y01771*
Y01724*
X01274Y01722*
X01272Y01716*
X01266Y01715*
X01259Y0171*
X01202Y01653*
X01197Y01655*
Y01888*
X01267Y01958*
X01271Y01956*
Y01924*
X01295Y01901*
X01354*
X01378Y01924*
Y01971*
X01354Y01994*
X01312*
X0131Y01999*
X01311Y02001*
X01354*
X01378Y02024*
Y02071*
X01354Y02094*
X01295*
X01271Y02071*
Y02026*
X01159Y01913*
X01154Y01906*
X01152Y01897*
Y01072*
X01154Y01063*
X01159Y01056*
X01231Y00984*
X01238Y00979*
X01247Y00977*
X01271*
X01273Y00972*
X01271Y00971*
Y00924*
X01295Y00901*
X01354*
X01378Y00924*
Y00925*
X01491*
X015Y00927*
X01507Y00932*
X02213Y01637*
X02268*
Y01708*
Y01711*
Y01747*
X02272Y01748*
X02279Y01752*
X0231Y01784*
X02313Y01788*
X02318Y01787*
Y01745*
Y01549*
X01421Y00651*
X01418Y00646*
X01417Y0064*
Y00296*
X01055*
X01052Y00301*
X01054Y00303*
X01056Y0031*
Y00375*
Y02183*
X01286*
X01288Y02179*
X01277Y02168*
Y02152*
X01372*
Y02168*
X01361Y02179*
X01363Y02183*
X01695*
Y02181*
X017*
Y02159*
X0173*
X01759*
Y02181*
X01764*
Y02182*
X01773*
X01805Y02149*
Y02037*
X01872*
Y02152*
X01862*
Y0216*
X01861Y02167*
X01859Y02173*
X01854Y02179*
X01804Y0223*
X01798Y02234*
X01791Y02237*
X01784Y02238*
X01766*
Y0229*
X01764Y02296*
X01761Y02301*
X01756Y02304*
X0175Y02306*
X0095*
X00943Y02304*
X00938Y02301*
X00935Y02296*
X00933Y0229*
Y022*
Y00391*
X00358*
X00354Y00394*
X00295*
X00271Y00371*
Y00324*
X00289Y00307*
X0029Y00303*
X00292Y00301*
X00289Y00296*
X00246*
Y02078*
X00273*
X00274Y02074*
X00271Y02071*
Y02024*
X00295Y02001*
X00354*
X00378Y02024*
Y02071*
X00375Y02074*
X00377Y02079*
X00381Y0208*
X00386Y02083*
X00389Y02088*
X00391Y02095*
Y0234*
X00389Y02346*
X00386Y02351*
X00381Y02354*
X00375Y02356*
X0006*
X00053Y02354*
X00048Y02351*
X00045Y02346*
X00043Y0234*
Y0028*
Y00195*
Y0006*
X00045Y00053*
X00048Y00048*
X00053Y00045*
X0006Y00043*
X01545*
X01551Y00045*
X01556Y00048*
X01559Y00053*
X01561Y0006*
Y0028*
Y00625*
X02442Y01507*
X02446Y01512*
X02447Y01518*
X02446Y01524*
X02446Y01525*
Y01728*
X02475*
X02481Y0173*
X02486Y01733*
X02487Y01735*
X02495*
X02497*
X02499*
X02504Y01734*
Y01709*
X025*
Y01641*
X02505*
Y01619*
X02535*
Y01614*
X0254*
Y01586*
X02564*
Y01611*
X02575Y01622*
X02576Y01622*
X0258Y01619*
Y00055*
X0256Y00035*
X0002*
Y02645*
X0254*
X02585Y026*
G37*
G36*
X03559Y02259D02*
X03579Y0224D01*
X03559Y0222*
Y02159*
X03579Y0214*
X03559Y0212*
Y02113*
X03454*
Y02125*
X03385*
X03381*
X03378*
X03309*
Y02077*
X03302Y0207*
X03249*
Y02076*
X0318*
Y02071*
X03149*
Y02079*
X03144*
Y02101*
X03115*
Y02106*
Y02101*
X03085*
Y02079*
X02978*
X02976Y02084*
X03081Y02189*
X03085Y02187*
Y02164*
X0311*
Y02192*
X03115*
Y02197*
X03144*
Y02219*
X03149*
Y02248*
X03153Y02251*
X0318*
Y02245*
X03249*
Y02251*
X0329*
X03309Y02232*
Y02184*
X03378*
X03381*
X03385*
X03454*
Y02232*
X03483Y02262*
X03559*
Y02259*
G37*
G36*
X02969Y01974D02*
X02976Y01969D01*
X02985Y01967*
X03074*
X0308Y01962*
Y01925*
X03085*
Y01903*
X03115*
X03144*
Y01925*
X03149*
Y01953*
X0318*
Y01947*
X03249*
Y01953*
X03296*
X03309Y0194*
Y01892*
X03378*
X03381*
X03385*
X03454*
Y0194*
X03476Y01962*
X03559*
Y01959*
X03579Y0194*
X03559Y0192*
Y01859*
X03579Y0184*
X03559Y0182*
Y01817*
X03454*
Y01832*
X03385*
X03381*
X03378*
X03309*
Y01784*
X03296Y01772*
X03249*
Y01778*
X03214*
X03213Y01778*
X03206Y01779*
X03149*
Y01785*
X03144*
Y01807*
X03115*
Y01812*
X0311*
Y0184*
X03085*
Y01817*
X03081Y01815*
X02891Y02005*
X02893Y02009*
X02933*
X02969Y01974*
G37*
G36*
X01871Y01632D02*
X01874D01*
X01876Y01628*
X01771Y01523*
X01374*
X01372Y01527*
Y01542*
X01325*
Y01552*
X01372*
Y01568*
X01374Y01572*
X01728*
X01737Y01574*
X01744Y01579*
X01798Y01632*
X01853*
Y01683*
X01871*
Y01632*
G37*
G36*
X0308Y01688D02*
Y01631D01*
X03085*
Y01609*
X03115*
X03144*
Y01631*
X03149*
Y01655*
X0318*
Y01649*
X03249*
Y01655*
X03301*
X03309Y01647*
Y01599*
X03378*
X03381*
X03385*
X03454*
Y01615*
X03557*
X03559Y01613*
Y01559*
X03579Y0154*
X0356Y01521*
X03454*
Y0154*
X03385*
X03381*
X03378*
X03309*
Y01492*
X03291Y01473*
X03249*
Y0148*
X03218*
X03216Y01481*
X03209Y01484*
X03202Y01485*
X03149*
Y01491*
X03144*
Y01513*
X03115*
Y01518*
X0311*
Y01546*
X03085*
Y01523*
X03081Y01521*
X03037Y01565*
Y01725*
X03041Y01727*
X0308Y01688*
G37*
G36*
X0371Y02565D02*
Y012D01*
X03655Y01145*
X0266*
X02615Y0119*
Y01647*
X0262Y01649*
X02629Y0164*
X02634Y01635*
X02641Y01633*
X02648Y01632*
X02661*
Y01629*
X02684*
Y01658*
X02694*
Y01629*
X02716*
Y01623*
X02784*
Y01693*
X02781*
Y01736*
X02792*
Y01823*
X02784*
Y01852*
X02783Y0186*
X02781Y01866*
X02776Y01872*
X0276Y01888*
X02762Y01891*
X02765Y01897*
X02766Y01904*
X02766Y01904*
X02772Y01905*
X02802Y01875*
Y01845*
X02804Y01837*
X02808Y0183*
X02881Y01757*
Y01566*
X02883Y01558*
X02887Y0155*
X03049Y01389*
X03056Y01384*
X03065Y01382*
X03071*
X0308Y01374*
Y01337*
X03085*
Y01315*
X03115*
X03144*
Y01337*
X03149*
Y01357*
X0318*
Y01351*
X03249*
Y01357*
X03306*
X03309Y01354*
Y01306*
X03378*
X03381*
X03385*
X03454*
Y01354*
X03461Y01362*
X03559*
Y01359*
X03579Y0134*
X03559Y0132*
Y01259*
X03582Y01236*
X03627*
X0365Y01259*
Y0132*
X0363Y0134*
X0365Y01359*
Y0142*
X0363Y0144*
X0365Y01459*
Y0152*
X0363Y0154*
X0365Y01559*
Y0162*
X0363Y0164*
X0365Y01659*
Y0172*
X0363Y0174*
X0365Y01759*
Y0182*
X0363Y0184*
X0365Y01859*
Y0192*
X0363Y0194*
X0365Y01959*
Y0202*
X0363Y0204*
X0365Y02059*
Y0212*
X0363Y0214*
X0365Y02159*
Y0222*
X0363Y0224*
X0365Y02259*
Y0232*
X0363Y0234*
X0365Y02359*
Y0242*
X03627Y02443*
X03582*
X03559Y0242*
Y02402*
X03454*
Y02418*
X03385*
X0338*
X03378*
X03309*
Y02402*
X0325*
X03243Y02401*
X03236Y02399*
X0323Y02394*
X0321Y02374*
X0318*
Y02367*
X03149*
Y02373*
X03144*
Y02395*
X03115*
X03085*
Y02373*
X0308*
Y02336*
X02874Y02131*
X02769*
X02766Y02134*
X02765Y02141*
X02762Y02147*
X02765Y02153*
X02766Y0216*
X02765Y02166*
X02762Y02172*
X02765Y02179*
X02766Y02185*
X02765Y02192*
X02762Y02198*
X02765Y02204*
X02766Y02211*
X02765Y02218*
X02762Y02224*
X02765Y0223*
X02766Y02236*
X02765Y02242*
X02768Y02247*
X0285*
Y0224*
X02918*
Y02245*
X0294*
Y02275*
Y02304*
X02918*
Y02309*
X0285*
Y02302*
X02743*
X02736Y02301*
X02729Y02299*
X02724Y02294*
X02692Y02262*
X02683*
X02676Y02261*
X0267Y02259*
X02665Y02255*
X0266Y02249*
X02658Y02243*
X02657Y02236*
X02658Y0223*
X0266Y02224*
X02658Y02218*
X02657Y02213*
X02652Y02214*
Y0222*
X02651Y02227*
X02649Y02233*
X02644Y02239*
X02564Y02319*
X02558Y02324*
X02552Y02326*
X02545Y02327*
X02544*
X02542Y02332*
X02645Y02435*
Y02447*
X02652Y0245*
X02662Y02457*
X02669Y02467*
X02673Y02478*
X02674Y02485*
X0263*
Y02495*
X02674*
X02673Y02501*
X02669Y02512*
X02662Y02522*
X02652Y02529*
X02645Y02532*
Y0258*
X02705Y0264*
X03635*
X0371Y02565*
G37*
%LNpcb1-2*%
%LPC*%
%SRX1Y1I0J0*%
G36*
X02525Y02535D02*
X02484D01*
Y02495*
X02525*
Y02535*
G37*
G36*
Y02485D02*
X02484D01*
Y02444*
X02525*
Y02485*
G37*
G36*
X02159Y02149D02*
X02135D01*
Y02126*
X02159*
Y02149*
G37*
G36*
X02125D02*
X021D01*
Y02126*
X02125*
Y02149*
G37*
G36*
X01759D02*
X01735D01*
Y02126*
X01759*
Y02149*
G37*
G36*
X01725D02*
X017D01*
Y02126*
X01725*
Y02149*
G37*
G36*
X01372Y02142D02*
X0133D01*
Y02107*
X01352*
X01372Y02127*
Y02142*
G37*
G36*
X0132D02*
X01277D01*
Y02127*
X01297Y02107*
X0132*
Y02142*
G37*
G36*
X02048Y02146D02*
X02025D01*
Y021*
X02048*
Y02146*
G37*
G36*
X02015D02*
X01992D01*
Y021*
X02015*
Y02146*
G37*
G36*
X02048Y0209D02*
X02025D01*
Y02043*
X02048*
Y0209*
G37*
G36*
X02015D02*
X01992D01*
Y02043*
X02015*
Y0209*
G37*
G36*
X01963Y02152D02*
X01896D01*
Y02037*
X01963*
Y02152*
G37*
G36*
X00354Y01994D02*
X00295D01*
X00271Y01971*
Y01924*
X00295Y01901*
X00354*
X00378Y01924*
Y01971*
X00354Y01994*
G37*
G36*
X01354Y01894D02*
X01295D01*
X01271Y01871*
Y01824*
X01295Y01801*
X01354*
X01378Y01824*
Y01871*
X01354Y01894*
G37*
G36*
X00354D02*
X00295D01*
X00271Y01871*
Y01824*
X00295Y01801*
X00354*
X00378Y01824*
Y01871*
X00354Y01894*
G37*
G36*
Y01794D02*
X00295D01*
X00271Y01771*
Y01724*
X00295Y01701*
X00354*
X00378Y01724*
Y01771*
X00354Y01794*
G37*
G36*
Y01694D02*
X00295D01*
X00271Y01671*
Y01624*
X00295Y01601*
X00354*
X00378Y01624*
Y01671*
X00354Y01694*
G37*
G36*
X0253Y01609D02*
X02505D01*
Y01586*
X0253*
Y01609*
G37*
G36*
X00354Y01594D02*
X00295D01*
X00271Y01571*
Y01524*
X00295Y01501*
X00354*
X00378Y01524*
Y01571*
X00354Y01594*
G37*
G36*
Y01494D02*
X00295D01*
X00271Y01471*
Y01424*
X00295Y01401*
X00354*
X00378Y01424*
Y01471*
X00354Y01494*
G37*
G36*
Y01394D02*
X00295D01*
X00271Y01371*
Y01324*
X00295Y01301*
X00354*
X00378Y01324*
Y01371*
X00354Y01394*
G37*
G36*
Y01294D02*
X00295D01*
X00271Y01271*
Y01224*
X00295Y01201*
X00354*
X00378Y01224*
Y01271*
X00354Y01294*
G37*
G36*
Y01194D02*
X00295D01*
X00271Y01171*
Y01124*
X00295Y01101*
X00354*
X00378Y01124*
Y01171*
X00354Y01194*
G37*
G36*
Y01094D02*
X00295D01*
X00271Y01071*
Y01024*
X00295Y01001*
X00354*
X00378Y01024*
Y01071*
X00354Y01094*
G37*
G36*
Y00994D02*
X00295D01*
X00271Y00971*
Y00924*
X00295Y00901*
X00354*
X00378Y00924*
Y00971*
X00354Y00994*
G37*
G36*
X00352Y00888D02*
X0033D01*
Y00852*
X00372*
Y00868*
X00352Y00888*
G37*
G36*
X0032D02*
X00297D01*
X00277Y00868*
Y00852*
X0032*
Y00888*
G37*
G36*
X00372Y00842D02*
X0033D01*
Y00807*
X00352*
X00372Y00827*
Y00842*
G37*
G36*
X0032D02*
X00277D01*
Y00827*
X00297Y00807*
X0032*
Y00842*
G37*
G36*
X01354Y00894D02*
X01295D01*
X01271Y00871*
Y00824*
X01295Y00801*
X01354*
X01378Y00824*
Y00871*
X01354Y00894*
G37*
G36*
Y00794D02*
X01295D01*
X01271Y00771*
Y00724*
X01295Y00701*
X01354*
X01378Y00724*
Y00771*
X01354Y00794*
G37*
G36*
X00354D02*
X00295D01*
X00271Y00771*
Y00724*
X00295Y00701*
X00354*
X00378Y00724*
Y00771*
X00354Y00794*
G37*
G36*
X01354Y00694D02*
X01295D01*
X01271Y00671*
Y00624*
X01295Y00601*
X01354*
X01378Y00624*
Y00671*
X01354Y00694*
G37*
G36*
X00354D02*
X00295D01*
X00271Y00671*
Y00624*
X00295Y00601*
X00354*
X00378Y00624*
Y00671*
X00354Y00694*
G37*
G36*
X01354Y00594D02*
X01295D01*
X01271Y00571*
Y00524*
X01295Y00501*
X01354*
X01378Y00524*
Y00571*
X01354Y00594*
G37*
G36*
X00354D02*
X00295D01*
X00271Y00571*
Y00524*
X00295Y00501*
X00354*
X00378Y00524*
Y00571*
X00354Y00594*
G37*
G36*
X01354Y00494D02*
X01295D01*
X01271Y00471*
Y00424*
X01295Y00401*
X01354*
X01378Y00424*
Y00471*
X01354Y00494*
G37*
G36*
X00354D02*
X00295D01*
X00271Y00471*
Y00424*
X00295Y00401*
X00354*
X00378Y00424*
Y00471*
X00354Y00494*
G37*
G36*
X01354Y00394D02*
X01295D01*
X01271Y00371*
Y00324*
X01295Y00301*
X01354*
X01378Y00324*
Y00371*
X01354Y00394*
G37*
G36*
X03144Y02187D02*
X0312D01*
Y02164*
X03144*
Y02187*
G37*
G36*
Y02134D02*
X0312D01*
Y02111*
X03144*
Y02134*
G37*
G36*
X0311D02*
X03085D01*
Y02111*
X0311*
Y02134*
G37*
G36*
X03144Y01893D02*
X0312D01*
Y0187*
X03144*
Y01893*
G37*
G36*
X0311D02*
X03085D01*
Y0187*
X0311*
Y01893*
G37*
G36*
X03144Y0184D02*
X0312D01*
Y01817*
X03144*
Y0184*
G37*
G36*
Y01599D02*
X0312D01*
Y01576*
X03144*
Y01599*
G37*
G36*
X0311D02*
X03085D01*
Y01576*
X0311*
Y01599*
G37*
G36*
X03144Y01546D02*
X0312D01*
Y01523*
X03144*
Y01546*
G37*
G36*
Y02428D02*
X0312D01*
Y02405*
X03144*
Y02428*
G37*
G36*
X0311D02*
X03085D01*
Y02405*
X0311*
Y02428*
G37*
G36*
X02973Y02304D02*
X0295D01*
Y0228*
X02973*
Y02304*
G37*
G36*
Y0227D02*
X0295D01*
Y02245*
X02973*
Y0227*
G37*
G36*
X03144Y01305D02*
X0312D01*
Y01282*
X03144*
Y01305*
G37*
G36*
X0311D02*
X03085D01*
Y01282*
X0311*
Y01305*
G37*
%LNpcb1-3*%
%LPD*%
%SRX1Y1I0J0*%
G54D13*
X01915Y01741D03*
Y01668D03*
X0213Y01746D03*
Y01673D03*
X02225D03*
Y01746D03*
X0202Y0167D03*
Y01743D03*
X0181Y01668D03*
Y01741D03*
X01695Y01668D03*
Y01741D03*
X01585Y01668D03*
Y01741D03*
G54D14*
X03215Y02279D03*
Y0234D03*
Y01981D03*
Y02042D03*
Y01683D03*
Y01744D03*
Y01385D03*
Y01446D03*
X03115Y01751D03*
Y01812D03*
Y01665D03*
Y01604D03*
Y01457D03*
Y01518D03*
Y01371D03*
Y0131D03*
X02535Y01614D03*
Y01675D03*
X03115Y02339D03*
Y024D03*
Y02253D03*
Y02192D03*
Y02045D03*
Y02106D03*
Y01959D03*
Y01898D03*
X0213Y02215D03*
Y02154D03*
X0173Y02215D03*
Y02154D03*
G54D15*
X03418Y0135D03*
X03345D03*
X03418Y01496D03*
X03345D03*
X02533Y01779D03*
X02459D03*
X02757Y0178D03*
X02683D03*
X03418Y01642D03*
X03345D03*
X03418Y01789D03*
X03345D03*
X03418Y01935D03*
X03345D03*
X03418Y02082D03*
X03345D03*
X03418Y02228D03*
X03345D03*
X03418Y02375D03*
X03345D03*
G54D16*
X0275Y01658D03*
X02689D03*
X02945Y02275D03*
X02884D03*
G54D17*
X02438Y02185D03*
Y0216D03*
Y02134D03*
Y02108D03*
Y02083D03*
Y02057D03*
Y02031D03*
Y02006D03*
X02711Y02185D03*
Y0216D03*
Y02134D03*
Y02108D03*
Y02083D03*
Y02057D03*
Y02032D03*
Y02006D03*
Y01981D03*
Y01955D03*
Y01929D03*
Y01904D03*
Y02236D03*
Y02211D03*
X02438Y02236D03*
Y02211D03*
Y0198D03*
Y01955D03*
Y01929D03*
Y01904D03*
G54D18*
X01839Y02095D03*
X0193D03*
X0202D03*
G54D19*
X0193Y02319D03*
G54D32*
X01247Y01D02*
X0149D01*
X0212Y0163*
Y01663D02*
X0213Y01673D01*
X0212Y0163D02*
Y01663D01*
X0201Y01605D02*
X02025D01*
X02077Y01656*
Y01683*
X01327Y01445D02*
X01786D01*
X01325Y01447D02*
X01327Y01445D01*
X01786D02*
X02011Y0167D01*
X0124Y01332D02*
X01325Y01247D01*
X0124Y0156D02*
X01274Y01594D01*
X0124Y01332D02*
Y0156D01*
X0127Y01402D02*
Y0149D01*
X0128Y015D02*
X0178D01*
X0127Y0149D02*
X0128Y015D01*
X0127Y01402D02*
X01325Y01347D01*
X01274Y01594D02*
X01728D01*
X0121Y01162D02*
X01325Y01047D01*
X0121Y01162D02*
Y0163D01*
X01274Y01694*
X01446*
X01775Y0137D02*
X0201Y01605D01*
X01424Y01279D02*
X0145Y01305D01*
X0166Y0137D02*
X01775D01*
X0145Y01305D02*
X01595D01*
X0166Y0137*
X01424Y01247D02*
Y01279D01*
X02054Y01705D02*
X02077Y01683D01*
X01175Y01897D02*
X01325Y02047D01*
X01175Y01072D02*
Y01897D01*
Y01072D02*
X01247Y01D01*
X02216Y01673D02*
X02225D01*
X01491Y00947D02*
X02216Y01673D01*
X01325Y00947D02*
X01491D01*
X01325Y01147D02*
X01424Y01247D01*
X01646Y01689D02*
X01661Y01705D01*
X01585Y01668D02*
X01631D01*
X01646Y01682*
X01661Y01705D02*
X01949D01*
X01646Y01682D02*
Y01689D01*
X01949Y01705D02*
X01949Y01705D01*
X01801Y01668D02*
X0181D01*
X01728Y01594D02*
X01801Y01668D01*
X01949Y01705D02*
X02054D01*
X01915Y01635D02*
Y01668D01*
X0178Y015D02*
X01915Y01635D01*
X01509Y01632D02*
X0165D01*
X01446Y01694D02*
X01509Y01632D01*
X01686Y01668D02*
X01695D01*
X0165Y01632D02*
X01686Y01668D01*
X02011Y0167D02*
X0202D01*
X02225Y01795D02*
X02383Y01953D01*
X02394Y01929D02*
X02438D01*
X02263Y01768D02*
X02295Y018D01*
X02247Y01768D02*
X02263D01*
X02295Y018D02*
Y0183D01*
X02394Y01929*
X01919Y01745D02*
X01928Y01755D01*
X01915Y01741D02*
X01919Y01745D01*
X01945Y0193D02*
X0211D01*
X01885Y0187D02*
X01945Y0193D01*
X0211D02*
X0234Y0216D01*
X01935Y01795D02*
X02005Y01865D01*
X0216D02*
X02326Y02031D01*
X02005Y01865D02*
X0216D01*
X02166Y01775D02*
Y01786D01*
X022Y0182D02*
X0236Y0198D01*
X0201Y018D02*
X02051Y01841D01*
X02138Y01746D02*
X02166Y01775D01*
X02051Y01841D02*
X02181D01*
X02028Y01743D02*
X02104Y0182D01*
X022*
X02166Y01786D02*
X02175Y01795D01*
X02225*
X01623Y01779D02*
X01669D01*
X01608Y01764D02*
X01623Y01779D01*
X0176Y0187D02*
X01885D01*
X01669Y01779D02*
X0176Y0187D01*
X0234Y0216D02*
X02438D01*
X01703Y01743D02*
X0179Y0183D01*
X019*
X01832Y01763D02*
X01863Y01795D01*
X01935*
X0181Y01741D02*
X01818D01*
X01832Y01755D02*
Y01763D01*
X01818Y01741D02*
X01832Y01755D01*
X019Y0183D02*
X01965Y01895D01*
X0213*
X02318Y02083D02*
X02438D01*
X0213Y01895D02*
X02318Y02083D01*
X02326Y02031D02*
X02438D01*
X01928Y01755D02*
X0196D01*
X0202Y01743D02*
X02028D01*
X0196Y01755D02*
X02005Y018D01*
X0201*
X02181Y01841D02*
X02346Y02006D01*
X02438*
X0236Y0198D02*
X02438D01*
X02383Y01953D02*
X02436D01*
X02438Y01955*
X0213Y01746D02*
X02138D01*
X02247Y0176D02*
Y01768D01*
X02233Y01746D02*
X02247Y0176D01*
X02225Y01746D02*
X02233D01*
X01585Y01741D02*
X01593D01*
X01608Y01756*
Y01764*
X01695Y01741D02*
X01703D01*
G54D33*
X02568Y01643D02*
X02575Y0165D01*
X02525Y0186D02*
X02575Y0181D01*
X02564Y01643D02*
X02568D01*
X02575Y0165D02*
Y0181D01*
X02535Y01614D02*
X02564Y01643D01*
X02525Y0211D02*
Y0215D01*
X02438Y02185D02*
X02489D01*
X02525Y0215*
Y0186D02*
Y0211D01*
X02438Y02108D02*
X02523D01*
X02525Y0211*
X02535Y01614D02*
X02535D01*
X02744Y02032D02*
X02942D01*
X02985Y0199D02*
X03083D01*
X02942Y02032D02*
X02985Y0199D01*
X03083D02*
X03114Y01959D01*
X02779Y01929D02*
X02824Y01884D01*
X02711Y01929D02*
X02779D01*
X02799Y01955D02*
X03015Y0174D01*
X02743Y01955D02*
X02799D01*
X03015Y01556D02*
Y0174D01*
X02744Y0198D02*
X02819D01*
X03105Y01675D02*
X03115Y01665D01*
X03105Y01675D02*
Y01694D01*
X02819Y0198D02*
X03105Y01694D01*
X02824Y01845D02*
Y01884D01*
Y01845D02*
X02903Y01766D01*
X03115Y01371D02*
X03115D01*
X03114D02*
X03115D01*
X0308Y01405D02*
X03114Y01371D01*
X03065Y01405D02*
X0308D01*
X02903Y01566D02*
Y01766D01*
Y01566D02*
X03065Y01405D01*
X03015Y01556D02*
X03114Y01457D01*
X03115*
X03114Y01751D02*
X03115D01*
X02858Y02006D02*
X03114Y01751D01*
X02743Y02006D02*
X02858D01*
X03114Y01959D02*
X03115D01*
X03102Y02057D02*
X03115Y02045D01*
X02922Y02057D02*
X03102D01*
X02922Y02057D02*
X02922Y02057D01*
X02743Y02057D02*
X02922D01*
X02943Y02083D02*
X03114Y02253D01*
X02711Y02083D02*
X02943D01*
X03115Y02253D02*
X03115D01*
X03114D02*
X03115D01*
X03114Y02339D02*
X03115D01*
X02883Y02108D02*
X03114Y02339D01*
X02743Y02108D02*
X02883D01*
G54D34*
X01835Y02099D02*
X01839Y02095D01*
X01835Y02099D02*
Y0216D01*
X0173Y02215D02*
X01735Y0221D01*
X01784*
X01835Y0216*
X02129Y02215D02*
X0213D01*
X02074Y0227D02*
X02129Y02215D01*
X02074Y0227D02*
Y02271D01*
X02026Y02319D02*
X02074Y02271D01*
X0193Y02319D02*
X02026D01*
X0213Y02215D02*
X0213D01*
X02215Y023*
X02545*
X02625Y0188D02*
Y0222D01*
X02545Y023D02*
X02625Y0222D01*
X02438Y02236D02*
X02533D01*
X0258Y0219*
Y0186D02*
Y0219D01*
Y0186D02*
X02635Y01805D01*
Y01673D02*
Y01805D01*
X02675Y01796D02*
X02683Y01788D01*
X02675Y01796D02*
Y01829D01*
X02625Y0188D02*
X02675Y01829D01*
X02688Y0166D02*
X02689Y01658D01*
X02648Y0166D02*
X02688D01*
X02635Y01673D02*
X02648Y0166D01*
X02683Y0178D02*
Y01788D01*
X02533Y01779D02*
Y01787D01*
X02438Y01882D02*
X02533Y01787D01*
X02438Y01882D02*
Y01897D01*
X02532Y01778D02*
X02533Y01779D01*
X02532Y01675D02*
Y01778D01*
X03115Y01665D02*
X03133Y01683D01*
X0275Y01658D02*
X02753Y01661D01*
Y01776*
X02757Y0178*
Y01852*
X02711Y01898D02*
X02757Y01852D01*
X02743Y02275D02*
X02884D01*
X02711Y02242D02*
X02743Y02275D01*
X0345Y0139D02*
X03605D01*
X03418Y01358D02*
X0345Y0139D01*
X03418Y0135D02*
Y01358D01*
Y01496D02*
X03421Y01493D01*
X03601*
X03605Y0149*
X03557Y01642D02*
X03605Y0169D01*
X03418Y01642D02*
X03557D01*
X03418Y01789D02*
X03418Y01789D01*
X03604*
X03605Y0179*
X03464Y0199D02*
X03605D01*
X03418Y01943D02*
X03464Y0199D01*
X03418Y01935D02*
Y01943D01*
Y02082D02*
X03422Y02086D01*
X03601*
X03605Y0209*
X03471Y0229D02*
X03605D01*
X03418Y02236D02*
X03471Y0229D01*
X03418Y02228D02*
Y02236D01*
Y02375D02*
X0358D01*
X03595Y0239*
X03605*
X03215Y0234D02*
X03215D01*
X0325Y02375*
X03345*
X03215Y02279D02*
X03302D01*
X03345Y02236*
Y02228D02*
Y02236D01*
X03215Y02042D02*
X03313D01*
X03345Y02073*
Y02082*
X03215Y01981D02*
X03307D01*
X03345Y01943*
Y01935D02*
Y01943D01*
X03215Y01744D02*
X03308D01*
X03345Y01781*
Y01789*
X03215Y01683D02*
X03312D01*
X03345Y01651*
Y01642D02*
Y01651D01*
X03215Y01446D02*
X03303D01*
X03345Y01488*
Y01496*
X03215Y01385D02*
X03318D01*
X03345Y01358*
Y0135D02*
Y01358D01*
X03129Y01385D02*
X03215D01*
X03115Y01371D02*
X03129Y01385D01*
X03115Y01457D02*
X03202D01*
X03133Y01683D02*
X03215D01*
X03115Y01665D02*
X03115D01*
X03115Y01751D02*
X03206D01*
X03214Y01744*
X03215*
X03137Y01981D02*
X03215D01*
X03115Y01959D02*
X03137Y01981D01*
X03115Y01959D02*
X03115D01*
X03115Y02045D02*
X03116Y02043D01*
X03213*
X03215Y02042*
X03141Y02279D02*
X03215D01*
X03115Y02253D02*
X03141Y02279D01*
X03115Y02339D02*
X03115Y0234D01*
X03214*
X03215Y0234*
G54D35*
X0135Y02245D03*
G54D36*
X02405Y0178D03*
G54D37*
X01489Y00417D03*
G54D38*
X01932Y01079D03*
G54D39*
X02382Y01667D03*
G54D40*
X00802Y0017D03*
G54D41*
X00145Y01267D03*
G54D42*
X00255Y02217D03*
G54D43*
X00672Y00342D03*
G54D44*
X00995Y013D03*
G54D45*
X0263Y0249D03*
G54D46*
X0253Y0249D03*
G54D47*
X00325Y02147D03*
G54D48*
X00325Y02047D03*
Y00347D03*
Y01947D03*
Y01847D03*
Y01747D03*
Y01647D03*
Y01547D03*
Y01447D03*
Y01347D03*
Y01247D03*
Y01147D03*
Y01047D03*
Y00947D03*
Y00847D03*
Y00747D03*
Y00647D03*
Y00547D03*
Y00447D03*
X01325Y02147D03*
Y02047D03*
Y01947D03*
Y01847D03*
Y01747D03*
Y01647D03*
Y01547D03*
Y01447D03*
Y01347D03*
Y01247D03*
Y01147D03*
Y01047D03*
Y00947D03*
Y00847D03*
Y00747D03*
Y00647D03*
Y00547D03*
Y00447D03*
Y00347D03*
G54D49*
X03605Y0239D03*
Y0229D03*
Y0219D03*
Y0209D03*
Y0199D03*
Y0189D03*
Y0179D03*
Y0169D03*
Y0159D03*
Y0149D03*
Y0139D03*
Y0129D03*
M02*