%FSTAX23Y23*%
%MOIN*%
%SFA1B1*%

%IPPOS*%
%ADD12C,0.005000*%
%LNpcb1-1*%
%LPD*%
%SRX1Y1I0J0*%
G54D12*
X0268Y02375D02*
Y02604D01*
X0248D02*
X0268D01*
X0248Y02375D02*
Y02604D01*
Y02375D02*
X0268D01*
Y02604*
X0248D02*
X0268D01*
X0248Y02375D02*
Y02604D01*
Y02375D02*
X0268D01*
X01887Y01662D02*
X01942D01*
X01887Y01747D02*
X01942D01*
Y01662D02*
Y01747D01*
X01887Y01662D02*
Y01747D01*
Y01662D02*
X01942D01*
X01887Y01747D02*
X01942D01*
Y01662D02*
Y01747D01*
X01887Y01662D02*
Y01747D01*
X02102Y01667D02*
X02157D01*
X02102Y01752D02*
X02157D01*
Y01667D02*
Y01752D01*
X02102D02*
Y01667D01*
X02157*
X02102Y01752D02*
X02157D01*
Y01667D02*
Y01752D01*
X02102D02*
Y01667D01*
X03233Y02275D02*
Y02344D01*
X03196Y02275D02*
Y02344D01*
X03233*
X03196Y02275D02*
X03233D01*
Y02344*
X03196Y02275D02*
Y02344D01*
X03233*
X03196Y02275D02*
X03233D01*
Y01977D02*
Y02046D01*
X03196Y01977D02*
Y02046D01*
X03233*
X03196Y01977D02*
X03233D01*
Y02046*
X03196Y01977D02*
Y02046D01*
X03233*
X03196Y01977D02*
X03233D01*
Y01679D02*
Y01748D01*
X03196Y01679D02*
Y01748D01*
X03233*
X03196Y01679D02*
X03233D01*
Y01748*
X03196Y01679D02*
Y01748D01*
X03233*
X03196Y01679D02*
X03233D01*
Y01381D02*
Y0145D01*
X03196Y01381D02*
Y0145D01*
X03233*
X03196Y01381D02*
X03233D01*
Y0145*
X03196Y01381D02*
Y0145D01*
X03233*
X03196Y01381D02*
X03233D01*
X03339Y01322D02*
X03424D01*
X03339Y01377D02*
X03424D01*
X03339Y01322D02*
Y01377D01*
X03424Y01322D02*
Y01377D01*
X03339Y01322D02*
X03424D01*
X03339Y01377D02*
X03424D01*
X03339Y01322D02*
Y01377D01*
X03424Y01322D02*
Y01377D01*
X03133Y01747D02*
Y01816D01*
X03096Y01747D02*
Y01816D01*
X03133*
X03096Y01747D02*
X03133D01*
Y01816*
X03096Y01747D02*
Y01816D01*
X03133*
X03096Y01747D02*
X03133D01*
X03096Y016D02*
Y01669D01*
X03133D02*
Y016D01*
X03096D02*
X03133D01*
X03096Y01669D02*
X03133D01*
X03096Y016D02*
Y01669D01*
X03133D02*
Y016D01*
X03096D02*
X03133D01*
X03096Y01669D02*
X03133D01*
Y01453D02*
Y01522D01*
X03096Y01453D02*
Y01522D01*
X03133*
X03096Y01453D02*
X03133D01*
Y01522*
X03096Y01453D02*
Y01522D01*
X03133*
X03096Y01453D02*
X03133D01*
X03096Y01306D02*
Y01375D01*
X03133Y01306D02*
Y01375D01*
X03096Y01306D02*
X03133D01*
X03096Y01375D02*
X03133D01*
X03096Y01306D02*
Y01375D01*
X03133Y01306D02*
Y01375D01*
X03096Y01306D02*
X03133D01*
X03096Y01375D02*
X03133D01*
X03339Y01468D02*
X03424D01*
X03339Y01523D02*
X03424D01*
X03339Y01468D02*
Y01523D01*
X03424Y01468D02*
Y01523D01*
X03339Y01468D02*
X03424D01*
X03339Y01523D02*
X03424D01*
X03339Y01468D02*
Y01523D01*
X03424Y01468D02*
Y01523D01*
X02453Y01752D02*
X02538D01*
X02453Y01807D02*
X02538D01*
X02453Y01752D02*
Y01807D01*
X02538Y01752D02*
Y01807D01*
X02453Y01752D02*
X02538D01*
X02453Y01807D02*
X02538D01*
X02453Y01752D02*
Y01807D01*
X02538Y01752D02*
Y01807D01*
X02677Y01752D02*
X02762D01*
X02677Y01807D02*
X02762D01*
X02677Y01752D02*
Y01807D01*
X02762Y01752D02*
Y01807D01*
X02677Y01752D02*
X02762D01*
X02677Y01807D02*
X02762D01*
X02677Y01752D02*
Y01807D01*
X02762Y01752D02*
Y01807D01*
X03339Y01615D02*
X03424D01*
X03339Y0167D02*
X03424D01*
X03339Y01615D02*
Y0167D01*
X03424Y01615D02*
Y0167D01*
X03339Y01615D02*
X03424D01*
X03339Y0167D02*
X03424D01*
X03339Y01615D02*
Y0167D01*
X03424Y01615D02*
Y0167D01*
X02553Y0161D02*
Y01679D01*
X02516Y0161D02*
Y01679D01*
X02553*
X02516Y0161D02*
X02553D01*
Y01679*
X02516Y0161D02*
Y01679D01*
X02553*
X02516Y0161D02*
X02553D01*
X02685Y01677D02*
X02754D01*
X02685Y01639D02*
X02754D01*
X02685D02*
Y01677D01*
X02754Y01639D02*
Y01677D01*
X02685D02*
X02754D01*
X02685Y01639D02*
X02754D01*
X02685D02*
Y01677D01*
X02754Y01639D02*
Y01677D01*
X03339Y01761D02*
X03424D01*
X03339Y01816D02*
X03424D01*
X03339Y01761D02*
Y01816D01*
X03424Y01761D02*
Y01816D01*
X03339Y01761D02*
X03424D01*
X03339Y01816D02*
X03424D01*
X03339Y01761D02*
Y01816D01*
X03424Y01761D02*
Y01816D01*
X03339Y01908D02*
X03424D01*
X03339Y01963D02*
X03424D01*
X03339Y01908D02*
Y01963D01*
X03424Y01908D02*
Y01963D01*
X03339Y01908D02*
X03424D01*
X03339Y01963D02*
X03424D01*
X03339Y01908D02*
Y01963D01*
X03424Y01908D02*
Y01963D01*
X03133Y02404D02*
Y02335D01*
X03096D02*
Y02404D01*
X03133*
X03096Y02335D02*
X03133D01*
Y02404D02*
Y02335D01*
X03096D02*
Y02404D01*
X03133*
X03096Y02335D02*
X03133D01*
X03096Y02188D02*
Y02257D01*
X03133Y02188D02*
Y02257D01*
X03096Y02188D02*
X03133D01*
X03096Y02257D02*
X03133D01*
X03096Y02188D02*
Y02257D01*
X03133Y02188D02*
Y02257D01*
X03096Y02188D02*
X03133D01*
X03096Y02257D02*
X03133D01*
Y02041D02*
Y0211D01*
X03096D02*
Y02041D01*
Y0211D02*
X03133D01*
X03096Y02041D02*
X03133D01*
Y0211*
X03096D02*
Y02041D01*
Y0211D02*
X03133D01*
X03096Y02041D02*
X03133D01*
X03096Y01894D02*
Y01963D01*
X03133Y01894D02*
Y01963D01*
X03096Y01894D02*
X03133D01*
X03096Y01963D02*
X03133D01*
X03096Y01894D02*
Y01963D01*
X03133Y01894D02*
Y01963D01*
X03096Y01894D02*
X03133D01*
X03096Y01963D02*
X03133D01*
X03339Y02054D02*
X03424D01*
X03339Y02109D02*
X03424D01*
X03339Y02054D02*
Y02109D01*
X03424Y02054D02*
Y02109D01*
X03339Y02054D02*
X03424D01*
X03339Y02109D02*
X03424D01*
X03339Y02054D02*
Y02109D01*
X03424Y02054D02*
Y02109D01*
X03339Y02201D02*
X03424D01*
X03339Y02256D02*
X03424D01*
X03339Y02201D02*
Y02256D01*
X03424Y02201D02*
Y02256D01*
X03339Y02201D02*
X03424D01*
X03339Y02256D02*
X03424D01*
X03339Y02201D02*
Y02256D01*
X03424Y02201D02*
Y02256D01*
X03339Y02347D02*
X03424D01*
X03339Y02402D02*
X03424D01*
X03339Y02347D02*
Y02402D01*
X03424Y02347D02*
Y02402D01*
X03339Y02347D02*
X03424D01*
X03339Y02402D02*
X03424D01*
X03339Y02347D02*
Y02402D01*
X03424Y02347D02*
Y02402D01*
X02197Y01667D02*
Y01752D01*
X02252Y01667D02*
Y01752D01*
X02197D02*
X02252D01*
X02197Y01667D02*
X02252D01*
X02197D02*
Y01752D01*
X02252Y01667D02*
Y01752D01*
X02197D02*
X02252D01*
X02197Y01667D02*
X02252D01*
X01992Y01664D02*
Y01749D01*
X02047Y01664D02*
Y01749D01*
X01992D02*
X02047D01*
X01992Y01664D02*
X02047D01*
X01992D02*
Y01749D01*
X02047Y01664D02*
Y01749D01*
X01992D02*
X02047D01*
X01992Y01664D02*
X02047D01*
X01782Y01662D02*
Y01747D01*
X01837Y01662D02*
Y01747D01*
X01782D02*
X01837D01*
X01782Y01662D02*
X01837D01*
X01782D02*
Y01747D01*
X01837Y01662D02*
Y01747D01*
X01782D02*
X01837D01*
X01782Y01662D02*
X01837D01*
X01667Y01747D02*
Y01662D01*
X01722D02*
Y01747D01*
X01667D02*
X01722D01*
X01667Y01662D02*
X01722D01*
X01667Y01747D02*
Y01662D01*
X01722D02*
Y01747D01*
X01667D02*
X01722D01*
X01667Y01662D02*
X01722D01*
X02111Y0215D02*
Y02219D01*
X02148Y0215D02*
Y02219D01*
X02111Y0215D02*
X02148D01*
X02111Y02219D02*
X02148D01*
X02111Y0215D02*
Y02219D01*
X02148Y0215D02*
Y02219D01*
X02111Y0215D02*
X02148D01*
X02111Y02219D02*
X02148D01*
X01711Y0215D02*
Y02219D01*
X01748Y0215D02*
Y02219D01*
X01711Y0215D02*
X01748D01*
X01711Y02219D02*
X01748D01*
X01711Y0215D02*
Y02219D01*
X01748Y0215D02*
Y02219D01*
X01711Y0215D02*
X01748D01*
X01711Y02219D02*
X01748D01*
X01557Y01662D02*
Y01747D01*
X01612Y01662D02*
Y01747D01*
X01557D02*
X01612D01*
X01557Y01662D02*
X01612D01*
X01557D02*
Y01747D01*
X01612Y01662D02*
Y01747D01*
X01557D02*
X01612D01*
X01557Y01662D02*
X01612D01*
X0288Y02293D02*
X02949D01*
X0288Y02256D02*
X02949D01*
X0288D02*
Y02293D01*
X02949Y02256D02*
Y02293D01*
X0288D02*
X02949D01*
X0288Y02256D02*
X02949D01*
X0288D02*
Y02293D01*
X02949Y02256D02*
Y02293D01*
M02*